<svg width="34" height="34" viewBox="0 0 34 34" fill="none" xmlns="http://www.w3.org/2000/svg">
<path d="M32.3266 24.3554C34.0628 20.7376 34.463 16.6222 33.4568 12.7373C32.4506 8.85247 30.1024 5.44878 26.8281 3.1289C23.5538 0.808872 19.5641 -0.277816 15.5654 0.0605957C11.5668 0.399295 7.81716 2.14172 4.97919 4.97919C2.14166 7.81673 0.3993 11.5666 0.0606004 15.5654C-0.277819 19.5641 0.808805 23.5533 3.1289 26.8281C5.44893 30.1024 8.85226 32.4506 12.7373 33.4568C16.6218 34.463 20.7374 34.0628 24.3554 32.3266L31.6964 33.9509H31.6967C31.8344 33.9695 31.9741 33.9695 32.1121 33.9509C32.6124 33.9478 33.0914 33.7488 33.447 33.3969C33.9057 32.9393 34.0963 32.2776 33.9507 31.6464L32.3266 24.3554ZM28.4859 24.5569L29.5939 29.5939L24.5569 28.4859C24.1294 28.4004 23.6853 28.4626 23.2977 28.6621C21.363 29.7024 19.1978 30.2393 17.0015 30.2235C14.1064 30.2266 11.2899 29.2802 8.98408 27.5296C6.67837 25.7787 5.01013 23.3201 4.23552 20.5304C3.46055 17.7409 3.62193 14.7741 4.69481 12.0848C5.76739 9.39574 7.69252 7.13249 10.1744 5.6422C12.6567 4.1519 15.5591 3.51667 18.4365 3.83371C21.3145 4.15077 24.0087 5.40273 26.1071 7.39779C28.205 9.39293 29.5911 12.0207 30.0526 14.8791C30.5141 17.7372 30.0256 20.668 28.6621 23.2218C28.451 23.633 28.3886 24.1047 28.4859 24.5566L28.4859 24.5569ZM24.2298 17.0015H24.2295C24.2295 17.5023 24.0305 17.983 23.6764 18.3371C23.3222 18.6912 22.8415 18.8903 22.3407 18.8903H18.8905V22.3405C18.8905 23.0154 18.5304 23.6388 17.946 23.9764C17.3617 24.3137 16.6415 24.3137 16.0572 23.9764C15.4728 23.6388 15.1127 23.0154 15.1127 22.3405V18.8903H11.6625C10.9876 18.8903 10.3642 18.5302 10.0266 17.9459C9.68933 17.3615 9.68933 16.6414 10.0266 16.057C10.3642 15.4726 10.9876 15.1126 11.6625 15.1126H15.1127V11.6623C15.1127 10.9874 15.4728 10.364 16.0572 10.0265C16.6415 9.68917 17.3617 9.68917 17.946 10.0265C18.5304 10.364 18.8905 10.9874 18.8905 11.6623V15.1126H22.3407C22.8416 15.1126 23.3223 15.3116 23.6764 15.6657C24.0305 16.0199 24.2295 16.5006 24.2295 17.0014L24.2298 17.0015Z" fill="#EB600A"/>
</svg>
