<svg width="42" height="42" viewBox="0 0 42 42" fill="none" xmlns="http://www.w3.org/2000/svg">
<rect width="42" height="42" rx="21" fill="#CFE4FF"/>
<path d="M21 33.091C19.6827 33.0845 18.6147 32.0075 18.6017 30.6728H23.3744C23.377 30.9961 23.3161 31.3167 23.1955 31.6159C22.8825 32.3438 22.2431 32.8747 21.4773 33.0426H21.4713H21.4534H21.4319H21.4212C21.2826 33.0719 21.1415 33.0881 21 33.091ZM30.5455 29.4637H11.4546V27.0455L13.8409 25.8365V19.1865C13.7781 17.4806 14.1582 15.7879 14.9434 14.2775C15.725 12.8768 17.061 11.8822 18.6137 11.545V8.90918H23.3864V11.545C26.4636 12.2874 28.1591 15.0006 28.1591 19.1865V25.8365L30.5455 27.0455V29.4637Z" fill="#326ECF"/>
</svg>
