<svg width="56" height="54" viewBox="0 0 56 54" fill="none" xmlns="http://www.w3.org/2000/svg">
<path d="M47.108 36.1636L47.1093 36.1619C47.8344 35.1854 48.172 33.9754 48.0569 32.765L48.0569 32.7649C47.9419 31.5508 47.3794 30.4225 46.4789 29.5991L46.4778 29.5982C45.743 28.9225 44.8958 28.8921 43.9682 28.8741L43.968 28.8741L43.9326 28.8734C43.3752 28.8624 42.7646 28.8504 42.1716 28.6426C41.5433 28.4225 40.9715 27.9998 40.4381 27.238C39.9 26.5252 39.1641 25.9853 38.3224 25.6852L47.108 36.1636ZM47.108 36.1636C46.5815 36.8425 46.3 37.3886 46.2369 37.979C46.1784 38.5272 46.3194 39.0606 46.4759 39.6527C46.4809 39.6714 46.4858 39.6902 46.4908 39.709L46.5009 39.7477C46.6051 40.145 46.7182 40.5762 46.8123 41.0935L46.8137 41.1008M47.108 36.1636L46.8137 41.1008M46.8137 41.1008L46.8152 41.1081M46.8137 41.1008L46.8152 41.1081M46.8152 41.1081C47.0022 41.9856 46.7925 42.9009 46.2429 43.6096C45.4935 44.4793 44.4083 44.9879 43.2605 45.0066L43.2526 45.0067M46.8152 41.1081L43.2526 45.0067M43.2526 45.0067L43.2448 45.0071M43.2526 45.0067L43.2448 45.0071M43.2448 45.0071C43.1178 45.0132 42.9972 45.0164 42.8837 45.0164C42.1432 45.0164 41.6657 44.8827 41.2471 44.6044C40.8061 44.3113 40.3872 43.8306 39.8188 43.037L39.8188 43.037M43.2448 45.0071L39.8188 43.037M39.8188 43.037C39.5464 42.6568 39.2198 42.4384 38.7867 42.3664C38.4206 42.3055 37.9939 42.3558 37.5362 42.4147M39.8188 43.037L37.5362 42.4147M37.5362 42.4147H37.5186L37.4702 42.4243C36.4868 42.6201 35.4671 42.5308 34.5321 42.1672C33.4683 41.7004 32.6579 40.7972 32.3085 39.6888L32.3079 39.687C31.8455 38.2398 32.0118 36.6648 32.7658 35.3463C33.528 34.196 33.7322 32.7632 33.3205 31.4458C33.0866 30.4946 33.0206 29.5099 33.1262 28.5362L33.1271 28.528L33.1277 28.5198C33.1806 27.8174 33.4576 27.1505 33.9178 26.6165M37.5362 42.4147L38.3224 25.6852C37.4777 25.3846 36.5635 25.3385 35.6926 25.5528L35.6839 25.5549L35.6839 25.5549C34.9968 25.711 34.3778 26.0828 33.9178 26.6165M33.9178 26.6165L33.5391 26.2901L33.9178 26.6165Z" fill="#F2B05C" stroke="#F2B05C"/>
<path d="M54.6334 22.4541C53.3382 20.3162 49.7236 17.5695 39.6595 17.5695C29.4778 17.5695 25.8972 20.3822 24.6395 22.5293C23.5858 24.3326 23.6472 26.5432 24.9184 28.796L24.9263 28.8101L24.9333 28.8246C25.4449 29.8857 25.6558 31.067 25.5429 32.2394L25.5425 32.243L25.5425 32.243C25.4197 33.4294 25.083 37.0195 25.0831 40.6904C25.0832 42.5268 25.1676 44.3692 25.4012 45.9348C25.6385 47.5251 26.0178 48.7383 26.5444 49.3961L26.5445 49.3962C27.3059 50.3481 28.6021 51.1098 30.4985 51.6312C32.3908 52.1514 34.8355 52.4197 37.8326 52.4197H41.4892C44.4862 52.4197 46.9309 52.1513 48.8232 51.631C50.7195 51.1096 52.0159 50.3478 52.7779 49.3961L54.6334 22.4541ZM54.6334 22.4541L54.6774 22.5293C55.7334 24.3338 55.6699 26.5445 54.4027 28.7965L54.395 28.8102L54.3881 28.8244C53.8759 29.8856 53.665 31.0671 53.7785 32.2396L53.8222 32.6915H53.8243C53.9691 34.1815 54.2389 37.4039 54.2388 40.691C54.2387 42.5275 54.1542 44.3698 53.9207 45.9353C53.6835 47.5255 53.3043 48.7385 52.778 49.396L54.6334 22.4541ZM27.5789 27.9688C27.9492 29.1155 28.1117 30.3191 28.0592 31.5227L27.5604 31.4877C27.5603 31.4899 27.5601 31.4922 27.5599 31.4944M27.5789 27.9688L27.5599 31.4944M27.5789 27.9688C27.2907 27.0716 27.1384 26.1361 27.1271 25.1937L27.5789 27.9688ZM27.5599 31.4944C27.609 30.3523 27.4544 29.2105 27.1031 28.1224L27.1029 28.1217C26.7993 27.177 26.6391 26.192 26.6272 25.1997L26.627 25.1902L26.6273 25.1806C26.6533 24.1894 26.9152 23.3147 27.4705 22.5738C28.0224 21.8374 28.8348 21.2725 29.8957 20.8451C31.9978 19.9982 35.1918 19.6466 39.6593 19.6466C44.1268 19.6466 47.3207 19.9977 49.4227 20.8444C50.4836 21.2717 51.296 21.8365 51.848 22.5731C52.4033 23.314 52.6652 24.1889 52.6914 25.1806L52.6916 25.1901L52.6915 25.1997C52.6796 26.192 52.5193 27.1771 52.2158 28.1217L52.2156 28.1223C51.8636 29.2127 51.7095 30.3574 51.76 31.5026L51.7596 31.5027C52.1509 37.0821 52.3204 40.8953 52.248 43.4821C52.2118 44.7765 52.1147 45.7836 51.9477 46.5606C51.7816 47.3337 51.5376 47.9223 51.1757 48.3392L51.1757 48.3392C50.3591 49.2795 49.0782 49.9346 47.388 50.358C45.6934 50.7826 43.539 50.9865 40.9159 50.9865H38.4026C35.779 50.9865 33.6247 50.7828 31.9303 50.3584C30.2402 49.9351 28.9595 49.28 28.1427 48.3392L28.1426 48.3391C27.781 47.9223 27.5372 47.3338 27.3712 46.5608C27.2043 45.7839 27.1072 44.7768 27.071 43.4825C26.9986 40.8944 27.1682 37.0785 27.5599 31.4944Z" fill="#F2B05C" stroke="#F2B05C"/>
<path d="M45.3838 42.9245C44.8931 43.4767 44.2143 43.8209 43.4855 43.8939L43.1879 43.9085C42.5148 43.9416 42.1913 43.8906 41.9089 43.7237C41.5979 43.54 41.2737 43.1805 40.7161 42.4032C40.202 41.6349 39.3226 41.1927 38.3991 41.2387C38.0489 41.2468 37.6996 41.2771 37.3528 41.3295L37.3381 41.3317L37.3236 41.3348C36.5351 41.5024 35.7151 41.4399 34.9614 41.1546C34.1885 40.8092 33.6013 40.1485 33.3503 39.34L33.3504 39.34L33.3495 39.3373C32.9851 38.1869 33.1201 36.9367 33.7207 35.8902C34.6171 34.5085 34.8642 32.8041 34.3972 31.2246C34.1873 30.3866 34.1265 29.5183 34.2181 28.6597L34.2192 28.6495L34.2198 28.6393C34.2511 28.1613 34.4369 27.7061 34.7491 27.3422C35.0613 26.9788 35.4827 26.7262 35.9502 26.6229L35.9502 26.623L35.9596 26.6208C36.6153 26.4627 37.3022 26.4975 37.938 26.7209C38.5704 26.9435 39.1253 27.3429 39.5369 27.872C40.238 28.8694 41.0196 29.4028 41.8109 29.6793C42.4711 29.91 43.1179 29.9531 43.6655 29.9678L43.6659 29.9685L43.9447 29.9739C44.8307 29.9913 45.3072 30.0194 45.7334 30.4095L45.7349 30.4109C46.4341 31.0459 46.8725 31.9179 46.9651 32.8585C47.0569 33.7971 46.7976 34.7361 46.2371 35.4946C45.5304 36.4067 45.208 37.171 45.1387 37.9232C45.0725 38.6422 45.2464 39.3009 45.4179 39.9505L45.4284 39.9902L45.4284 39.9903C45.5306 40.3774 45.6415 40.7992 45.7319 41.2925L45.7338 41.3027L45.7361 41.3129C45.8639 41.8758 45.7345 42.4662 45.3838 42.9245Z" fill="#F2B05C" stroke="#F2B05C"/>
<mask id="path-4-inside-1_280_4765" fill="white">
<path d="M21.8299 23.6848C21.6924 23.0322 21.5519 22.4704 21.4007 21.9694C20.7628 19.8245 20.1141 18.1434 19.5425 16.66C18.522 14.0126 17.7073 11.8927 17.3337 8.38198V8.38149C18.0374 8.17917 18.5226 7.53684 18.525 6.80466V4.02575C18.524 3.15066 18.1759 2.31188 17.5576 1.69312C16.9389 1.07436 16.1001 0.726689 15.225 0.725708H7.87812C7.00303 0.72669 6.16425 1.07436 5.54549 1.69312C4.92673 2.31187 4.57906 3.15065 4.57808 4.02575V6.80466C4.58152 7.53194 5.06031 8.1708 5.75714 8.3781C5.38 11.8785 4.56482 14.0136 3.54432 16.6791C2.97713 18.1641 2.33432 19.8411 1.70134 21.9674C1.55108 22.4698 1.41063 23.0311 1.27314 23.6823C0.128937 29.0213 -0.0380635 37.3286 0.16675 42.8223L0.166259 42.8228C0.194741 45.1868 0.427016 47.5445 0.860139 49.8687C1.38412 51.9007 4.20037 52.5435 6.26975 52.849C8.05339 53.0685 9.84871 53.1785 11.6455 53.179C13.379 53.1844 15.1105 53.0744 16.8293 52.849C18.902 52.5426 21.7184 51.9002 22.2424 49.8682C22.6755 47.5435 22.9078 45.1858 22.9358 42.8213C23.141 37.3316 22.9736 29.0241 21.8299 23.6851L21.8299 23.6848ZM2.75523 22.2828C3.37595 20.1957 4.0114 18.5364 4.5703 17.0726C5.74593 14.326 6.51497 11.4233 6.85427 8.45477H16.2337C16.5652 11.4184 17.3337 14.3167 18.5148 17.0554C19.0795 18.5207 19.7194 20.181 20.3464 22.2848C20.4378 22.5888 20.5252 22.9208 20.6111 23.2822L20.6106 23.2817C14.5748 23.6122 8.52534 23.6122 2.48892 23.2817C2.57633 22.9203 2.66374 22.5878 2.75508 22.2829L2.75523 22.2828ZM12.0659 38.3152C11.7364 38.4433 11.3705 38.4433 11.041 38.3152C5.98103 36.3578 4.8418 32.741 6.4864 30.3687C7.46903 28.9554 10.1788 28.5723 11.3372 30.0691H11.3377C11.3888 30.1364 11.4688 30.1762 11.5533 30.1762C11.6382 30.1762 11.7183 30.1364 11.7694 30.0691C12.9283 28.5723 15.6376 28.9553 16.6202 30.3687C18.2648 32.741 17.1274 36.3578 12.0659 38.3152H12.0659ZM21.1768 49.5936C20.9062 50.6435 19.4315 51.3536 16.6668 51.7617H16.6663C15.03 51.9704 13.3825 52.077 11.733 52.0794C9.9627 52.0716 8.1939 51.965 6.43528 51.7612C3.67208 51.3526 2.19682 50.6435 1.92528 49.5941C1.54371 47.5498 1.33157 45.477 1.29081 43.3978C5.05885 43.7185 8.63768 43.884 12.059 43.884C15.3152 43.8879 18.5696 43.7288 21.8102 43.4067C21.7694 45.483 21.5577 47.5523 21.1762 49.5937L21.1768 49.5936Z"/>
</mask>
<path d="M21.8299 23.6848C21.6924 23.0322 21.5519 22.4704 21.4007 21.9694C20.7628 19.8245 20.1141 18.1434 19.5425 16.66C18.522 14.0126 17.7073 11.8927 17.3337 8.38198V8.38149C18.0374 8.17917 18.5226 7.53684 18.525 6.80466V4.02575C18.524 3.15066 18.1759 2.31188 17.5576 1.69312C16.9389 1.07436 16.1001 0.726689 15.225 0.725708H7.87812C7.00303 0.72669 6.16425 1.07436 5.54549 1.69312C4.92673 2.31187 4.57906 3.15065 4.57808 4.02575V6.80466C4.58152 7.53194 5.06031 8.1708 5.75714 8.3781C5.38 11.8785 4.56482 14.0136 3.54432 16.6791C2.97713 18.1641 2.33432 19.8411 1.70134 21.9674C1.55108 22.4698 1.41063 23.0311 1.27314 23.6823C0.128937 29.0213 -0.0380635 37.3286 0.16675 42.8223L0.166259 42.8228C0.194741 45.1868 0.427016 47.5445 0.860139 49.8687C1.38412 51.9007 4.20037 52.5435 6.26975 52.849C8.05339 53.0685 9.84871 53.1785 11.6455 53.179C13.379 53.1844 15.1105 53.0744 16.8293 52.849C18.902 52.5426 21.7184 51.9002 22.2424 49.8682C22.6755 47.5435 22.9078 45.1858 22.9358 42.8213C23.141 37.3316 22.9736 29.0241 21.8299 23.6851L21.8299 23.6848ZM2.75523 22.2828C3.37595 20.1957 4.0114 18.5364 4.5703 17.0726C5.74593 14.326 6.51497 11.4233 6.85427 8.45477H16.2337C16.5652 11.4184 17.3337 14.3167 18.5148 17.0554C19.0795 18.5207 19.7194 20.181 20.3464 22.2848C20.4378 22.5888 20.5252 22.9208 20.6111 23.2822L20.6106 23.2817C14.5748 23.6122 8.52534 23.6122 2.48892 23.2817C2.57633 22.9203 2.66374 22.5878 2.75508 22.2829L2.75523 22.2828ZM12.0659 38.3152C11.7364 38.4433 11.3705 38.4433 11.041 38.3152C5.98103 36.3578 4.8418 32.741 6.4864 30.3687C7.46903 28.9554 10.1788 28.5723 11.3372 30.0691H11.3377C11.3888 30.1364 11.4688 30.1762 11.5533 30.1762C11.6382 30.1762 11.7183 30.1364 11.7694 30.0691C12.9283 28.5723 15.6376 28.9553 16.6202 30.3687C18.2648 32.741 17.1274 36.3578 12.0659 38.3152H12.0659ZM21.1768 49.5936C20.9062 50.6435 19.4315 51.3536 16.6668 51.7617H16.6663C15.03 51.9704 13.3825 52.077 11.733 52.0794C9.9627 52.0716 8.1939 51.965 6.43528 51.7612C3.67208 51.3526 2.19682 50.6435 1.92528 49.5941C1.54371 47.5498 1.33157 45.477 1.29081 43.3978C5.05885 43.7185 8.63768 43.884 12.059 43.884C15.3152 43.8879 18.5696 43.7288 21.8102 43.4067C21.7694 45.483 21.5577 47.5523 21.1762 49.5937L21.1768 49.5936Z" fill="#F2B05C"/>
<path d="M21.8299 23.6848L22.8288 23.6387L22.8251 23.5578L22.8084 23.4786L21.8299 23.6848ZM21.4007 21.9694L20.4421 22.2545L20.4434 22.2585L21.4007 21.9694ZM19.5425 16.66L20.4756 16.3004L20.4756 16.3004L19.5425 16.66ZM17.3337 8.38198H16.3337V8.43505L16.3393 8.48781L17.3337 8.38198ZM17.3337 8.38149L17.0574 7.42043L16.3337 7.62849V8.38149H17.3337ZM18.525 6.80466L19.525 6.80802V6.80466H18.525ZM18.525 4.02575H19.525V4.02462L18.525 4.02575ZM17.5576 1.69312L18.265 0.986298L18.2647 0.986011L17.5576 1.69312ZM15.225 0.725708L15.2261 -0.274292H15.225V0.725708ZM7.87812 0.725708V-0.274293L7.87699 -0.274291L7.87812 0.725708ZM5.54549 1.69312L4.83839 0.986003L4.83838 0.986011L5.54549 1.69312ZM4.57808 4.02575L3.57808 4.02463V4.02575H4.57808ZM4.57808 6.80466H3.57807L3.57809 6.80939L4.57808 6.80466ZM5.75714 8.3781L6.75139 8.48522L6.84061 7.65711L6.04228 7.41961L5.75714 8.3781ZM3.54432 16.6791L2.61042 16.3216L2.61014 16.3223L3.54432 16.6791ZM1.70134 21.9674L2.6594 22.254L2.65978 22.2527L1.70134 21.9674ZM1.27314 23.6823L2.25094 23.8919L2.25157 23.8889L1.27314 23.6823ZM0.16675 42.8223L0.873857 43.5294L1.18231 43.221L1.16606 42.785L0.16675 42.8223ZM0.166259 42.8228L-0.540847 42.1157L-0.838744 42.4136L-0.833668 42.8348L0.166259 42.8228ZM0.860139 49.8687L-0.122936 50.0519L-0.116694 50.0854L-0.108187 50.1184L0.860139 49.8687ZM6.26975 52.849L6.12371 53.8383L6.13564 53.84L6.1476 53.8415L6.26975 52.849ZM11.6455 53.179L11.6487 52.179H11.6458L11.6455 53.179ZM16.8293 52.849L16.9593 53.8405L16.9674 53.8394L16.9755 53.8382L16.8293 52.849ZM22.2424 49.8682L23.2107 50.1179L23.2192 50.0849L23.2255 50.0513L22.2424 49.8682ZM22.9358 42.8213L21.9365 42.7839L21.936 42.7967L21.9358 42.8094L22.9358 42.8213ZM21.8299 23.6851L20.8309 23.7312L20.8348 23.8137L20.8521 23.8945L21.8299 23.6851ZM2.75523 22.2828L3.06785 23.2327L3.56465 23.0692L3.71374 22.5679L2.75523 22.2828ZM4.5703 17.0726L3.65097 16.6791L3.64316 16.6974L3.63608 16.7159L4.5703 17.0726ZM6.85427 8.45477V7.45477H5.96207L5.86074 8.34121L6.85427 8.45477ZM16.2337 8.45477L17.2275 8.34362L17.1281 7.45477H16.2337V8.45477ZM18.5148 17.0554L19.4479 16.6958L19.4408 16.6774L19.433 16.6594L18.5148 17.0554ZM20.3464 22.2848L19.3881 22.5705L19.3887 22.5726L20.3464 22.2848ZM20.6111 23.2822L19.904 23.9893L22.4008 26.4861L21.584 23.0509L20.6111 23.2822ZM20.6106 23.2817L21.3177 22.5746L21.0019 22.2588L20.556 22.2832L20.6106 23.2817ZM2.48892 23.2817L1.51694 23.0467L1.23449 24.2145L2.43425 24.2802L2.48892 23.2817ZM2.75508 22.2829L2.44246 21.333L1.94685 21.4961L1.79713 21.996L2.75508 22.2829ZM12.0659 38.3152V37.3152H11.8783L11.7034 37.3832L12.0659 38.3152ZM11.041 38.3152L11.4035 37.3832L11.4018 37.3825L11.041 38.3152ZM6.4864 30.3687L5.66535 29.7978L5.66456 29.7989L6.4864 30.3687ZM11.3372 30.0691L10.5464 30.6812L10.8467 31.0691H11.3372V30.0691ZM11.3377 30.0691L12.1342 29.4645L11.8341 29.0691H11.3377V30.0691ZM11.7694 30.0691L10.9786 29.4568L10.9729 29.4644L11.7694 30.0691ZM16.6202 30.3687L17.442 29.7989L17.4412 29.7978L16.6202 30.3687ZM12.0659 38.3152V39.3152H12.2525L12.4266 39.2479L12.0659 38.3152ZM21.1768 49.5936L22.1451 49.8432L22.496 48.4817L21.0948 48.597L21.1768 49.5936ZM16.6668 51.7617V52.7617H16.7402L16.8128 52.751L16.6668 51.7617ZM16.6663 51.7617V50.7617H16.6028L16.5398 50.7697L16.6663 51.7617ZM11.733 52.0794L11.7286 53.0794L11.7345 53.0794L11.733 52.0794ZM6.43528 51.7612L6.28901 52.7505L6.30456 52.7528L6.32017 52.7546L6.43528 51.7612ZM1.92528 49.5941L0.942255 49.7776L0.948559 49.8114L0.957166 49.8447L1.92528 49.5941ZM1.29081 43.3978L1.37561 42.4014L0.269244 42.3073L0.291005 43.4174L1.29081 43.3978ZM12.059 43.884L12.0602 42.884H12.059V43.884ZM21.8102 43.4067L22.81 43.4263L22.8321 42.3001L21.7112 42.4116L21.8102 43.4067ZM21.1762 49.5937L20.1932 49.4099L19.9525 50.6977L21.2582 50.5903L21.1762 49.5937ZM22.8084 23.4786C22.6666 22.8055 22.5194 22.215 22.358 21.6804L20.4434 22.2585C20.5844 22.7257 20.7182 23.2589 20.8514 23.891L22.8084 23.4786ZM22.3592 21.6844C21.709 19.4981 21.0475 17.7846 20.4756 16.3004L18.6094 17.0196C19.1807 18.5023 19.8166 20.1509 20.4422 22.2545L22.3592 21.6844ZM20.4756 16.3004C19.4604 13.6667 18.687 11.6492 18.3281 8.27616L16.3393 8.48781C16.7276 12.1362 17.5836 14.3585 18.6094 17.0197L20.4756 16.3004ZM18.3337 8.38198V8.38149H16.3337V8.38198H18.3337ZM17.61 9.34256C18.7412 9.01733 19.5211 7.98465 19.525 6.80802L17.525 6.80129C17.5241 7.08904 17.3336 7.34101 17.0574 7.42043L17.61 9.34256ZM19.525 6.80466V4.02575H17.525V6.80466H19.525ZM19.525 4.02462C19.5237 2.88462 19.0702 1.79213 18.265 0.986298L16.8502 2.39994C17.2816 2.83163 17.5243 3.41671 17.525 4.02687L19.525 4.02462ZM18.2647 0.986011C17.4585 0.179821 16.3658 -0.273014 15.2261 -0.274291L15.2239 1.72571C15.8344 1.72639 16.4192 1.96891 16.8505 2.40022L18.2647 0.986011ZM15.225 -0.274292H7.87812V1.72571H15.225V-0.274292ZM7.87699 -0.274291C6.73733 -0.273012 5.64459 0.179823 4.83839 0.986003L6.25259 2.40023C6.68392 1.96891 7.26874 1.72639 7.87924 1.72571L7.87699 -0.274291ZM4.83838 0.986011C4.03219 1.7922 3.57936 2.88495 3.57808 4.02463L5.57808 4.02687C5.57876 3.41635 5.82128 2.83154 6.25259 2.40022L4.83838 0.986011ZM3.57808 4.02575V6.80466H5.57808V4.02575H3.57808ZM3.57809 6.80939C3.58361 7.97724 4.35262 9.00358 5.472 9.33658L6.04228 7.41961C5.76799 7.33801 5.57942 7.08664 5.57807 6.79993L3.57809 6.80939ZM4.76289 8.27098C4.40043 11.6351 3.62605 13.6688 2.61042 16.3216L4.47821 17.0367C5.50358 14.3584 6.35957 12.1218 6.75139 8.48522L4.76289 8.27098ZM2.61014 16.3223C2.043 17.8071 1.3878 19.5158 0.742909 21.6821L2.65978 22.2527C3.28083 20.1664 3.91126 18.521 4.47849 17.036L2.61014 16.3223ZM0.743286 21.6809C0.583489 22.2151 0.436567 22.8038 0.294709 23.4757L2.25157 23.8889C2.3847 23.2583 2.51867 22.7245 2.6594 22.254L0.743286 21.6809ZM0.295341 23.4727C-0.875796 28.9374 -1.0381 37.3463 -0.832556 42.8596L1.16606 42.785C0.961971 37.3109 1.13367 29.1051 2.25094 23.8919L0.295341 23.4727ZM-0.540356 42.1152L-0.540847 42.1157L0.873366 43.5299L0.873857 43.5294L-0.540356 42.1152ZM-0.833668 42.8348C-0.804494 45.2564 -0.566574 47.6713 -0.122936 50.0519L1.84322 49.6855C1.42061 47.4177 1.19398 45.1173 1.16619 42.8107L-0.833668 42.8348ZM-0.108187 50.1184C0.265744 51.5685 1.4361 52.4166 2.58234 52.9215C3.73912 53.431 5.07119 53.6829 6.12371 53.8383L6.41579 51.8597C5.39894 51.7096 4.28818 51.4874 3.3885 51.0911C2.47827 50.6902 1.97851 50.2009 1.82847 49.619L-0.108187 50.1184ZM6.1476 53.8415C7.97178 54.066 9.80781 54.1785 11.6453 54.179L11.6458 52.179C9.88961 52.1785 8.13499 52.071 6.3919 51.8565L6.1476 53.8415ZM11.6424 54.179C13.4203 54.1845 15.1962 54.0717 16.9593 53.8405L16.6992 51.8575C15.0247 52.0771 13.3377 52.1843 11.6487 52.179L11.6424 54.179ZM16.9755 53.8382C18.0295 53.6824 19.3624 53.4304 20.5196 52.9209C21.6662 52.4161 22.8367 51.5681 23.2107 50.1179L21.2741 49.6185C21.124 50.2003 20.6244 50.6895 19.7137 51.0905C18.8135 51.4868 17.7018 51.7091 16.683 51.8598L16.9755 53.8382ZM23.2255 50.0513C23.6691 47.6702 23.907 45.2553 23.9357 42.8331L21.9358 42.8094C21.9085 45.1164 21.6819 47.4167 21.2593 49.685L23.2255 50.0513ZM23.9351 42.8586C24.1411 37.3492 23.9783 28.9403 22.8077 23.4756L20.8521 23.8945C21.9689 29.108 22.141 37.314 21.9365 42.7839L23.9351 42.8586ZM22.8288 23.6389L22.8288 23.6387L20.8309 23.7309L20.8309 23.7312L22.8288 23.6389ZM3.71374 22.5679C4.32252 20.5209 4.94556 18.8933 5.50452 17.4293L3.63608 16.7159C3.07723 18.1796 2.42937 19.8705 1.79673 21.9978L3.71374 22.5679ZM5.48962 17.4661C6.70348 14.6302 7.49749 11.6332 7.84781 8.56833L5.86074 8.34121C5.53245 11.2134 4.78838 14.0218 3.65097 16.6791L5.48962 17.4661ZM6.85427 9.45477H16.2337V7.45477H6.85427V9.45477ZM15.2399 8.56593C15.5823 11.6276 16.3763 14.622 17.5965 17.4514L19.433 16.6594C18.2911 14.0114 17.548 11.2091 17.2275 8.34362L15.2399 8.56593ZM17.5817 17.415C18.1461 18.8794 18.7733 20.5077 19.3881 22.5705L21.3048 21.9992C20.6655 19.8544 20.013 18.162 19.4479 16.6958L17.5817 17.415ZM19.3887 22.5726C19.4731 22.8535 19.5556 23.1659 19.6383 23.5135L21.584 23.0509C21.4948 22.6757 21.4024 22.3242 21.3041 21.9971L19.3887 22.5726ZM21.3182 22.5751L21.3177 22.5746L19.9035 23.9888L19.904 23.9893L21.3182 22.5751ZM20.556 22.2832C14.5566 22.6117 8.5436 22.6117 2.54359 22.2832L2.43425 24.2802C8.50709 24.6127 14.5931 24.6127 20.6653 24.2802L20.556 22.2832ZM3.4609 23.5168C3.54565 23.1664 3.62843 22.8523 3.71303 22.5698L1.79713 21.996C1.69905 22.3234 1.60701 22.6742 1.51694 23.0467L3.4609 23.5168ZM3.0677 23.2328L3.06785 23.2327L2.44262 21.333L2.44246 21.333L3.0677 23.2328ZM11.7034 37.3832C11.607 37.4207 11.4999 37.4207 11.4035 37.3832L10.6785 39.2472C11.2412 39.466 11.8657 39.466 12.4284 39.2472L11.7034 37.3832ZM11.4018 37.3825C9.02989 36.465 7.71612 35.2123 7.14662 34.0558C6.58855 32.9224 6.70144 31.8137 7.30823 30.9384L5.66456 29.7989C4.62676 31.296 4.48696 33.1818 5.35235 34.9393C6.20632 36.6736 7.99216 38.208 10.6802 39.2478L11.4018 37.3825ZM7.30744 30.9395C7.58931 30.5341 8.20626 30.1894 8.93579 30.1236C9.65697 30.0584 10.2385 30.2833 10.5464 30.6812L12.128 29.457C11.2775 28.3581 9.9249 28.0261 8.75595 28.1317C7.59535 28.2364 6.36611 28.7899 5.66535 29.7978L7.30744 30.9395ZM11.3372 31.0691H11.3377V29.0691H11.3372V31.0691ZM10.5412 30.6737C10.7811 30.9898 11.1557 31.1762 11.5533 31.1762V29.1762C11.7819 29.1762 11.9964 29.283 12.1342 29.4645L10.5412 30.6737ZM11.5533 31.1762C11.9503 31.1762 12.3253 30.9906 12.5658 30.6738L10.9729 29.4644C11.1112 29.2822 11.3261 29.1762 11.5533 29.1762V31.1762ZM12.56 30.6813C12.8682 30.2833 13.4499 30.0585 14.171 30.1236C14.9004 30.1894 15.5172 30.5341 15.7991 30.9395L17.4412 29.7978C16.7405 28.7899 15.5114 28.2364 14.3508 28.1317C13.1818 28.0261 11.8294 28.3581 10.9787 29.4569L12.56 30.6813ZM15.7983 30.9384C16.4053 31.8139 16.5184 32.9227 15.9606 34.0559C15.3914 35.2123 14.0779 36.4649 11.7052 37.3825L12.4266 39.2479C15.1155 38.208 16.9013 36.6736 17.755 34.9391C18.6202 33.1815 18.4796 31.2958 17.442 29.7989L15.7983 30.9384ZM12.0659 37.3152H12.0659V39.3152H12.0659V37.3152ZM20.2084 49.3441C20.1781 49.4617 20.0455 49.7181 19.4237 50.0172C18.8078 50.3133 17.8623 50.5744 16.5208 50.7724L16.8128 52.751C18.236 52.5409 19.4102 52.2429 20.2905 51.8196C21.1648 51.3991 21.9049 50.7755 22.1451 49.8432L20.2084 49.3441ZM16.6668 50.7617H16.6663V52.7617H16.6668V50.7617ZM16.5398 50.7697C14.9447 50.9732 13.3389 51.077 11.7315 51.0794L11.7345 53.0794C13.4261 53.0769 15.1153 52.9676 16.7928 52.7537L16.5398 50.7697ZM11.7374 51.0794C10.0043 51.0717 8.27245 50.9674 6.55039 50.7679L6.32017 52.7546C8.11535 52.9626 9.92109 53.0714 11.7286 53.0794L11.7374 51.0794ZM6.58155 50.772C5.24063 50.5737 4.29518 50.3127 3.67904 50.0167C3.05678 49.7176 2.92384 49.4613 2.89339 49.3436L0.957166 49.8447C1.19826 50.7764 1.93872 51.3993 2.81278 51.8193C3.69295 52.2423 4.86673 52.5401 6.28901 52.7505L6.58155 50.772ZM2.9083 49.4107C2.53684 47.4204 2.3303 45.4025 2.29062 43.3782L0.291005 43.4174C0.332839 45.5516 0.550587 47.6791 0.942255 49.7776L2.9083 49.4107ZM1.20602 44.3942C4.99821 44.7169 8.60559 44.884 12.059 44.884V42.884C8.66977 42.884 5.11949 42.72 1.37561 42.4014L1.20602 44.3942ZM12.0578 44.884C15.3474 44.8879 18.6352 44.7272 21.9091 44.4017L21.7112 42.4116C18.504 42.7304 15.2831 42.8879 12.0602 42.884L12.0578 44.884ZM20.8103 43.387C20.7707 45.4084 20.5646 47.4229 20.1932 49.4099L22.1591 49.7774C22.5509 47.6817 22.7681 45.5575 22.81 43.4263L20.8103 43.387ZM21.2582 50.5903L21.2588 50.5903L21.0948 48.597L21.0942 48.597L21.2582 50.5903Z" fill="#F2B05C" mask="url(#path-4-inside-1_280_4765)"/>
</svg>
