<svg width="42" height="43" viewBox="0 0 42 43" fill="none" xmlns="http://www.w3.org/2000/svg">
<rect width="42" height="43" rx="21" fill="#009DDC" fill-opacity="0.1"/>
<path d="M30.4046 11.6447H27.9376V10.8223C27.9376 10.5284 27.7808 10.257 27.5264 10.1101C27.272 9.96329 26.9585 9.96329 26.7041 10.1101C26.4497 10.257 26.2929 10.5285 26.2929 10.8223V11.6447H16.4249V10.8223C16.4249 10.5284 16.2681 10.257 16.0137 10.1101C15.7593 9.96329 15.4458 9.96329 15.1914 10.1101C14.937 10.257 14.7802 10.5285 14.7802 10.8223V11.6447H12.3132C11.6588 11.6447 11.0314 11.9046 10.5687 12.3671C10.1061 12.8299 9.84619 13.4573 9.84619 14.1117V28.9137C9.84619 29.5681 10.1061 30.1955 10.5687 30.6583C11.0314 31.1208 11.6588 31.3807 12.3132 31.3807H30.4046C31.059 31.3807 31.6864 31.1208 32.1491 30.6583C32.6117 30.1955 32.8716 29.5681 32.8716 28.9137V14.1117C32.8716 13.4573 32.6117 12.8299 32.1491 12.3671C31.6864 11.9046 31.059 11.6447 30.4046 11.6447ZM12.3132 13.2893H14.7802C14.7802 13.5832 14.937 13.8547 15.1914 14.0015C15.4458 14.1484 15.7593 14.1484 16.0137 14.0015C16.2681 13.8547 16.4249 13.5832 16.4249 13.2893H26.2929C26.2929 13.5832 26.4497 13.8547 26.7041 14.0015C26.9585 14.1484 27.272 14.1484 27.5264 14.0015C27.7808 13.8547 27.9376 13.5832 27.9376 13.2893H30.4046C30.6227 13.2893 30.8319 13.376 30.9861 13.5302C31.1403 13.6843 31.2269 13.8936 31.2269 14.1117V15.7563H11.4909V14.1117C11.4909 13.8936 11.5775 13.6843 11.7317 13.5302C11.8859 13.376 12.0951 13.2893 12.3132 13.2893ZM30.4046 29.7361H12.3132C12.0951 29.7361 11.8859 29.6494 11.7317 29.4952C11.5775 29.3411 11.4909 29.1318 11.4909 28.9137V17.401H31.2269V28.9137C31.2269 29.1318 31.1403 29.3411 30.9861 29.4952C30.8319 29.6494 30.6227 29.7361 30.4046 29.7361Z" fill="#009DDC"/>
<path d="M14.196 19.2764C14.0458 19.4341 13.9607 19.6426 13.9575 19.8603C13.9562 20.0789 14.0422 20.2891 14.196 20.4442C14.3503 20.5999 14.5605 20.6874 14.7799 20.6874C14.9992 20.6874 15.2094 20.5999 15.3638 20.4442C15.5176 20.2891 15.6035 20.0789 15.6022 19.8603C15.6035 19.6413 15.5174 19.4308 15.3629 19.2755C15.2083 19.1202 14.9983 19.033 14.7791 19.0332C14.5602 19.0334 14.3504 19.1209 14.196 19.2764L14.196 19.2764Z" fill="#009DDC"/>
<path d="M17.4855 19.2764C17.3354 19.4341 17.2502 19.6426 17.2471 19.8603C17.2458 20.0789 17.3317 20.2891 17.4855 20.4442C17.6399 20.5999 17.8501 20.6874 18.0694 20.6874C18.2888 20.6874 18.499 20.5999 18.6533 20.4442C18.8072 20.2891 18.8931 20.0789 18.8918 19.8603C18.8931 19.6413 18.807 19.4308 18.6524 19.2755C18.4979 19.1202 18.2879 19.033 18.0687 19.0332C17.8497 19.0334 17.6399 19.1209 17.4855 19.2764L17.4855 19.2764Z" fill="#009DDC"/>
<path d="M20.7751 19.2764C20.6249 19.4341 20.5398 19.6426 20.5366 19.8603C20.5354 20.0789 20.6213 20.2891 20.7751 20.4442C20.9294 20.5999 21.1396 20.6874 21.359 20.6874C21.5783 20.6874 21.7885 20.5999 21.9429 20.4442C22.0967 20.2891 22.1826 20.0789 22.1813 19.8603C22.1826 19.6413 22.0965 19.4308 21.942 19.2755C21.7874 19.1202 21.5774 19.033 21.3582 19.0332C21.1393 19.0334 20.9295 19.1209 20.7751 19.2764L20.7751 19.2764Z" fill="#009DDC"/>
<path d="M24.0641 19.2764C23.914 19.4341 23.8288 19.6426 23.8257 19.8603C23.8244 20.0789 23.9103 20.2891 24.0641 20.4442C24.2185 20.5999 24.4287 20.6874 24.648 20.6874C24.8674 20.6874 25.0776 20.5999 25.232 20.4442C25.3858 20.2891 25.4717 20.0789 25.4704 19.8603C25.4717 19.6413 25.3856 19.4308 25.231 19.2755C25.0765 19.1202 24.8665 19.033 24.6473 19.0332C24.4283 19.0334 24.2185 19.1209 24.0642 19.2764L24.0641 19.2764Z" fill="#009DDC"/>
<path d="M27.3537 19.2764C27.2035 19.4341 27.1184 19.6426 27.1152 19.8603C27.114 20.0789 27.1999 20.2891 27.3537 20.4442C27.5081 20.5999 27.7182 20.6874 27.9376 20.6874C28.157 20.6874 28.3671 20.5999 28.5215 20.4442C28.6753 20.2891 28.7612 20.0789 28.7599 19.8603C28.7612 19.6413 28.6751 19.4308 28.5206 19.2755C28.366 19.1202 28.156 19.033 27.9369 19.0332C27.7179 19.0334 27.5081 19.1209 27.3537 19.2764L27.3537 19.2764Z" fill="#009DDC"/>
<path d="M14.196 22.5655C14.0458 22.7231 13.9607 22.9316 13.9575 23.1494C13.9562 23.368 14.0422 23.5781 14.196 23.7333C14.3503 23.8889 14.5605 23.9765 14.7799 23.9765C14.9992 23.9765 15.2094 23.8889 15.3638 23.7333C15.5176 23.5782 15.6035 23.368 15.6022 23.1494C15.6035 22.9304 15.5174 22.7198 15.3629 22.5646C15.2083 22.4093 14.9983 22.3221 14.7791 22.3223C14.5602 22.3224 14.3504 22.41 14.196 22.5655L14.196 22.5655Z" fill="#009DDC"/>
<path d="M17.4855 22.5655C17.3354 22.7231 17.2502 22.9316 17.2471 23.1494C17.2458 23.368 17.3317 23.5781 17.4855 23.7333C17.6399 23.8889 17.8501 23.9765 18.0694 23.9765C18.2888 23.9765 18.499 23.8889 18.6533 23.7333C18.8072 23.5782 18.8931 23.368 18.8918 23.1494C18.8931 22.9304 18.807 22.7198 18.6524 22.5646C18.4979 22.4093 18.2879 22.3221 18.0687 22.3223C17.8497 22.3224 17.6399 22.41 17.4855 22.5655L17.4855 22.5655Z" fill="#009DDC"/>
<path d="M20.7751 22.5655C20.6249 22.7231 20.5398 22.9316 20.5366 23.1494C20.5354 23.368 20.6213 23.5781 20.7751 23.7333C20.9294 23.8889 21.1396 23.9765 21.359 23.9765C21.5783 23.9765 21.7885 23.8889 21.9429 23.7333C22.0967 23.5782 22.1826 23.368 22.1813 23.1494C22.1826 22.9304 22.0965 22.7198 21.942 22.5646C21.7874 22.4093 21.5774 22.3221 21.3582 22.3223C21.1393 22.3224 20.9295 22.41 20.7751 22.5655L20.7751 22.5655Z" fill="#009DDC"/>
<path d="M24.0641 22.5655C23.914 22.7231 23.8288 22.9316 23.8257 23.1494C23.8244 23.368 23.9103 23.5781 24.0641 23.7333C24.2185 23.8889 24.4287 23.9765 24.648 23.9765C24.8674 23.9765 25.0776 23.8889 25.232 23.7333C25.3858 23.5782 25.4717 23.368 25.4704 23.1494C25.4717 22.9304 25.3856 22.7198 25.231 22.5646C25.0765 22.4093 24.8665 22.3221 24.6473 22.3223C24.4283 22.3224 24.2185 22.41 24.0642 22.5655L24.0641 22.5655Z" fill="#009DDC"/>
<path d="M27.3537 22.5655C27.2035 22.7231 27.1184 22.9316 27.1152 23.1494C27.114 23.368 27.1999 23.5781 27.3537 23.7333C27.5081 23.8889 27.7182 23.9765 27.9376 23.9765C28.157 23.9765 28.3671 23.8889 28.5215 23.7333C28.6753 23.5782 28.7612 23.368 28.7599 23.1494C28.7612 22.9304 28.6751 22.7198 28.5206 22.5646C28.366 22.4093 28.156 22.3221 27.9369 22.3223C27.7179 22.3224 27.5081 22.41 27.3537 22.5655L27.3537 22.5655Z" fill="#009DDC"/>
<path d="M14.1959 25.8469C14.0402 26.0013 13.9526 26.2115 13.9526 26.4306C13.9526 26.65 14.0402 26.8602 14.1959 27.0145C14.3502 27.1702 14.5604 27.2578 14.7798 27.2578C14.9991 27.2578 15.2093 27.1702 15.3637 27.0145C15.5193 26.8602 15.6069 26.65 15.6069 26.4306C15.6069 26.2115 15.5193 26.0013 15.3637 25.8469C15.2093 25.6911 14.9991 25.6035 14.7798 25.6035C14.5604 25.6035 14.3502 25.6911 14.1959 25.8469Z" fill="#009DDC"/>
<path d="M17.4854 25.8469C17.3297 26.0013 17.2422 26.2115 17.2422 26.4306C17.2422 26.65 17.3297 26.8602 17.4854 27.0145C17.6398 27.1702 17.8499 27.2578 18.0693 27.2578C18.2887 27.2578 18.4988 27.1702 18.6532 27.0145C18.8089 26.8602 18.8964 26.65 18.8964 26.4306C18.8964 26.2115 18.8089 26.0013 18.6532 25.8469C18.4988 25.6911 18.2887 25.6035 18.0693 25.6035C17.8499 25.6035 17.6398 25.6911 17.4854 25.8469Z" fill="#009DDC"/>
<path d="M20.775 25.8469C20.6193 26.0013 20.5317 26.2115 20.5317 26.4306C20.5317 26.65 20.6193 26.8602 20.775 27.0145C20.9293 27.1702 21.1395 27.2578 21.3589 27.2578C21.5782 27.2578 21.7884 27.1702 21.9428 27.0145C22.0984 26.8602 22.186 26.65 22.186 26.4306C22.186 26.2115 22.0984 26.0013 21.9428 25.8469C21.7884 25.6911 21.5782 25.6035 21.3589 25.6035C21.1395 25.6035 20.9293 25.6911 20.775 25.8469Z" fill="#009DDC"/>
<path d="M24.064 25.8469C23.9084 26.0013 23.8208 26.2115 23.8208 26.4306C23.8208 26.65 23.9084 26.8602 24.064 27.0145C24.2184 27.1702 24.4286 27.2578 24.6479 27.2578C24.8673 27.2578 25.0774 27.1702 25.2318 27.0145C25.3875 26.8602 25.475 26.65 25.475 26.4306C25.475 26.2115 25.3875 26.0013 25.2318 25.8469C25.0775 25.6911 24.8673 25.6035 24.6479 25.6035C24.4286 25.6035 24.2184 25.6911 24.064 25.8469Z" fill="#009DDC"/>
<path d="M27.3536 25.8469C27.1979 26.0013 27.1104 26.2115 27.1104 26.4306C27.1104 26.65 27.1979 26.8602 27.3536 27.0145C27.5079 27.1702 27.7181 27.2578 27.9375 27.2578C28.1568 27.2578 28.367 27.1702 28.5214 27.0145C28.677 26.8602 28.7646 26.65 28.7646 26.4306C28.7646 26.2115 28.677 26.0013 28.5214 25.8469C28.367 25.6911 28.1568 25.6035 27.9375 25.6035C27.7181 25.6035 27.5079 25.6911 27.3536 25.8469Z" fill="#009DDC"/>
</svg>
