<svg width="28" height="28" viewBox="0 0 28 28" fill="none" xmlns="http://www.w3.org/2000/svg">
<path d="M13.9814 19.0954L14.6886 19.8025L20.6509 25.7649C21.3289 26.4428 22.2493 26.8241 23.208 26.8242C24.1669 26.8243 25.0875 26.4432 25.7654 25.7654C26.4431 25.0876 26.8243 24.1668 26.8244 23.2077C26.8244 22.2492 26.4432 21.3289 25.765 20.6508L19.8026 14.6884L19.0955 13.9813L19.8026 13.2742L25.765 7.31179C26.6785 6.39835 27.0351 5.06713 26.7011 3.81881L13.9814 19.0954ZM13.9814 19.0954L13.2743 19.8025M13.9814 19.0954L13.2743 19.8025M13.2743 19.8025L7.31195 25.7649C6.39842 26.6784 5.06699 27.0351 3.81866 26.7009M13.2743 19.8025L3.81866 26.7009M3.81866 26.7009C2.57119 26.3663 1.59641 25.3916 1.26188 24.1441C0.927701 22.8957 1.28433 21.5643 2.19787 20.6508L8.16025 14.6884L8.86736 13.9813L8.16025 13.2742L2.19786 7.31179C1.2844 6.39833 0.927722 5.06705 1.26179 3.81881C1.59623 2.57119 2.57107 1.59628 3.81862 1.26172L3.81866 26.7009ZM13.9814 8.8672L13.2743 8.1601L7.31195 2.19771C6.3985 1.28426 5.06728 0.927605 3.81896 1.26163L13.9814 8.8672ZM13.9814 8.8672L14.6886 8.1601M13.9814 8.8672L14.6886 8.1601M14.6886 8.1601L20.6509 2.19771M14.6886 8.1601L20.6509 2.19771M20.6509 2.19771C21.5644 1.28425 22.8957 0.927569 24.1439 1.26163L20.6509 2.19771ZM24.1442 1.26172C25.3917 1.59624 26.3665 2.57102 26.701 3.81846L24.1442 1.26172Z" fill="#EB600A" stroke="white" stroke-width="2"/>
</svg>
