<svg width="58" height="40" viewBox="0 0 58 40" fill="none" xmlns="http://www.w3.org/2000/svg">
<path d="M55.9732 37.1217H1.42688C0.758488 37.1217 0.214844 37.6654 0.214844 38.3337C0.214844 39.0021 0.75851 39.5458 1.42688 39.5458H55.9732C56.6416 39.5458 57.1852 39.0021 57.1852 38.3337C57.1852 37.6654 56.6416 37.1217 55.9732 37.1217Z" fill="#A72314"/>
<path d="M57.3992 33.3337C57.1371 18.7978 44.3687 7.04545 28.6996 7.04545C13.0305 7.04545 0.261909 18.7978 0 33.3337H57.3992Z" fill="#A72314"/>
<path d="M28.6993 0C27.007 0 25.6309 1.37654 25.6309 3.06845C25.6309 4.76079 27.007 6.13646 28.6993 6.13646C30.3908 6.13646 31.7678 4.75992 31.7678 3.06801C31.7678 1.37567 30.3908 0 28.6993 0Z" fill="#A72314"/>
</svg>
