<svg width="25" height="25" viewBox="0 0 25 25" fill="none" xmlns="http://www.w3.org/2000/svg">
<path d="M13.6513 4.2106C14.0037 4.2106 14.3296 4.02267 14.506 3.71727C14.6822 3.41187 14.6822 3.03577 14.506 2.73038C14.3296 2.42498 14.0037 2.23706 13.6513 2.23706H10.5592C10.2067 2.23706 9.88089 2.42498 9.70443 2.73038C9.52821 3.03578 9.52821 3.41188 9.70443 3.71727C9.88088 4.02267 10.2067 4.2106 10.5592 4.2106H13.6513Z" fill="#F0783B"/>
<path d="M2.9276 4.2106H3.91449V2.23682H2.9276V2.23705C2.15112 2.23705 1.40635 2.54543 0.857487 3.09453C0.308403 3.64362 0 4.38816 0 5.16465V22.0724C0 22.8489 0.308386 23.5935 0.857487 24.1425C1.40634 24.6916 2.15112 25 2.9276 25H21.2827C22.0592 25 22.8039 24.6916 23.3528 24.1425C23.9019 23.5934 24.2103 22.8489 24.2103 22.0724V5.16465C24.2103 4.38816 23.9019 3.64358 23.3528 3.09453C22.8039 2.54545 22.0592 2.23705 21.2827 2.23705H20.2958V4.21083H21.2827V4.2106C21.5358 4.2106 21.7785 4.3111 21.9573 4.49007C22.1362 4.66905 22.2367 4.91158 22.2367 5.16464V9.07914H1.94088V5.16464C1.94065 4.90582 2.04574 4.65801 2.23182 4.47809C2.41791 4.2982 2.66893 4.2016 2.92777 4.21055L2.9276 4.2106ZM22.2695 11.0526V22.0723C22.2698 22.3311 22.1647 22.5787 21.9786 22.7586C21.7925 22.9385 21.5415 23.0351 21.2826 23.0261H2.92754C2.67445 23.0261 2.43169 22.9256 2.25297 22.7469C2.07399 22.5679 1.9735 22.3252 1.9735 22.0723V11.0527L22.2695 11.0526Z" fill="#F0783B"/>
<path d="M7.73037 4.90139V0.986891C7.73037 0.634222 7.54222 0.30862 7.23705 0.132165C6.93165 -0.044055 6.55555 -0.044055 6.25016 0.132165C5.94476 0.308614 5.75684 0.63421 5.75684 0.986891V4.93416C5.75684 5.28683 5.94476 5.61267 6.25016 5.78889C6.55556 5.96511 6.93166 5.96511 7.23705 5.78889C7.54222 5.61267 7.73037 5.28684 7.73037 4.93416V4.90139Z" fill="#F0783B"/>
<path d="M18.4535 4.90139V0.986891C18.4535 0.634222 18.2656 0.30862 17.9602 0.132165C17.6548 -0.044055 17.2787 -0.044055 16.9733 0.132165C16.6681 0.308614 16.48 0.63421 16.48 0.986891V4.93416C16.48 5.28683 16.6681 5.61267 16.9733 5.78889C17.2787 5.96511 17.6548 5.96511 17.9602 5.78889C18.2656 5.61267 18.4535 5.28684 18.4535 4.93416V4.90139Z" fill="#F0783B"/>
</svg>
