<svg width="16" height="16" viewBox="0 0 16 16" fill="none" xmlns="http://www.w3.org/2000/svg">
<path d="M8 0C5.87827 0 3.84344 0.842855 2.34315 2.34315C0.842855 3.84344 0 5.87827 0 8C0 10.1217 0.842855 12.1566 2.34315 13.6569C3.84344 15.1571 5.87827 16 8 16C10.1217 16 12.1566 15.1571 13.6569 13.6569C15.1571 12.1566 16 10.1217 16 8C16 5.87827 15.1571 3.84344 13.6569 2.34315C12.1566 0.842855 10.1217 0 8 0V0Z" fill="url(#paint0_linear_1026_8365)"/>
<path d="M10.473 4C8.27499 4 7.99999 5.824 7.99999 5.824C7.99999 5.824 7.72599 4 5.52799 4C3.41399 4 2.79799 6.222 3.05599 7.41C3.73599 10.55 7.99999 12.75 7.99999 12.75C7.99999 12.75 12.265 10.55 12.945 7.41C13.202 6.222 12.585 4 10.473 4Z" fill="white"/>
<defs>
<linearGradient id="paint0_linear_1026_8365" x1="8" y1="0" x2="8" y2="16" gradientUnits="userSpaceOnUse">
<stop stop-color="#FF6680"/>
<stop offset="1" stop-color="#E61739"/>
</linearGradient>
</defs>
</svg>
