<svg width="331" height="117" viewBox="0 0 331 117" fill="none" xmlns="http://www.w3.org/2000/svg">
<rect width="331" height="117" rx="15" fill="white"/>
<path d="M53.8757 41.1711C50.7519 41.1711 49.8487 42.5621 49.8487 45.6301V50.7196H58.1811L57.3459 58.9421H49.8519V83.8956H39.8524V58.9421H33.116V50.7196H39.8524V45.7699C39.8524 37.4759 43.1834 33.0949 52.4773 33.0949C54.4248 33.0903 56.3708 33.2064 58.3041 33.4426V41.1809L53.8757 41.1711Z" fill="#1877F2"/>
<path d="M58.8738 66.2612C58.8738 56.9922 63.2471 50.0112 72.4115 50.0112C77.4096 50.0112 80.4622 52.5917 81.9222 55.7962V50.7197H91.5008V83.8957H81.9222V78.8777C80.5334 82.0855 77.4096 84.5945 72.4115 84.5945C63.2471 84.5945 58.8738 77.6232 58.8738 68.3445V66.2612ZM68.87 68.494C68.87 73.4405 70.6731 76.7165 75.3249 76.7165C79.4231 76.7165 81.5046 73.72 81.5046 68.9815V65.6502C81.5046 60.9117 79.4231 57.9152 75.3249 57.9152C70.6731 57.9152 68.87 61.1912 68.87 66.1377V68.494Z" fill="#1877F2"/>
<path d="M112.328 50.0205C116.213 50.0205 119.894 50.859 121.907 52.25L119.686 59.361C117.604 58.3652 115.328 57.8415 113.021 57.827C107.605 57.827 105.252 60.9633 105.252 66.3323V68.2823C105.252 73.6513 107.612 76.7875 113.021 76.7875C115.328 76.773 117.604 76.2493 119.686 75.2535L121.907 82.3613C119.894 83.7555 116.216 84.594 112.328 84.594C100.594 84.594 95.2493 78.25 95.2493 68.0743V66.5403C95.2493 56.3645 100.594 50.0205 112.328 50.0205Z" fill="#1877F2"/>
<path d="M123.225 68.5748V65.6498C123.225 56.2411 128.569 50.0498 139.472 50.0498C149.746 50.0498 154.259 56.3223 154.259 65.5231V70.8206H133.218C133.428 75.3511 135.442 77.3726 140.987 77.3726C144.739 77.3726 148.694 76.6056 151.611 75.3511L153.44 82.2248C150.802 83.6223 145.386 84.6656 140.598 84.6656C127.944 84.6623 123.225 78.3248 123.225 68.5748ZM133.221 64.2523H145.302V63.4171C145.302 59.7933 143.845 56.9171 139.475 56.9171C134.959 56.9203 133.221 59.7803 133.221 64.2393V64.2523Z" fill="#1877F2"/>
<path d="M191.315 68.3539C191.315 77.6229 186.873 84.6039 177.719 84.6039C172.721 84.6039 169.25 82.0949 167.862 78.8872V83.9052H158.422V34.0599L168.418 33.1499V55.3149C169.875 52.3899 173.07 50.0174 177.722 50.0174C186.886 50.0174 191.318 56.9887 191.318 66.2674L191.315 68.3539ZM181.318 66.0529C181.318 61.3827 179.515 57.8987 174.724 57.8987C170.626 57.8987 168.405 60.8237 168.405 65.5654V69.0494C168.405 73.7879 170.626 76.7162 174.724 76.7162C179.515 76.7162 181.318 73.2322 181.318 68.5619V66.0529Z" fill="#1877F2"/>
<path d="M194.658 68.1425V66.472C194.658 56.9203 200.074 50.0205 211.113 50.0205C222.151 50.0205 227.57 56.9203 227.57 66.472V68.1425C227.57 77.691 222.155 84.594 211.116 84.594C200.077 84.594 194.658 77.691 194.658 68.1425ZM217.571 65.7733C217.571 61.3825 215.765 57.8985 211.097 57.8985C206.429 57.8985 204.639 61.3825 204.639 65.7733V68.8413C204.639 73.232 206.445 76.716 211.097 76.716C215.748 76.716 217.571 73.232 217.571 68.8413V65.7733Z" fill="#1877F2"/>
<path d="M230.895 68.1425V66.472C230.895 56.9203 236.311 50.0205 247.349 50.0205C258.388 50.0205 263.804 56.9203 263.804 66.472V68.1425C263.804 77.691 258.388 84.594 247.349 84.594C236.311 84.594 230.895 77.691 230.895 68.1425ZM253.807 65.7733C253.807 61.3825 252.001 57.8985 247.349 57.8985C242.698 57.8985 240.895 61.3825 240.895 65.7733V68.8413C240.895 73.232 242.698 76.716 247.349 76.716C252.001 76.716 253.807 73.232 253.807 68.8413V65.7733Z" fill="#1877F2"/>
<path d="M277.549 66.5404L287.406 50.7194H298.027L287.684 67.0994L298.444 83.8954H287.823L277.549 67.6454V83.8954H267.549V34.0599L277.549 33.1499V66.5404Z" fill="#1877F2"/>
</svg>
