<svg width="42" height="43" viewBox="0 0 42 43" fill="none" xmlns="http://www.w3.org/2000/svg">
<rect width="42" height="43" rx="21" fill="#F0783B" fill-opacity="0.27"/>
<path d="M13.0737 15.1211C12.3221 15.1211 11.6012 15.4199 11.0698 15.9516C10.5386 16.483 10.24 17.2041 10.2405 17.9557C10.2407 18.7073 10.5395 19.428 11.0714 19.9592C11.6032 20.4903 12.3244 20.7885 13.0759 20.788C13.8275 20.7874 14.5483 20.4883 15.0792 19.9562C15.6101 19.4242 15.9081 18.703 15.9072 17.9514C15.9072 17.2003 15.6086 16.4798 15.0772 15.9491C14.5458 15.4181 13.8251 15.1205 13.0737 15.1211Z" fill="#F0783B"/>
<path d="M15.4742 23.3659C14.7682 23.052 14.0075 22.8787 13.2352 22.8555H12.9123C11.7233 22.8911 7.74292 23.4047 7.74292 28.8064C7.74292 29.8176 10.1757 30.3443 12.7182 30.3896V30.3605C12.715 27.2232 13.6455 24.8648 15.4742 23.3659L15.4742 23.3659Z" fill="#F0783B"/>
<path d="M28.2546 20.7849C29.0064 20.7858 29.7275 20.4881 30.2594 19.9569C30.7915 19.4259 31.0908 18.7055 31.0912 17.9536C31.0919 17.2021 30.7937 16.4809 30.2626 15.9493C29.7314 15.4174 29.0107 15.1184 28.2589 15.1182C27.5074 15.1179 26.7864 15.4163 26.2548 15.9477C25.7232 16.4791 25.4246 17.1998 25.4246 17.9516C25.4246 18.7025 25.7227 19.4225 26.2532 19.9539C26.7839 20.4851 27.5037 20.7842 28.2546 20.7848V20.7849Z" fill="#F0783B"/>
<path d="M28.4197 22.8555H28.0967C27.2928 22.8796 26.5023 23.0675 25.7737 23.4078C27.26 24.655 28.4649 26.7711 28.4649 30.3603V30.3894C31.0527 30.3572 33.5889 29.837 33.5889 28.8064C33.5889 23.4014 29.6151 22.8907 28.4196 22.8555L28.4197 22.8555Z" fill="#F0783B"/>
<path d="M20.5851 12C19.5435 12 18.5447 12.4138 17.8087 13.1504C17.0724 13.8872 16.6591 14.8859 16.6595 15.9276C16.6602 16.969 17.0747 17.9675 17.8116 18.7033C18.5487 19.4391 19.5478 19.8518 20.5894 19.8507C21.6308 19.8495 22.6291 19.4346 23.3645 18.6973C24.0999 17.9599 24.5121 16.9604 24.5104 15.9188C24.5095 14.8788 24.0955 13.8813 23.3593 13.1464C22.6233 12.4115 21.6251 11.9991 20.5851 12Z" fill="#F0783B"/>
<path d="M20.8142 22.1191H20.5654H20.3554C18.7077 22.1644 13.1992 22.8784 13.1992 30.3611C13.1992 31.828 16.892 32.5613 20.5879 32.5613C24.284 32.5613 27.9737 31.828 27.9737 30.358C27.9737 22.8753 22.4683 22.1645 20.814 22.1195L20.8142 22.1191Z" fill="#F0783B"/>
</svg>
