<svg width="175" height="166" viewBox="0 0 175 166" fill="none" xmlns="http://www.w3.org/2000/svg">
<g opacity="0.5">
<path d="M142.235 85.2755C145.547 80.3281 146.664 74.2236 145.268 68.3984C145.866 67.8398 146.265 67.4808 146.305 67.401L147.741 65.9646L146.305 64.5283C146.225 64.4485 145.866 64.0894 145.268 63.5308C146.664 57.7056 145.547 51.6012 142.235 46.6537C142.994 45.8159 143.752 45.0179 144.589 44.2598L148.779 40.4695L143.153 40.7488C142.036 40.7887 140.879 40.7887 139.762 40.7089C138.605 34.8438 135.094 29.7368 129.947 26.6247C129.987 25.7868 129.987 25.2681 129.987 25.1883V23.1535H127.952C127.832 23.1535 127.313 23.1535 126.515 23.1934C123.403 18.0864 118.296 14.5354 112.431 13.3784C112.352 12.2612 112.351 11.1441 112.391 9.98702L112.671 4.36133L108.88 8.55067C108.122 9.38854 107.324 10.1865 106.486 10.9047C101.539 7.5931 95.4345 6.47595 89.6094 7.8724C89.0508 7.23402 88.6917 6.87494 88.6119 6.79514L87.1755 5.35879L85.7392 6.79514C85.6594 6.87494 85.3003 7.23402 84.7417 7.8724C78.9166 6.47595 72.8121 7.5931 67.8647 10.9047C67.0268 10.1466 66.2288 9.38854 65.4708 8.55067L61.6804 4.36133L61.9597 9.98702C61.9996 11.1042 61.9996 12.2612 61.9198 13.3784C56.0547 14.5354 50.9477 18.0465 47.8356 23.1934C46.9978 23.1535 46.4791 23.1535 46.3993 23.1535H44.3645V25.1883C44.3645 25.308 44.3645 25.8267 44.4044 26.6247C39.2974 29.7368 35.7464 34.8438 34.5893 40.7089C33.4722 40.7887 32.355 40.7887 31.198 40.7488L25.5723 40.4695L29.7616 44.2598C30.5995 45.0179 31.3974 45.8159 32.1156 46.6537C28.804 51.6012 27.6869 57.7056 29.0833 63.5308C28.445 64.0894 28.0859 64.4485 28.0061 64.5283L26.5697 65.9646L28.0061 67.401C28.0859 67.4808 28.445 67.8398 29.0833 68.3984C27.6869 74.2236 28.804 80.3281 32.1156 85.2755C31.3575 86.1134 30.5995 86.9113 29.7616 87.6694L25.5723 91.4598L31.198 91.1805C32.3151 91.1406 33.4722 91.1406 34.5893 91.2204C35.7464 97.0854 39.2575 102.192 44.4044 105.305C44.3645 106.142 44.3645 106.661 44.3645 106.741V108.776H46.3993C46.519 108.776 47.0377 108.776 47.8356 108.736C50.9477 113.843 56.0547 117.394 61.9198 118.551C61.9996 119.668 61.9996 120.785 61.9597 121.942L61.6804 127.568L65.4708 123.379C66.2288 122.541 67.0268 121.743 67.8647 121.025C72.8121 124.336 78.9166 125.453 84.7417 124.057C85.3003 124.655 85.6594 125.054 85.7392 125.094L87.1755 126.531L88.6119 125.094C88.6917 125.014 89.0508 124.655 89.6094 124.057C91.2851 124.456 92.9608 124.655 94.6366 124.655C98.8259 124.655 102.975 123.418 106.526 121.025C107.364 121.783 108.162 122.541 108.92 123.379L112.711 127.568L112.431 121.942C112.391 120.825 112.391 119.668 112.471 118.551C118.336 117.394 123.443 113.883 126.555 108.736C127.393 108.776 127.912 108.776 127.992 108.776H130.027V106.741C130.027 106.621 130.027 106.103 129.987 105.305C135.094 102.192 138.645 97.0854 139.802 91.2204C140.919 91.1406 142.036 91.1406 143.193 91.1805L148.819 91.4598L144.629 87.6694C143.752 86.9113 142.954 86.1134 142.235 85.2755ZM141.717 60.6581C140.241 59.541 138.405 58.3041 136.33 57.0672C137.128 54.5935 138.206 52.2794 139.602 50.085C141.437 53.3168 142.156 56.9875 141.717 60.6581ZM129.508 31.213C132.42 33.4872 134.495 36.5993 135.493 40.1503C132.979 39.5917 130.545 38.7139 128.231 37.5569C128.869 35.2029 129.268 33.0484 129.508 31.213ZM127.074 41.4669C129.947 42.8634 132.979 43.821 136.131 44.3795C136.131 44.5391 136.131 44.7386 136.131 44.8982V45.7361L136.729 46.3346C136.849 46.4543 136.969 46.5739 137.089 46.7335C135.253 49.3269 133.777 52.1996 132.74 55.192C129.628 53.6759 126.077 52.3193 122.246 51.5214C124.401 48.2098 125.957 44.7386 127.074 41.4669ZM122.007 23.7121C120.172 23.9914 118.017 24.3904 115.663 24.9889C114.466 22.7146 113.588 20.2409 113.07 17.7273C116.621 18.6849 119.733 20.7995 122.007 23.7121ZM106.925 16.4506L107.524 17.0491H108.362C108.521 17.0491 108.721 17.0491 108.88 17.0491C109.399 20.201 110.396 23.2333 111.793 26.106C108.521 27.2232 105.05 28.7792 101.778 30.8938C100.98 27.0636 99.6239 23.5525 98.1077 20.4005C101.1 19.3632 103.973 17.8869 106.566 16.0516C106.646 16.2112 106.806 16.3309 106.925 16.4506ZM103.095 13.5779C100.941 14.9743 98.5865 16.0915 96.1128 16.8895C94.8759 14.8147 93.6391 13.0193 92.5219 11.5032C96.1926 11.0643 99.9032 11.7825 103.095 13.5779ZM81.9488 11.5032C80.8317 12.9794 79.5948 14.8147 78.358 16.8895C75.8843 16.0915 73.5702 15.0142 71.3757 13.6178C74.5676 11.7825 78.2782 11.0643 81.9488 11.5032ZM65.6304 17.0491C65.7899 17.0491 65.9894 17.0491 66.149 17.0491H66.9869L67.5854 16.4506C67.7051 16.3309 67.8248 16.2112 67.9844 16.0915C70.5778 17.9268 73.4505 19.4031 76.4428 20.4404C74.9267 23.5525 73.5702 27.1035 72.7722 30.9337C69.5005 28.7792 66.0692 27.2631 62.7577 26.1459C64.1142 23.2732 65.0718 20.201 65.6304 17.0491ZM61.4011 17.6874C60.8425 20.201 59.9648 22.6348 58.8077 24.949C56.4936 24.3505 54.2992 23.9515 52.4639 23.6722C54.7381 20.7995 57.89 18.6849 61.4011 17.6874ZM44.9629 31.213C45.2422 33.0484 45.6412 35.2029 46.2397 37.5569C43.9655 38.7538 41.5317 39.5917 38.9782 40.1503C39.9756 36.5993 42.0503 33.4872 44.9629 31.213ZM37.7413 46.2947L38.3398 45.6962V44.8583C38.3398 44.6987 38.3398 44.4992 38.3398 44.3396C41.4918 43.8209 44.5241 42.8235 47.3967 41.4669C48.5139 44.7386 50.0699 48.2098 52.2245 51.4815C48.3942 52.2794 44.8831 53.636 41.7312 55.1521C40.6938 52.1597 39.2176 49.287 37.3822 46.6936C37.5019 46.534 37.6216 46.4143 37.7413 46.2947ZM34.8686 50.085C36.2651 52.2395 37.3822 54.5935 38.1403 57.0672C36.0656 58.3041 34.2701 59.541 32.754 60.6581C32.3151 56.9875 33.0333 53.3168 34.8686 50.085ZM32.754 71.2711C34.2302 72.3883 36.0656 73.6251 38.1403 74.862C37.3423 77.3357 36.2651 79.6498 34.8686 81.8442C33.0333 78.6124 32.3151 74.9418 32.754 71.2711ZM46.2397 94.4122C45.6412 96.7264 45.2422 98.9208 44.9629 100.756C42.0503 98.4819 39.9756 95.3698 38.9782 91.8188C41.4918 92.3375 43.9256 93.2153 46.2397 94.4122ZM47.3967 90.4623C44.5241 89.0659 41.4918 88.1083 38.3398 87.5896C38.3398 87.43 38.3398 87.2305 38.3398 87.0709V86.2331L37.7413 85.6346C37.6216 85.5149 37.5019 85.3952 37.3822 85.2356C39.2176 82.6422 40.6938 79.7695 41.7312 76.7771C44.8432 78.2932 48.3942 79.6498 52.2245 80.4478C50.0699 83.7194 48.5139 87.1906 47.3967 90.4623ZM52.4639 108.257C54.2992 107.978 56.4537 107.579 58.8077 106.98C60.0047 109.254 60.8824 111.728 61.4011 114.242C57.89 113.244 54.7381 111.13 52.4639 108.257ZM67.5854 115.479L66.9869 114.88H66.149C65.9894 114.88 65.7899 114.88 65.6304 114.88C65.1117 111.728 64.1142 108.696 62.7178 105.823C65.9894 104.706 69.4606 103.15 72.7323 101.035C73.5303 104.866 74.8868 108.377 76.4029 111.529C73.4106 112.566 70.5379 114.042 67.9445 115.878C67.8248 115.718 67.7051 115.598 67.5854 115.479ZM71.3757 118.351C73.5303 116.955 75.8843 115.838 78.358 115.08C79.5948 117.154 80.8317 118.95 81.9488 120.466C78.2782 120.905 74.5676 120.147 71.3757 118.351ZM92.5618 120.426C93.679 118.95 94.9159 117.114 96.1527 115.04C98.6264 115.838 100.941 116.915 103.135 118.311C99.9032 120.147 96.1926 120.905 92.5618 120.426ZM111.753 105.823C110.357 108.696 109.399 111.728 108.84 114.88C108.681 114.88 108.481 114.88 108.322 114.88H107.484L106.885 115.479C106.766 115.598 106.646 115.718 106.486 115.838C104.013 114.082 101.34 112.686 98.5466 111.648C98.387 111.569 98.2274 111.529 98.0279 111.489C99.5441 108.377 100.901 104.826 101.699 100.995C105.01 103.15 108.481 104.706 111.753 105.823ZM113.07 114.242C113.628 111.728 114.506 109.294 115.663 106.98C117.977 107.579 120.172 107.978 122.007 108.257C119.733 111.13 116.621 113.244 113.07 114.242ZM129.508 100.716C129.229 98.8809 128.83 96.7264 128.231 94.3723C130.505 93.1754 132.979 92.3375 135.493 91.7789C134.495 95.3299 132.42 98.4819 129.508 100.716ZM136.729 85.6346L136.131 86.2331V87.0709C136.131 87.2305 136.131 87.43 136.131 87.5896C132.979 88.1083 129.947 89.1057 127.074 90.5022C125.957 87.2305 124.401 83.7594 122.286 80.4877C126.116 79.6897 129.628 78.3331 132.78 76.817C133.817 79.8094 135.293 82.6821 137.128 85.2755C137.009 85.3952 136.889 85.5149 136.729 85.6346ZM139.642 81.8442C138.246 79.6897 137.128 77.3357 136.37 74.862C138.445 73.6251 140.241 72.3883 141.757 71.2711C142.156 74.9418 141.438 78.6124 139.642 81.8442ZM140.64 67.002C139.283 68.0792 137.488 69.3959 135.373 70.7125C134.216 71.4307 132.979 72.109 131.662 72.7873C127.872 74.7423 123.363 76.418 118.536 76.9766L114.945 77.3756L117.219 80.2084C120.251 83.9987 122.246 88.3876 123.563 92.4572C124.002 93.8537 124.401 95.2501 124.68 96.5668C125.239 99.0006 125.598 101.195 125.757 102.911C125.837 103.509 125.877 104.068 125.917 104.546C125.438 104.507 124.88 104.467 124.281 104.387C122.566 104.187 120.371 103.868 117.897 103.27C116.581 102.951 115.224 102.591 113.788 102.153C109.718 100.836 105.369 98.841 101.539 95.8087L98.7062 93.5345L98.3072 97.1253C97.7486 101.953 96.0729 106.462 94.1179 110.252C93.4396 111.569 92.7214 112.805 92.0432 113.962C90.7265 116.077 89.4099 117.873 88.3326 119.229C87.9735 119.708 87.6144 120.147 87.2952 120.506C86.9761 120.147 86.617 119.708 86.2579 119.229C85.1806 117.873 83.864 116.077 82.5473 113.962C81.8291 112.805 81.111 111.569 80.4726 110.252C78.5176 106.462 76.8418 101.953 76.2833 97.1253L75.8843 93.5345L73.0515 95.8087C69.2611 98.841 64.8723 100.836 60.8026 102.153C59.4062 102.591 58.0097 102.99 56.6931 103.27C54.2593 103.828 52.0649 104.187 50.3492 104.387C49.7508 104.467 49.1922 104.507 48.7134 104.546C48.7533 104.068 48.7932 103.509 48.873 102.911C49.0725 101.195 49.3917 99.0006 49.9502 96.5269C50.2694 95.2102 50.6285 93.8537 51.0674 92.4173C52.3841 88.3477 54.379 83.9987 57.4113 80.1685L59.6855 77.3357L56.0946 76.9367C51.2669 76.3781 46.7584 74.7024 42.968 72.7474C41.6514 72.0691 40.4145 71.3509 39.2574 70.6327C37.1428 69.3161 35.3474 67.9994 33.9909 66.9222C33.5121 66.5232 33.0732 66.1641 32.7141 65.8848C33.0732 65.5656 33.5121 65.2065 33.9909 64.8475C35.3474 63.7702 37.1428 62.4536 39.2574 61.1369C40.4145 60.4187 41.6514 59.7404 42.968 59.0622C46.7584 57.1071 51.2669 55.4314 56.0946 54.8728L59.6855 54.4738L57.4113 51.6411C54.379 47.8507 52.3841 43.4619 51.0674 39.3922C50.6285 37.9958 50.2295 36.5993 49.9502 35.2827C49.3917 32.8489 49.0326 30.6544 48.873 28.9388C48.7932 28.3403 48.7533 27.7817 48.7134 27.303C49.1922 27.3429 49.7508 27.3828 50.3492 27.4626C52.0649 27.662 54.2593 27.9812 56.6931 28.5398C58.0097 28.859 59.3663 29.2181 60.8026 29.657C64.8723 30.9736 69.2212 32.9686 73.0515 36.0008L75.8843 38.2751L76.2833 34.6842C76.8418 29.8565 78.5176 25.3479 80.4726 21.5576C81.1509 20.2409 81.869 19.0041 82.5473 17.847C83.864 15.7324 85.1806 13.937 86.2579 12.5804C86.6569 12.1016 86.9761 11.6628 87.2952 11.3037C87.6144 11.6628 87.9735 12.1016 88.3326 12.5804C89.4099 13.937 90.7265 15.7324 92.0432 17.847C92.7613 19.0041 93.4795 20.2409 94.1179 21.5576C96.0729 25.3479 97.7486 29.8565 98.3072 34.6842L98.7062 38.2751L101.539 36.0008C105.329 32.9686 109.718 30.9736 113.788 29.657C115.184 29.2181 116.581 28.8191 117.897 28.5398C120.331 27.9812 122.526 27.6222 124.281 27.4626C124.88 27.3828 125.438 27.3429 125.917 27.303C125.877 27.7817 125.837 28.3403 125.757 28.9388C125.558 30.6544 125.239 32.8489 124.68 35.2827C124.361 36.5993 124.002 37.9559 123.563 39.3922C122.246 43.4619 120.251 47.8108 117.219 51.6411L114.945 54.4738L118.536 54.8728C123.363 55.4314 127.872 57.1071 131.662 59.0622C132.979 59.7404 134.216 60.4586 135.373 61.1768C137.488 62.4934 139.283 63.8101 140.64 64.8874C141.118 65.2863 141.557 65.6055 141.916 65.9247C141.517 66.2838 141.118 66.6429 140.64 67.002Z" fill="#F0783B"/>
<path d="M96.3531 62.2135C97.8293 61.2959 99.3055 60.1787 100.702 58.7823C106.407 53.0768 107.884 45.3365 107.884 45.3365C107.884 45.3365 100.143 46.8526 94.4379 52.5182C93.0814 53.8748 91.9243 55.3909 91.0067 56.8671C91.4056 55.1515 91.645 53.3162 91.645 51.3612C91.645 43.3017 87.2163 36.7583 87.2163 36.7583C87.2163 36.7583 82.7876 43.3017 82.7876 51.3612C82.7876 53.3162 83.027 55.1515 83.4259 56.8671C82.5083 55.3909 81.3911 53.9147 79.9947 52.5182C74.2892 46.8127 66.5489 45.3365 66.5489 45.3365C66.5489 45.3365 68.065 53.0768 73.7306 58.7823C75.0872 60.1388 76.6033 61.2959 78.0795 62.2135C76.3639 61.8146 74.5286 61.5752 72.5735 61.5752C64.514 61.5752 57.9707 66.0039 57.9707 66.0039C57.9707 66.0039 64.514 70.4326 72.5735 70.4326C74.5286 70.4326 76.3639 70.1932 78.0795 69.7943C76.6033 70.7119 75.1271 71.8291 73.7306 73.2255C68.0251 78.931 66.5489 86.6713 66.5489 86.6713C66.5489 86.6713 74.2892 85.1552 79.9947 79.4896C81.3512 78.133 82.5083 76.6169 83.4259 75.1407C83.027 76.8563 82.7876 78.6916 82.7876 80.6467C82.7876 88.7061 87.2163 95.2495 87.2163 95.2495C87.2163 95.2495 91.645 88.7061 91.645 80.6467C91.645 78.6916 91.4056 76.8563 91.0067 75.1407C91.9243 76.6169 93.0415 78.0931 94.4379 79.4896C100.143 85.1951 107.884 86.6713 107.884 86.6713C107.884 86.6713 106.368 78.931 100.702 73.2255C99.3454 71.869 97.8293 70.7119 96.3531 69.7943C98.0687 70.1932 99.904 70.4326 101.859 70.4326C109.919 70.4326 116.462 66.0039 116.462 66.0039C116.462 66.0039 109.919 61.5752 101.859 61.5752C99.904 61.5353 98.0288 61.8146 96.3531 62.2135Z" fill="#F0783B"/>
<path d="M87.2552 31.0128C89.3299 31.0128 91.0456 29.3371 91.0456 27.2225C91.0456 25.1478 89.3698 23.4321 87.2552 23.4321C85.1805 23.4321 83.4648 25.1079 83.4648 27.2225C83.4648 29.3371 85.1406 31.0128 87.2552 31.0128Z" fill="#F0783B"/>
<path d="M87.2552 100.915C85.1805 100.915 83.4648 102.591 83.4648 104.705C83.4648 106.78 85.1406 108.496 87.2552 108.496C89.3299 108.496 91.0456 106.82 91.0456 104.705C91.0057 102.631 89.3299 100.915 87.2552 100.915Z" fill="#F0783B"/>
<path d="M125.957 62.1738C123.883 62.1738 122.167 63.8496 122.167 65.9642C122.167 68.0389 123.843 69.7545 125.957 69.7545C128.032 69.7545 129.748 68.0788 129.748 65.9642C129.748 63.8895 128.072 62.1738 125.957 62.1738Z" fill="#F0783B"/>
<path d="M48.515 62.1738C46.4402 62.1738 44.7246 63.8496 44.7246 65.9642C44.7246 68.0389 46.4003 69.7545 48.515 69.7545C50.5897 69.7545 52.3053 68.0788 52.3053 65.9642C52.3053 63.8895 50.5897 62.1738 48.515 62.1738Z" fill="#F0783B"/>
<path d="M114.626 42.3839C116.72 42.3839 118.417 40.6869 118.417 38.5936C118.417 36.5002 116.72 34.8032 114.626 34.8032C112.533 34.8032 110.836 36.5002 110.836 38.5936C110.836 40.6869 112.533 42.3839 114.626 42.3839Z" fill="#F0783B"/>
<path d="M59.847 97.1647C61.9404 97.1647 63.6374 95.4677 63.6374 93.3743C63.6374 91.281 61.9404 89.584 59.847 89.584C57.7536 89.584 56.0566 91.281 56.0566 93.3743C56.0566 95.4677 57.7536 97.1647 59.847 97.1647Z" fill="#F0783B"/>
<path d="M114.626 97.1647C116.72 97.1647 118.417 95.4677 118.417 93.3743C118.417 91.281 116.72 89.584 114.626 89.584C112.533 89.584 110.836 91.281 110.836 93.3743C110.836 95.4677 112.533 97.1647 114.626 97.1647Z" fill="#F0783B"/>
<path d="M59.847 42.3839C61.9404 42.3839 63.6374 40.6869 63.6374 38.5936C63.6374 36.5002 61.9404 34.8032 59.847 34.8032C57.7536 34.8032 56.0566 36.5002 56.0566 38.5936C56.0566 40.6869 57.7536 42.3839 59.847 42.3839Z" fill="#F0783B"/>
<path d="M143.672 37.1976C143.991 37.1976 144.31 37.1178 144.589 36.9582C145.547 36.4395 145.906 35.2026 145.387 34.2451C144.869 33.2875 143.632 32.9284 142.674 33.4471C141.717 33.9658 141.358 35.2026 141.876 36.1602C142.275 36.8385 142.954 37.1976 143.672 37.1976Z" fill="#F0783B"/>
<path d="M136.849 27.103C137.288 27.103 137.727 26.9434 138.086 26.6641C138.924 25.9459 139.044 24.6692 138.365 23.8313C137.647 22.9934 136.37 22.8737 135.532 23.552C134.695 24.2702 134.575 25.5469 135.253 26.3848C135.652 26.9035 136.251 27.1429 136.849 27.103Z" fill="#F0783B"/>
<path d="M128.231 18.525C128.79 18.525 129.348 18.2856 129.747 17.8068C130.465 16.9689 130.346 15.6922 129.468 14.974C128.63 14.2558 127.353 14.3755 126.635 15.2533C125.917 16.0912 126.037 17.3679 126.914 18.0861C127.274 18.3654 127.752 18.525 128.231 18.525Z" fill="#F0783B"/>
<path d="M117.139 11.4626C117.458 11.6222 117.817 11.702 118.136 11.702C118.855 11.702 119.493 11.303 119.892 10.6646C120.411 9.70704 120.051 8.47018 119.094 7.9515C118.136 7.43282 116.899 7.79191 116.381 8.74947C115.822 9.70704 116.141 10.904 117.139 11.4626Z" fill="#F0783B"/>
<path d="M29.8818 36.9582C30.1611 37.1178 30.4802 37.1976 30.7994 37.1976C31.5176 37.1976 32.2358 36.8385 32.5949 36.1602C33.1135 35.2026 32.7545 33.9658 31.7969 33.4471C30.8393 32.9284 29.6025 33.2875 29.0838 34.2451C28.5252 35.2026 28.8843 36.3996 29.8818 36.9582Z" fill="#F0783B"/>
<path d="M37.662 27.1031C38.2605 27.1031 38.859 26.8637 39.258 26.3849C39.9761 25.5471 39.8565 24.2703 38.9787 23.5521C38.1408 22.834 36.8641 22.9537 36.1459 23.8314C35.4277 24.6693 35.5474 25.9461 36.4252 26.6642C36.7444 26.9834 37.1833 27.1031 37.662 27.1031Z" fill="#F0783B"/>
<path d="M46.2791 18.5244C46.7579 18.5244 47.1968 18.3648 47.5957 18.0855C48.4336 17.3674 48.5533 16.1305 47.875 15.2528C47.1569 14.4149 45.92 14.2553 45.0422 14.9735C44.2044 15.6916 44.0847 16.9285 44.763 17.8063C45.122 18.2452 45.6806 18.5244 46.2791 18.5244Z" fill="#F0783B"/>
<path d="M56.3341 11.702C56.6533 11.702 57.0124 11.6222 57.3316 11.4626C58.2892 10.9439 58.6482 9.70704 58.1296 8.74947C57.6109 7.79191 56.374 7.43282 55.4165 7.9515C54.4589 8.47018 54.0998 9.70704 54.6185 10.6646C54.9776 11.303 55.6559 11.702 56.3341 11.702Z" fill="#F0783B"/>
<path d="M144.628 94.7706C144.349 94.611 144.03 94.5312 143.711 94.5312C142.993 94.5312 142.274 94.8903 141.915 95.5686C141.397 96.5262 141.756 97.763 142.713 98.2817C143.671 98.8004 144.908 98.4413 145.426 97.4837C145.945 96.5262 145.586 95.3292 144.628 94.7706Z" fill="#F0783B"/>
<path d="M136.849 104.626C136.251 104.626 135.652 104.866 135.253 105.345C134.535 106.183 134.655 107.459 135.533 108.177C136.37 108.896 137.647 108.776 138.365 107.898C139.084 107.06 138.964 105.784 138.086 105.065C137.727 104.786 137.288 104.626 136.849 104.626Z" fill="#F0783B"/>
<path d="M128.232 113.204C127.753 113.204 127.314 113.364 126.915 113.643C126.077 114.361 125.958 115.598 126.636 116.476C127.354 117.314 128.591 117.473 129.469 116.755C130.307 116.037 130.426 114.8 129.748 113.922C129.349 113.483 128.791 113.244 128.232 113.204Z" fill="#F0783B"/>
<path d="M118.138 120.027C117.818 120.027 117.459 120.107 117.14 120.266C116.183 120.785 115.823 122.022 116.342 122.979C116.861 123.937 118.098 124.296 119.055 123.777C120.013 123.259 120.372 122.022 119.853 121.064C119.494 120.426 118.816 120.067 118.138 120.027Z" fill="#F0783B"/>
<path d="M30.798 94.5312C30.4788 94.5312 30.1596 94.611 29.8803 94.7706C28.9228 95.2893 28.5637 96.5262 29.0824 97.4837C29.601 98.4413 30.8379 98.8004 31.7955 98.2817C32.753 97.763 33.1121 96.5262 32.5934 95.5686C32.2343 94.8903 31.5162 94.5312 30.798 94.5312Z" fill="#F0783B"/>
<path d="M37.6609 104.626C37.222 104.626 36.7832 104.786 36.4241 105.065C35.5862 105.784 35.4665 107.06 36.1448 107.898C36.863 108.736 38.1397 108.856 38.9776 108.177C39.8154 107.459 39.9351 106.183 39.2569 105.345C38.818 104.866 38.2195 104.626 37.6609 104.626Z" fill="#F0783B"/>
<path d="M46.2792 113.204C45.7206 113.204 45.1621 113.443 44.7631 113.922C44.0449 114.76 44.1646 116.037 45.0424 116.755C45.8802 117.473 47.157 117.354 47.8752 116.476C48.5933 115.638 48.4737 114.361 47.5959 113.643C47.1969 113.364 46.7181 113.204 46.2792 113.204Z" fill="#F0783B"/>
<path d="M57.3316 120.306C57.0124 120.146 56.6533 120.066 56.3341 120.066C55.616 120.066 54.9776 120.465 54.6185 121.104C54.0998 122.061 54.4589 123.298 55.4165 123.817C56.374 124.336 57.6109 123.976 58.1296 123.019C58.6881 122.061 58.3291 120.824 57.3316 120.306Z" fill="#F0783B"/>
<path d="M149.376 82.1226C148.299 81.8034 147.182 82.4418 146.902 83.4792C146.703 84.2373 146.902 84.9953 147.421 85.4741C147.66 85.7135 147.94 85.8731 148.259 85.9529C149.336 86.2721 150.453 85.6337 150.733 84.5963C151.052 83.559 150.453 82.4418 149.376 82.1226Z" fill="#F0783B"/>
<path d="M151.292 70.1139C150.175 69.9942 149.217 70.8321 149.098 71.9094C149.018 72.5478 149.297 73.1462 149.696 73.5452C150.015 73.8644 150.414 74.0639 150.893 74.1038C152.01 74.2235 152.968 73.3856 153.087 72.3084C153.207 71.1912 152.409 70.1937 151.292 70.1139Z" fill="#F0783B"/>
<path d="M149.097 60.0989C149.137 60.5777 149.377 61.0165 149.696 61.3357C150.095 61.7347 150.693 61.9342 151.292 61.8943C152.409 61.7746 153.207 60.817 153.087 59.6999C152.967 58.5827 152.01 57.7848 150.893 57.9045C149.816 58.0242 148.978 59.0216 149.097 60.0989Z" fill="#F0783B"/>
<path d="M148.22 46.0148C147.142 46.334 146.544 47.4512 146.863 48.5284C146.983 48.8875 147.142 49.1668 147.382 49.4062C147.9 49.885 148.619 50.0845 149.337 49.885C150.414 49.5658 151.013 48.4486 150.693 47.3714C150.414 46.334 149.297 45.7355 148.22 46.0148Z" fill="#F0783B"/>
<path d="M67.585 5.67758C68.1037 6.19626 68.8618 6.43565 69.5799 6.19626C70.6572 5.87708 71.2557 4.75992 70.9365 3.72256C70.6173 2.6453 69.5001 2.04682 68.4628 2.36601C67.3855 2.68519 66.7871 3.80236 67.1062 4.83972C67.2259 5.15891 67.3855 5.43819 67.585 5.67758Z" fill="#F0783B"/>
<path d="M81.1917 4.00173C82.3088 3.88204 83.1068 2.92447 82.9871 1.80731C82.8674 0.690155 81.9098 -0.107815 80.7927 0.0118809C79.6755 0.131576 78.8775 1.08914 78.9972 2.2063C79.0371 2.68508 79.2366 3.08407 79.5558 3.40325C79.9947 3.80224 80.5533 4.08153 81.1917 4.00173Z" fill="#F0783B"/>
<path d="M93.0006 4.00125C94.1178 4.12095 95.0754 3.28308 95.1951 2.20582C95.3148 1.08866 94.4769 0.131099 93.3996 0.0114033C92.2825 -0.108292 91.3249 0.729576 91.2052 1.80684C91.1653 2.40531 91.3648 3.00379 91.7638 3.40278C92.083 3.76186 92.5219 3.96136 93.0006 4.00125Z" fill="#F0783B"/>
<path d="M104.571 6.2363C105.648 6.55549 106.765 5.91711 107.085 4.87975C107.404 3.80249 106.805 2.68533 105.728 2.40605C104.651 2.08686 103.534 2.68533 103.214 3.76259C103.015 4.48076 103.214 5.23884 103.693 5.71762C103.933 5.95701 104.252 6.15651 104.571 6.2363Z" fill="#F0783B"/>
<path d="M106.884 126.051C106.366 125.533 105.608 125.293 104.89 125.533C103.812 125.852 103.214 126.969 103.533 128.006C103.852 129.084 104.969 129.682 106.007 129.363C107.084 129.044 107.682 127.927 107.363 126.889C107.283 126.57 107.084 126.291 106.884 126.051Z" fill="#F0783B"/>
<path d="M93.28 127.727C92.1628 127.847 91.3648 128.804 91.4845 129.921C91.6042 131.039 92.5618 131.837 93.679 131.717C94.7961 131.597 95.5941 130.64 95.4744 129.522C95.4345 129.044 95.235 128.645 94.9158 128.325C94.5168 127.926 93.9183 127.687 93.28 127.727Z" fill="#F0783B"/>
<path d="M81.4695 127.727C80.3523 127.607 79.3948 128.445 79.2751 129.522C79.1554 130.639 79.9932 131.597 81.0705 131.717C82.1877 131.836 83.1452 130.998 83.2649 129.921C83.3048 129.323 83.1053 128.724 82.7063 128.325C82.4271 128.006 81.9882 127.767 81.4695 127.727Z" fill="#F0783B"/>
<path d="M69.8991 125.492C68.8219 125.173 67.7047 125.811 67.3855 126.849C67.0663 127.926 67.6648 129.043 68.7421 129.323C69.8194 129.642 70.9365 129.043 71.2557 127.966C71.4552 127.248 71.2557 126.49 70.7769 126.011C70.5375 125.772 70.2582 125.572 69.8991 125.492Z" fill="#F0783B"/>
<path d="M25.0927 49.6057C26.1699 49.9249 27.2871 49.2865 27.5664 48.2492C27.7659 47.4911 27.5664 46.733 27.0477 46.2542C26.8083 46.0148 26.529 45.8553 26.2098 45.7755C25.1326 45.4563 24.0154 46.0946 23.7361 47.132C23.4169 48.1694 24.0154 49.2865 25.0927 49.6057Z" fill="#F0783B"/>
<path d="M23.1779 61.6551C24.2951 61.7748 25.2527 60.9369 25.3723 59.8596C25.4521 59.2213 25.1729 58.6228 24.7739 58.2238C24.4547 57.9046 24.0557 57.7051 23.5769 57.6652C22.4598 57.5455 21.5022 58.3834 21.3825 59.4606C21.2628 60.5379 22.1007 61.5354 23.1779 61.6551Z" fill="#F0783B"/>
<path d="M25.3728 71.6295C25.3329 71.1508 25.0935 70.7119 24.7743 70.3927C24.3754 69.9937 23.7769 69.7942 23.1784 69.8341C22.0612 69.9538 21.2633 70.9114 21.383 72.0285C21.5027 73.1457 22.4602 73.9437 23.5774 73.824C24.6946 73.7043 25.4925 72.7467 25.3728 71.6295Z" fill="#F0783B"/>
<path d="M26.2499 85.7135C27.3271 85.3944 27.9256 84.2772 27.6064 83.1999C27.4867 82.8409 27.3271 82.5616 27.0877 82.3222C26.5691 81.8434 25.8509 81.6439 25.1327 81.8434C24.0554 82.1626 23.457 83.2797 23.7762 84.357C24.0555 85.3944 25.2125 86.0327 26.2499 85.7135Z" fill="#F0783B"/>
</g>
<path d="M46.8401 165.632C56.8148 148.635 66.7894 131.678 77.6418 115.2C79.7963 111.928 81.6316 108.577 83.068 105.146C83.1079 105.106 83.1079 105.066 83.1079 105.026C83.1877 104.866 83.2276 104.747 83.3074 104.587C83.3074 104.587 83.3074 104.587 83.3074 104.547C83.9856 102.911 84.5841 101.236 85.1028 99.5599C87.2573 92.458 87.8957 84.957 86.9381 76.9773C86.8583 76.1794 86.7386 75.5809 86.6588 75.1819C86.0205 72.3491 85.821 63.6512 86.8583 60.22C86.8583 60.1402 86.8982 60.1003 86.8982 60.0205C86.9381 59.9407 86.9381 59.8609 86.978 59.7811C87.0179 59.6215 87.0977 59.422 87.1376 59.2225C87.2573 58.624 87.377 57.8261 87.4169 56.8685C87.776 51.0034 87.0179 39.5526 87.0179 39.5526C87.0179 39.5526 87.6164 23.3538 87.2573 17.4887C87.0578 14.0574 86.579 12.5014 86.22 11.7832C85.9806 11.2645 85.7811 11.1847 85.7811 11.1847C85.7412 11.1049 85.7412 11.0251 85.7412 10.9453C85.7412 10.9054 85.7013 10.8256 85.7013 10.7857V10.7458C84.5442 6.63629 81.3523 6.11762 80.3948 6.5166C80.315 6.5565 80.2352 6.67619 80.1554 6.91559C80.0756 7.07518 80.0357 7.31457 79.9559 7.59386C79.916 7.71355 79.8761 7.87315 79.8362 8.03275C79.6367 8.79082 79.4771 9.78827 79.2776 10.9453C79.1579 11.5837 79.0382 12.2221 78.9584 12.9403C78.3201 16.7306 77.6418 21.5184 77.0433 25.3088C76.6443 27.7027 76.2852 29.6976 76.0059 30.7749C74.8489 35.0839 66.6298 58.7437 65.2333 61.0977C63.797 63.4518 63.3182 96.1286 63.0389 97.964C62.7596 99.7993 50.8699 115.24 46.88 120.786C43.9674 124.856 15.2804 151.508 0.0791016 165.512H46.8401V165.632Z" fill="#FFA07F"/>
<path d="M85.702 11.0252C85.1434 10.9055 84.5449 10.8257 83.9864 10.8257C83.4278 9.0303 81.9116 7.55405 80.1162 6.99548C80.196 6.75608 80.2758 6.59649 80.3556 6.59649C81.3132 6.19751 84.505 6.75609 85.6621 10.8656C85.6621 10.9055 85.702 10.9454 85.702 11.0252Z" fill="#FF7D6F"/>
<path d="M87.1387 59.3021C87.0988 59.5415 87.019 59.7011 86.9791 59.8607C86.9392 59.9405 86.9392 60.0203 86.8993 60.1001C86.7796 59.6213 86.6998 59.1026 86.5801 58.6238C86.2211 56.8683 85.6226 54.993 84.8246 53.3971C86.1014 50.1254 86.6998 46.5745 86.5801 43.0634C86.5003 40.6296 85.862 37.9165 83.8271 36.6397C84.5453 36.8392 85.2236 37.0786 85.9019 37.2781C87.1387 32.8095 86.3009 28.0616 86.261 23.4333C86.1812 19.0844 86.8195 14.4562 84.6251 10.7456C84.9842 10.7855 85.3034 10.8254 85.6625 10.9052V10.9451C85.6625 10.985 85.7024 11.0249 85.7024 11.1047C85.7423 11.1845 85.7423 11.2643 85.7423 11.3441C85.7423 11.3441 85.9418 11.4239 86.1812 11.9426C86.5402 12.6607 87.019 14.2168 87.2185 17.6481C87.5776 23.5131 86.9791 39.7119 86.9791 39.7119C86.9791 39.7119 88.0564 55.1127 87.1387 59.3021Z" fill="#FF7D6F"/>
<path d="M86.8587 60.2602C85.8213 63.6915 86.0208 72.3893 86.6592 75.2221C86.739 75.6211 86.8587 76.2196 86.9385 77.0176C85.5819 72.3095 85.183 67.3621 85.8612 62.4945C86.0208 61.2178 86.3799 59.9011 86.3799 58.6244C86.3799 57.5471 85.941 56.4299 86.3799 55.3926C86.8188 55.8714 87.138 56.3901 87.4173 56.9486C87.3774 57.9062 87.2577 58.7042 87.138 59.3026C87.0981 59.542 87.0183 59.7016 86.9784 59.8612C86.9385 59.941 86.9385 60.0208 86.8986 60.1006C86.8986 60.1405 86.8587 60.2203 86.8587 60.2602Z" fill="#FF7D6F"/>
<path d="M81.193 8.63113C80.7142 10.1074 80.1158 11.5836 79.3976 12.9801C79.238 13.02 79.0385 13.0599 78.8789 13.0599C78.9986 12.3417 79.1183 11.7033 79.1981 11.0649C79.3976 9.90789 79.5971 8.91042 79.7567 8.15234C80.2354 8.39173 80.7142 8.59123 81.193 8.63113Z" fill="#FFD39C"/>
<path d="M80.7545 12.5815C81.5525 13.18 82.55 13.5391 83.5474 13.4992C83.3479 15.0153 82.7096 16.8108 81.8717 18.0476C81.1934 18.0476 80.3556 17.8082 80.0763 17.1699C79.4379 15.7734 80.4353 14.1376 80.7545 12.5815Z" fill="#FFD39C"/>
<path d="M86.2201 11.8227C85.7015 11.4637 85.103 11.2642 84.5045 11.2243C83.0682 11.1046 81.6318 11.9424 80.9934 13.2192C80.4748 14.2565 80.5147 15.4535 80.5147 16.6106C80.5147 31.2533 77.0834 45.8562 70.54 58.9429C75.0885 45.1779 79.597 30.974 79.597 16.4909C79.597 14.9747 79.597 13.3389 80.395 12.0222C81.2328 10.7056 82.9485 9.98741 84.5045 10.3864C84.9035 10.4662 85.3424 10.6657 85.7414 10.9051C85.7813 11.0248 85.8212 11.1445 85.8212 11.3041C85.7813 11.2642 85.9409 11.3041 86.2201 11.8227Z" fill="#FF7D6F"/>
<path d="M79.7569 54.7539C80.7145 55.7913 82.1109 56.3498 83.5074 56.3498C83.6271 57.1478 83.5473 57.8261 83.4276 58.6241C83.3478 59.1826 83.1882 59.7412 82.9089 60.22C82.3503 61.1377 81.313 61.7361 80.2357 61.7361C79.1584 61.7361 78.1211 61.1377 77.5625 60.22C77.7221 58.3049 78.8393 56.4695 79.7569 54.7539Z" fill="#FFD39C"/>
<path d="M87.1391 59.302C87.0992 59.5414 87.0195 59.701 86.9796 59.8605C86.9397 59.9802 86.8998 60.1398 86.8599 60.2595C86.4609 58.5439 85.9023 56.8682 85.1841 55.2722C84.7851 54.3546 84.067 52.9182 83.0296 52.5591C81.9124 52.2 80.8352 53.0778 80.2367 53.9157C78.9201 55.8308 78.3216 58.1848 78.0423 60.4989C77.8029 62.813 77.8428 65.167 77.763 67.4812C77.6832 69.516 77.4837 71.5109 77.3241 73.5058C76.8054 79.0517 76.1272 84.7173 73.6934 89.7445C76.0075 82.2436 77.0448 74.3836 76.7256 66.5236C76.5661 62.6933 76.1272 58.7035 77.5236 55.1126C78.4812 52.5591 81.1145 50.1652 83.668 51.0829C85.6629 51.801 86.3811 54.0354 86.7003 55.9106C86.9397 57.0278 87.0593 58.1848 87.1391 59.302Z" fill="#FF7D6F"/>
<path d="M10.0544 165.631C24.0588 151.029 48.2772 125.613 49.8731 122.461C52.1473 118.033 65.1941 98.6019 65.1941 98.6019C65.1941 98.6019 64.8351 61.7357 65.5931 61.616C66.3512 61.4963 76.6051 32.4901 76.3258 31.4129C76.2061 30.974 76.5253 28.3806 76.9642 25.3882C76.5652 27.7821 76.2061 29.777 75.9269 30.8144C74.7698 35.1234 66.5507 58.7832 65.1543 61.1372C63.7179 63.4913 63.2391 96.1681 62.9598 98.0035C62.6806 99.8388 50.7908 115.279 46.8009 120.825C43.8884 124.895 15.2013 151.547 0 165.552H10.0544V165.631Z" fill="#FFD39C"/>
<path d="M46.8401 165.632C56.8148 148.635 66.7894 131.679 77.6418 115.2C79.7963 111.929 81.6316 108.577 83.068 105.146C81.0731 109.774 52.386 146.162 36.9453 165.592H46.8401V165.632Z" fill="#FF7D6F"/>
<path d="M38.9789 130.242L41.0138 127.289C41.0138 127.289 28.5255 123.18 30.7598 134.032C33.6325 147.677 60.4842 156.974 63.1574 150.031C65.8306 143.089 61.1625 140.216 61.1625 140.216L59.2075 143.288C59.2075 143.288 61.7211 148.675 57.6913 147.837C53.6616 146.999 34.6699 135.748 34.6699 131.518C34.6699 127.289 38.9789 130.242 38.9789 130.242Z" fill="#CE2D2D"/>
<path d="M67.508 131.08L65.553 134.272C65.553 134.272 68.0267 138.022 64.3161 138.022C64.1965 138.022 64.0768 138.022 63.9172 137.983C63.7576 137.983 63.5581 137.943 63.3586 137.903C61.0844 137.544 56.6556 136.227 52.3865 134.591C49.2744 133.394 46.2022 132.038 44.0876 130.721C42.4518 129.724 41.3346 128.726 41.175 127.888C40.8957 126.372 41.4942 125.853 42.3321 125.694L42.4518 125.574L44.8856 123.061C44.0876 123.061 43.13 123.1 42.1725 123.26C39.1003 123.779 35.9084 125.494 38.1427 130.721C40.018 135.11 44.7659 138.262 50.0325 140.057C52.3466 140.855 54.7405 141.414 57.0147 141.693C58.7702 141.933 60.446 142.012 62.002 141.933C63.0793 141.893 64.1166 141.773 65.0343 141.573C67.2686 141.135 68.9444 140.217 69.5827 138.9C71.857 134.152 67.508 131.08 67.508 131.08Z" fill="#006D93"/>
<path d="M65.4716 139.897C65.4716 139.897 65.0726 140.017 64.3943 140.177C64.0352 140.257 63.6362 140.376 63.1176 140.456C62.5989 140.536 62.0403 140.656 61.4019 140.695C60.7635 140.775 60.0454 140.815 59.2873 140.815C58.5292 140.855 57.6914 140.815 56.8535 140.735C55.1378 140.576 53.2626 140.257 51.3475 139.658C49.4324 139.06 47.7167 138.262 46.2405 137.384C45.5223 136.945 44.8041 136.506 44.2057 136.027C43.5673 135.588 43.0486 135.15 42.5299 134.711C42.0112 134.312 41.6123 133.873 41.2532 133.514C40.8941 133.155 40.5749 132.835 40.3754 132.556C39.8966 131.998 39.6572 131.718 39.6572 131.718C39.6572 131.718 39.9764 131.958 40.5749 132.357C40.8542 132.556 41.2133 132.796 41.6522 133.075C42.091 133.354 42.5299 133.673 43.0885 133.953C43.6471 134.272 44.2057 134.631 44.8839 134.95C45.5223 135.309 46.2405 135.628 46.9587 135.987C48.4349 136.666 50.1106 137.304 51.9061 137.863C53.7015 138.421 55.457 138.82 57.053 139.139C57.8509 139.259 58.609 139.419 59.3671 139.498C60.0853 139.618 60.7635 139.658 61.4019 139.698C62.0403 139.778 62.5989 139.778 63.0777 139.778C63.5963 139.818 63.9953 139.818 64.3544 139.818C65.0726 139.897 65.4716 139.897 65.4716 139.897Z" fill="#1690B7"/>
<path d="M61.5216 147.318C58.8883 148.276 54.1404 145.004 49.9909 140.097C47.6369 137.344 45.5223 134.032 44.046 130.721C43.288 129.005 42.7294 127.289 42.4102 125.614C42.2506 124.855 42.1708 124.057 42.1309 123.339C42.0511 121.783 42.2107 120.307 42.6895 118.95C44.3253 114.402 47.4374 114.921 50.0707 116.437L48.6743 118.352C48.1556 118.272 47.597 118.472 47.0384 119.27C45.8415 121.065 48.9935 128.526 52.3848 134.631C54.0207 137.583 55.6964 140.256 57.0131 141.772C57.4519 142.291 57.8509 142.69 58.1701 142.929C61.4418 145.244 62.0004 143.528 62.0004 142.012C63.0776 141.972 64.115 141.852 65.0327 141.653C65.2321 143.767 64.6736 146.161 61.5216 147.318Z" fill="#FFBA3C"/>
<path d="M53.7804 141.453C53.7804 141.453 53.5011 141.254 52.9425 140.895C52.6632 140.695 52.3441 140.496 52.0249 140.177C51.6658 139.897 51.2668 139.578 50.8279 139.179C49.9501 138.421 49.0325 137.384 48.0749 136.187C47.1572 134.95 46.1997 133.513 45.4416 131.918C44.6835 130.322 44.125 128.686 43.726 127.21C43.3669 125.693 43.1674 124.337 43.0876 123.18C43.0078 122.621 43.0477 122.063 43.0078 121.624C43.0078 121.185 43.0078 120.786 43.0477 120.467C43.0876 119.828 43.1275 119.469 43.1275 119.469C43.1275 119.469 43.2073 119.828 43.3669 120.427C43.4467 120.746 43.5265 121.105 43.6462 121.544C43.7659 121.983 43.8856 122.462 44.0452 123.02C44.3644 124.097 44.7633 125.374 45.282 126.731C45.8007 128.087 46.4391 129.564 47.1573 131.08C47.9153 132.596 48.6734 133.992 49.4315 135.269C50.1895 136.506 50.9077 137.623 51.586 138.541C51.9052 139.019 52.2244 139.418 52.5037 139.778C52.7829 140.137 53.0223 140.456 53.2218 140.695C53.5809 141.174 53.7804 141.453 53.7804 141.453Z" fill="#FFC962"/>
<path d="M54.6597 110.213L56.6547 107.5C56.6547 107.5 44.8048 103.709 46.8795 113.285C49.4729 125.334 73.6913 133.593 76.1251 127.449C78.5589 121.305 75.2474 118.911 75.2474 118.911L73.2524 122.143C73.2524 122.143 74.8484 126.252 71.2176 125.494C67.5868 124.736 50.4704 114.801 50.4704 111.051C50.3906 107.34 54.6597 110.213 54.6597 110.213Z" fill="#A51A4D"/>
<path d="M58.9287 104.388L60.764 101.794C60.764 101.794 49.4728 98.1637 51.5475 107.739C54.1409 119.789 78.3593 128.048 80.7931 121.903C83.2269 115.759 78.9577 113.205 78.9577 113.205L77.2022 115.919C77.2022 115.919 79.4764 120.666 75.8457 119.908C72.2149 119.15 55.0984 109.216 55.0984 105.465C55.0585 101.755 58.9287 104.388 58.9287 104.388Z" fill="#FF8035"/>
<path d="M71.9356 121.505C71.9356 121.505 71.5765 121.465 70.8982 121.345C70.2199 121.225 69.2624 121.066 68.1053 120.786C65.7513 120.228 62.5195 119.19 59.3676 117.076C56.2156 114.961 54.1009 112.088 53.1035 109.814C52.5848 108.697 52.3055 107.74 52.1858 107.061C52.106 106.742 52.0661 106.463 52.0262 106.303C51.9863 106.144 51.9863 106.024 51.9863 106.024C51.9863 106.024 52.0262 106.104 52.106 106.263C52.1858 106.423 52.2656 106.662 52.4651 106.942C52.7843 107.54 53.2631 108.378 53.9414 109.335C55.2979 111.251 57.5322 113.525 60.4448 115.52C63.3574 117.515 66.27 118.911 68.4245 119.909C70.579 120.906 71.9356 121.505 71.9356 121.505Z" fill="#FF9156"/>
<path d="M72.9339 128.048C72.9339 128.048 72.6147 128.088 72.0162 128.128C71.697 128.168 71.3379 128.207 70.939 128.207C70.5001 128.207 70.0213 128.247 69.4627 128.207C68.3854 128.168 67.1087 128.048 65.6723 127.769C64.2759 127.489 62.7199 127.05 61.2037 126.372C59.6876 125.694 58.2911 124.896 57.1341 124.098C55.977 123.26 54.9795 122.422 54.2215 121.664C53.8225 121.305 53.5033 120.906 53.224 120.627C52.9447 120.308 52.7053 120.028 52.5058 119.789C52.1468 119.31 51.9473 119.031 51.9473 119.031C51.9473 119.031 52.2266 119.23 52.7053 119.549C52.9447 119.709 53.224 119.948 53.5831 120.148C53.9422 120.387 54.3412 120.667 54.7801 120.906C55.6578 121.465 56.7351 122.103 57.932 122.741C59.129 123.38 60.4855 124.018 61.9219 124.656C63.3582 125.255 64.7547 125.774 66.0713 126.252C67.388 126.691 68.545 127.05 69.5824 127.29C70.1011 127.449 70.54 127.529 70.9788 127.609C71.3778 127.729 71.7369 127.769 72.0162 127.848C72.6147 128.008 72.9339 128.048 72.9339 128.048Z" fill="#B7255A"/>
<path d="M55.6958 150.83C55.6958 150.83 55.217 150.83 54.3392 150.79C53.4615 150.71 52.1847 150.55 50.6287 150.151C47.5565 149.393 43.4071 147.678 39.4571 144.725C37.5021 143.249 35.7864 141.693 34.4299 140.017C33.0733 138.381 32.1158 136.586 31.7168 135.03C31.2779 133.434 31.3178 132.117 31.4774 131.24C31.5572 130.801 31.637 130.481 31.7168 130.242C31.7966 130.043 31.8365 129.923 31.8365 129.923C31.8365 129.923 31.8365 130.043 31.7966 130.282C31.7966 130.521 31.7567 130.841 31.7567 131.279C31.7966 132.157 31.9562 133.394 32.5946 134.751C33.193 136.107 34.2304 137.583 35.6269 139.02C37.0233 140.456 38.7389 141.892 40.6142 143.289C44.3646 146.082 48.1151 148.117 50.9479 149.314C52.3842 149.912 53.5812 150.271 54.419 150.55C55.2569 150.71 55.6958 150.83 55.6958 150.83Z" fill="#F64545"/>
<path d="M127.634 165.631C117.66 148.635 107.685 131.678 96.8326 115.2C94.6781 111.928 92.8428 108.576 91.4064 105.145C91.3665 105.105 91.3665 105.065 91.3665 105.026C91.2867 104.866 91.2468 104.746 91.167 104.587C91.167 104.587 91.167 104.587 91.167 104.547C90.4888 102.911 89.8903 101.235 89.3716 99.5594C87.2171 92.4575 86.5787 84.9566 87.5363 76.9769C87.6161 76.1789 87.7358 75.5804 87.8156 75.1814C88.4539 72.3486 88.6534 63.6508 87.6161 60.2195C87.6161 60.1397 87.5762 60.0998 87.5762 60.02C87.5363 59.9402 87.5363 59.8604 87.4964 59.7806C87.4565 59.621 87.3767 59.4215 87.3368 59.222C87.2171 58.6235 87.0974 57.8256 87.0575 56.868C86.6984 51.0029 87.4565 39.5521 87.4565 39.5521C87.4565 39.5521 86.858 23.3533 87.2171 17.4882C87.4166 14.0569 87.8954 12.5009 88.2545 11.7827C88.4938 11.264 88.6933 11.1842 88.6933 11.1842C88.7332 11.1044 88.7332 11.0246 88.7332 10.9448C88.7332 10.9049 88.7731 10.8251 88.7731 10.7853V10.7453C89.9302 6.6358 93.1221 6.11713 94.0796 6.51611C94.1594 6.55601 94.2392 6.67571 94.319 6.9151C94.3988 7.07469 94.4387 7.31408 94.5185 7.59337C94.5584 7.71307 94.5983 7.87266 94.6382 8.03226C94.8377 8.79033 94.9973 9.78779 95.1968 10.9448C95.3165 11.5832 95.4362 12.2216 95.516 12.9398C96.1543 16.7301 96.8326 21.5179 97.4311 25.3083C97.8301 27.7022 98.1892 29.6971 98.4685 30.7744C99.6255 35.0834 107.845 58.7432 109.241 61.0973C110.677 63.4513 111.156 96.1281 111.435 97.9635C111.715 99.7988 123.605 115.24 127.594 120.785C130.507 124.855 159.194 151.507 174.395 165.512H127.634V165.631Z" fill="#FFA07F"/>
<path d="M88.7734 11.0247C89.332 10.905 89.9305 10.8252 90.4891 10.8252C91.0477 9.02981 92.5638 7.55357 94.3592 6.99499C94.2794 6.7556 94.1996 6.596 94.1198 6.596C93.1623 6.19702 89.9704 6.7556 88.8133 10.8651C88.8133 10.905 88.7734 10.9449 88.7734 11.0247Z" fill="#FF7D6F"/>
<path d="M87.337 59.3021C87.3769 59.5415 87.4567 59.7011 87.4966 59.8607C87.5365 59.9405 87.5365 60.0203 87.5764 60.1001C87.6961 59.6213 87.7759 59.1026 87.8956 58.6238C88.2547 56.8683 88.8532 54.993 89.6511 53.3971C88.3744 50.1254 87.7759 46.5745 87.8956 43.0634C87.9754 40.6296 88.6138 37.9165 90.6486 36.6397C89.9304 36.8392 89.2521 37.0786 88.5739 37.2781C87.337 32.8095 88.1749 28.0616 88.2148 23.4333C88.2946 19.0844 87.6562 14.4562 89.8506 10.7456C89.4915 10.7855 89.1724 10.8254 88.8133 10.9052V10.9451C88.8133 10.985 88.7734 11.0249 88.7734 11.1047C88.7335 11.1845 88.7335 11.2643 88.7335 11.3441C88.7335 11.3441 88.534 11.4239 88.2946 11.9426C87.9355 12.6607 87.4567 14.2168 87.2572 17.6481C86.8981 23.5131 87.4966 39.7119 87.4966 39.7119C87.4966 39.7119 86.4194 55.1127 87.337 59.3021Z" fill="#FF7D6F"/>
<path d="M87.6553 60.2602C88.6926 63.6915 88.4931 72.3893 87.8547 75.2221C87.775 75.6211 87.6553 76.2196 87.5755 77.0176C88.932 72.3095 89.331 67.3621 88.6527 62.4945C88.4931 61.2178 88.134 59.9011 88.134 58.6244C88.134 57.5471 88.5729 56.4299 88.134 55.3926C87.6951 55.8714 87.376 56.3901 87.0967 56.9486C87.1366 57.9062 87.2563 58.7042 87.376 59.3026C87.4159 59.542 87.4957 59.7016 87.5356 59.8612C87.5755 59.941 87.5755 60.0208 87.6154 60.1006C87.6154 60.1405 87.6154 60.2203 87.6553 60.2602Z" fill="#FF7D6F"/>
<path d="M93.2822 8.63113C93.761 10.1074 94.3595 11.5836 95.0777 12.9801C95.2373 13.02 95.4367 13.0599 95.5963 13.0599C95.4766 12.3417 95.3569 11.7033 95.2772 11.0649C95.0777 9.90789 94.8782 8.91042 94.7186 8.15234C94.2398 8.39173 93.761 8.59123 93.2822 8.63113Z" fill="#FFD39C"/>
<path d="M93.7197 12.5811C92.9217 13.1795 91.9242 13.5386 90.9268 13.4987C91.1263 15.0149 91.7646 16.8103 92.6025 18.0472C93.2808 18.0472 94.1186 17.8078 94.3979 17.1694C95.0363 15.7729 94.0787 14.1371 93.7197 12.5811Z" fill="#FFD39C"/>
<path d="M88.2939 11.8227C88.8126 11.4637 89.4111 11.2642 90.0096 11.2243C91.4459 11.1046 92.8823 11.9424 93.5206 13.2192C94.0393 14.2565 93.9994 15.4535 93.9994 16.6106C93.9994 31.2533 97.4307 45.8562 103.974 58.9429C99.4256 45.1779 94.9171 30.974 94.9171 16.4909C94.9171 14.9747 94.9171 13.3389 94.1191 12.0222C93.2812 10.7056 91.5656 9.98741 90.0096 10.3864C89.6106 10.4662 89.1717 10.6657 88.7727 10.9051C88.7328 11.0248 88.6929 11.1445 88.6929 11.3041C88.7328 11.2642 88.5333 11.3041 88.2939 11.8227Z" fill="#FF7D6F"/>
<path d="M94.7179 54.7539C93.7603 55.7913 92.3639 56.3498 90.9674 56.3498C90.8477 57.1478 90.9275 57.8261 91.0472 58.6241C91.127 59.1826 91.2866 59.7412 91.5659 60.22C92.1245 61.1377 93.1618 61.7361 94.2391 61.7361C95.3164 61.7361 96.3537 61.1377 96.9123 60.22C96.7926 58.3049 95.6754 56.4695 94.7179 54.7539Z" fill="#FFD39C"/>
<path d="M87.3369 59.302C87.3768 59.5414 87.4566 59.701 87.4965 59.8605C87.5364 59.9802 87.5763 60.1398 87.6162 60.2595C88.0152 58.5439 88.5738 56.8682 89.292 55.2722C89.6909 54.3546 90.4091 52.9182 91.4465 52.5591C92.5636 52.2 93.6409 53.0778 94.2394 53.9157C95.556 55.8308 96.1545 58.1848 96.4338 60.4989C96.6732 62.813 96.6333 65.167 96.7131 67.4812C96.7929 69.516 96.9924 71.5109 97.1519 73.5058C97.6706 79.0517 98.3489 84.7173 100.783 89.7445C98.4686 82.2436 97.4312 74.3836 97.7504 66.5236C97.91 62.6933 98.3489 58.7035 96.9525 55.1126C95.9949 52.5591 93.3616 50.1652 90.8081 51.0829C88.8132 51.801 88.095 54.0354 87.7758 55.9106C87.5763 57.0278 87.4566 58.1848 87.3369 59.302Z" fill="#FF7D6F"/>
<path d="M164.461 165.631C150.456 151.029 126.238 125.613 124.642 122.461C122.368 118.033 109.321 98.6019 109.321 98.6019C109.321 98.6019 109.68 61.7357 108.922 61.616C108.164 61.4963 97.9099 32.4901 98.1892 31.4129C98.3089 30.974 97.9897 28.3806 97.5508 25.3882C97.9498 27.7821 98.3089 29.777 98.5881 30.8144C99.7452 35.1234 107.964 58.7832 109.361 61.1372C110.797 63.4913 111.276 96.1681 111.555 98.0035C111.834 99.8388 123.724 115.279 127.714 120.825C130.627 124.895 159.314 151.547 174.515 165.552H164.461V165.631Z" fill="#FFD39C"/>
<path d="M127.634 165.632C117.659 148.635 107.685 131.679 96.8324 115.2C94.6779 111.929 92.8426 108.577 91.4062 105.146C93.4012 109.774 122.088 146.162 137.529 165.592H127.634V165.632Z" fill="#FF7D6F"/>
<path d="M135.494 130.241L133.459 127.289C133.459 127.289 145.947 123.179 143.713 134.032C140.84 147.677 113.989 156.973 111.316 150.031C108.642 143.088 113.311 140.216 113.311 140.216L115.266 143.288C115.266 143.288 112.752 148.674 116.782 147.836C120.811 146.999 139.803 135.747 139.803 131.518C139.803 127.289 135.494 130.241 135.494 130.241Z" fill="#CE2D2D"/>
<path d="M106.965 131.079L108.92 134.271C108.92 134.271 106.447 138.022 110.157 138.022C110.277 138.022 110.397 138.021 110.556 137.982C110.716 137.982 110.915 137.942 111.115 137.902C113.389 137.543 117.818 136.226 122.087 134.59C125.199 133.393 128.271 132.037 130.386 130.72C132.022 129.723 133.139 128.725 133.298 127.887C133.578 126.371 132.979 125.852 132.141 125.693L132.022 125.573L129.588 123.06C130.386 123.06 131.343 123.099 132.301 123.259C135.373 123.778 138.565 125.493 136.331 130.72C134.455 135.109 129.708 138.261 124.441 140.056C122.127 140.854 119.733 141.413 117.459 141.692C115.703 141.932 114.027 142.011 112.471 141.932C111.394 141.892 110.357 141.772 109.439 141.572C107.205 141.134 105.529 140.216 104.891 138.899C102.656 134.151 106.965 131.079 106.965 131.079Z" fill="#006D93"/>
<path d="M109.001 139.897C109.001 139.897 109.4 140.017 110.078 140.176C110.437 140.256 110.836 140.376 111.355 140.456C111.874 140.535 112.432 140.655 113.071 140.695C113.709 140.775 114.427 140.815 115.185 140.815C115.943 140.855 116.781 140.815 117.619 140.735C119.335 140.575 121.21 140.256 123.125 139.658C125.04 139.059 126.756 138.261 128.232 137.383C128.95 136.944 129.668 136.506 130.267 136.027C130.905 135.588 131.424 135.149 131.943 134.71C132.461 134.311 132.86 133.872 133.219 133.513C133.578 133.154 133.898 132.835 134.097 132.556C134.576 131.997 134.815 131.718 134.815 131.718C134.815 131.718 134.496 131.957 133.898 132.356C133.618 132.556 133.259 132.795 132.82 133.074C132.381 133.354 131.943 133.673 131.384 133.952C130.825 134.271 130.267 134.63 129.589 134.95C128.95 135.309 128.232 135.628 127.514 135.987C126.038 136.665 124.362 137.304 122.566 137.862C120.771 138.421 119.016 138.82 117.42 139.139C116.622 139.259 115.864 139.418 115.105 139.498C114.387 139.618 113.709 139.658 113.071 139.697C112.432 139.777 111.874 139.777 111.395 139.777C110.876 139.817 110.477 139.817 110.118 139.817C109.4 139.897 109.001 139.897 109.001 139.897Z" fill="#1690B7"/>
<path d="M112.95 147.318C115.584 148.275 120.332 145.004 124.481 140.096C126.835 137.343 128.95 134.032 130.426 130.72C131.184 129.004 131.743 127.289 132.062 125.613C132.221 124.855 132.301 124.057 132.341 123.339C132.421 121.783 132.261 120.307 131.782 118.95C130.147 114.402 127.035 114.92 124.401 116.436L125.798 118.352C126.316 118.272 126.875 118.471 127.433 119.269C128.63 121.065 125.478 128.526 122.087 134.63C120.451 137.583 118.776 140.256 117.459 141.772C117.02 142.291 116.621 142.69 116.302 142.929C113.03 145.243 112.472 143.527 112.472 142.011C111.394 141.971 110.357 141.852 109.439 141.652C109.24 143.767 109.798 146.161 112.95 147.318Z" fill="#FFBA3C"/>
<path d="M120.691 141.453C120.691 141.453 120.971 141.253 121.529 140.894C121.809 140.695 122.128 140.495 122.447 140.176C122.806 139.897 123.205 139.578 123.644 139.179C124.522 138.421 125.439 137.383 126.397 136.186C127.315 134.949 128.272 133.513 129.03 131.917C129.788 130.321 130.347 128.685 130.746 127.209C131.105 125.693 131.304 124.336 131.384 123.179C131.464 122.621 131.424 122.062 131.464 121.623C131.464 121.184 131.464 120.785 131.424 120.466C131.384 119.828 131.344 119.469 131.344 119.469C131.344 119.469 131.265 119.828 131.105 120.426C131.025 120.745 130.945 121.105 130.826 121.543C130.706 121.982 130.586 122.461 130.427 123.02C130.107 124.097 129.708 125.374 129.19 126.73C128.671 128.087 128.033 129.563 127.315 131.079C126.556 132.595 125.798 133.992 125.04 135.269C124.282 136.505 123.564 137.623 122.886 138.54C122.567 139.019 122.247 139.418 121.968 139.777C121.689 140.136 121.449 140.455 121.25 140.695C120.931 141.174 120.691 141.453 120.691 141.453Z" fill="#FFC962"/>
<path d="M119.812 110.212L117.817 107.499C117.817 107.499 129.667 103.708 127.592 113.284C124.998 125.333 100.78 133.592 98.3463 127.448C95.9125 121.304 99.224 118.91 99.224 118.91L101.219 122.142C101.219 122.142 99.623 126.251 103.254 125.493C106.885 124.735 124.001 114.8 124.001 111.05C124.081 107.339 119.812 110.212 119.812 110.212Z" fill="#A51A4D"/>
<path d="M115.543 104.386L113.708 101.793C113.708 101.793 124.999 98.1622 122.924 107.738C120.331 119.787 96.1124 128.046 93.6786 121.902C91.2448 115.757 95.514 113.204 95.514 113.204L97.2695 115.917C97.2695 115.917 94.9953 120.665 98.626 119.907C102.257 119.149 119.373 109.214 119.373 105.464C119.413 101.753 115.543 104.386 115.543 104.386Z" fill="#FF8035"/>
<path d="M102.575 121.503C102.575 121.503 102.934 121.463 103.613 121.343C104.291 121.224 105.248 121.064 106.405 120.785C108.759 120.226 111.991 119.189 115.143 117.074C118.295 114.96 120.41 112.087 121.407 109.813C121.926 108.696 122.205 107.738 122.325 107.06C122.405 106.741 122.445 106.461 122.485 106.302C122.524 106.142 122.524 106.022 122.524 106.022C122.524 106.022 122.485 106.102 122.405 106.262C122.325 106.421 122.245 106.661 122.046 106.94C121.726 107.539 121.248 108.376 120.569 109.334C119.213 111.249 116.979 113.523 114.066 115.518C111.153 117.513 108.241 118.91 106.086 119.907C103.932 120.905 102.575 121.503 102.575 121.503Z" fill="#FF9156"/>
<path d="M101.54 128.046C101.54 128.046 101.859 128.086 102.458 128.126C102.777 128.166 103.136 128.206 103.535 128.206C103.974 128.206 104.453 128.246 105.011 128.206C106.088 128.166 107.365 128.046 108.802 127.767C110.198 127.488 111.754 127.049 113.27 126.371C114.786 125.692 116.183 124.894 117.34 124.096C118.497 123.259 119.494 122.421 120.252 121.663C120.651 121.304 120.971 120.905 121.25 120.625C121.529 120.306 121.769 120.027 121.968 119.787C122.327 119.309 122.527 119.029 122.527 119.029C122.527 119.029 122.247 119.229 121.769 119.548C121.529 119.708 121.25 119.947 120.891 120.146C120.532 120.386 120.133 120.665 119.694 120.905C118.816 121.463 117.739 122.101 116.542 122.74C115.345 123.378 113.988 124.017 112.552 124.655C111.116 125.253 109.719 125.772 108.403 126.251C107.086 126.69 105.929 127.049 104.892 127.288C104.373 127.448 103.934 127.528 103.495 127.607C103.096 127.727 102.737 127.767 102.458 127.847C101.859 128.006 101.54 128.046 101.54 128.046Z" fill="#B7255A"/>
<path d="M118.776 150.829C118.776 150.829 119.255 150.829 120.133 150.789C121.011 150.709 122.287 150.549 123.843 150.15C126.916 149.392 131.065 147.677 135.015 144.724C136.97 143.248 138.686 141.692 140.042 140.016C141.399 138.38 142.356 136.585 142.755 135.029C143.194 133.433 143.154 132.116 142.995 131.239C142.915 130.8 142.835 130.48 142.755 130.241C142.676 130.042 142.636 129.922 142.636 129.922C142.636 129.922 142.636 130.042 142.676 130.281C142.676 130.52 142.715 130.84 142.715 131.278C142.676 132.156 142.516 133.393 141.878 134.75C141.279 136.106 140.242 137.582 138.845 139.019C137.449 140.455 135.733 141.891 133.858 143.288C130.108 146.081 126.357 148.116 123.524 149.313C122.088 149.911 120.891 150.27 120.053 150.549C119.255 150.709 118.776 150.829 118.776 150.829Z" fill="#F64545"/>
<path d="M46.8785 55.1915L46.3199 57.0269L45.7613 55.1915C45.0432 52.8375 43.4871 50.8825 41.4922 49.6856C43.4871 48.4886 45.0432 46.5336 45.7613 44.1796L46.3199 42.3442L46.8785 44.1796C47.5967 46.5336 49.1527 48.4886 51.1476 49.6856C49.1128 50.8825 47.5967 52.8375 46.8785 55.1915Z" fill="#F0D042"/>
<path d="M139.403 100.038L138.844 101.873L138.286 100.038C137.568 97.6837 136.012 95.7287 134.017 94.5318C136.012 93.3348 137.568 91.3798 138.286 89.0258L138.844 87.1904L139.403 89.0258C140.121 91.3798 141.677 93.3348 143.672 94.5318C141.637 95.7287 140.121 97.6837 139.403 100.038Z" fill="#F0D042"/>
<path d="M51.466 82.6821L51.1069 83.7594L50.7478 82.6821C50.309 81.2857 49.3913 80.0887 48.1943 79.4105C49.3913 78.6923 50.309 77.5352 50.7478 76.1388L51.1069 75.0615L51.466 76.1388C51.9049 77.5352 52.8226 78.7322 54.0195 79.4105C52.8226 80.1286 51.9049 81.2857 51.466 82.6821Z" fill="#F0D042"/>
<path d="M114.986 40.4697L114.626 41.547L114.267 40.4697C113.828 39.0733 112.911 37.8763 111.714 37.1981C112.911 36.4799 113.828 35.3228 114.267 33.9264L114.626 32.8491L114.986 33.9264C115.424 35.3228 116.342 36.5198 117.539 37.1981C116.342 37.9162 115.424 39.0733 114.986 40.4697Z" fill="#F0D042"/>
<path d="M64.8324 26.944L64.5531 27.8616L64.2738 26.944C63.9147 25.7869 63.1566 24.8293 62.1592 24.2309C63.1566 23.6324 63.9147 22.6748 64.2738 21.5178L64.5531 20.6001L64.8324 21.5178C65.1915 22.6748 65.9495 23.6324 66.947 24.2309C65.9495 24.7894 65.1915 25.7869 64.8324 26.944Z" fill="#F0D042"/>
<path d="M128.47 67.9991L128.191 68.9168L127.911 67.9991C127.552 66.8421 126.794 65.8845 125.797 65.286C126.794 64.6876 127.552 63.73 127.911 62.5729L128.191 61.6553L128.47 62.5729C128.829 63.73 129.587 64.6876 130.585 65.286C129.587 65.8446 128.829 66.8421 128.47 67.9991Z" fill="#F0D042"/>
<path d="M35.9466 44.2999L35.6673 45.2176L35.3881 44.2999C35.029 43.1429 34.2709 42.1853 33.2734 41.5868C34.2709 40.9883 35.029 40.0308 35.3881 38.8737L35.6673 37.9561L35.9466 38.8737C36.3057 40.0308 37.0638 40.9883 38.0613 41.5868C37.0638 42.1853 36.3057 43.1429 35.9466 44.2999Z" fill="#F0D042"/>
<path d="M149.059 88.5074L148.78 89.4251L148.5 88.5074C148.141 87.3504 147.383 86.3928 146.386 85.7943C147.383 85.1959 148.141 84.2383 148.5 83.0812L148.78 82.1636L149.059 83.0812C149.418 84.2383 150.176 85.1959 151.174 85.7943C150.176 86.3928 149.418 87.3504 149.059 88.5074Z" fill="#F0D042"/>
<path d="M16.2367 109.494L15.9574 110.411L15.6781 109.494C15.319 108.337 14.5609 107.379 13.5635 106.781C14.5609 106.182 15.319 105.225 15.6781 104.068L15.9574 103.15L16.2367 104.068C16.5958 105.225 17.3538 106.182 18.3513 106.781C17.3538 107.339 16.5958 108.337 16.2367 109.494Z" fill="white"/>
</svg>
