<svg width="440" height="440" viewBox="0 0 440 440" fill="none" xmlns="http://www.w3.org/2000/svg">
<path d="M220 440C341.495 440 440 341.495 440 220C440 98.505 341.495 0 220 0C98.505 0 0 98.505 0 220C0 341.495 98.505 440 220 440ZM220 105.702C233.876 105.702 247.184 111.214 256.996 121.027C266.805 130.839 272.318 144.144 272.318 158.02C272.318 171.895 266.805 185.204 256.996 195.016C247.184 204.828 233.876 210.34 220 210.34C206.124 210.34 192.816 204.828 183.004 195.016C173.195 185.204 167.682 171.895 167.682 158.02C167.707 144.153 173.228 130.861 183.035 121.057C192.84 111.252 206.133 105.73 220 105.702ZM147.693 253.393C166.869 234.217 192.881 223.444 220 223.444C247.123 223.444 273.131 234.217 292.31 253.393C311.486 272.569 322.262 298.581 322.265 325.7H117.736C117.666 298.565 128.451 272.526 147.695 253.393H147.693Z" fill="#F15925"/>
</svg>
