<svg width="40" height="40" viewBox="0 0 40 40" fill="none" xmlns="http://www.w3.org/2000/svg">
<rect width="40" height="40" rx="20" fill="#E0E0E0" fill-opacity="0.5"/>
<path d="M18 15H20V20H25V22H18V15Z" fill="#A1A1A1"/>
<path fill-rule="evenodd" clip-rule="evenodd" d="M30 20C30 25.5228 25.5228 30 20 30C14.4772 30 10 25.5228 10 20C10 14.4772 14.4772 10 20 10C25.5228 10 30 14.4772 30 20ZM28 20C28 24.4183 24.4183 28 20 28C15.5817 28 12 24.4183 12 20C12 15.5817 15.5817 12 20 12C24.4183 12 28 15.5817 28 20Z" fill="#A1A1A1"/>
</svg>
