<svg width="40" height="40" viewBox="0 0 40 40" fill="none" xmlns="http://www.w3.org/2000/svg">
<rect width="40" height="40" rx="20" fill="#C8CDE9"/>
<path d="M15.2305 24.5991L11.6074 18.3199L8.82503 19.9256C7.08913 20.926 6.49643 23.1451 7.49686 24.8769C8.49725 26.6128 10.7163 27.2055 12.4481 26.205L15.2305 24.5991Z" fill="#2E41B6"/>
<path d="M27.3822 13.5912C27.4621 13.7257 27.6008 13.8014 27.7479 13.8014C27.8193 13.8014 27.8909 13.7846 27.958 13.7468L31.2994 11.8176C31.5012 11.7 31.5684 11.4436 31.455 11.2418C31.3416 11.04 31.0809 10.9728 30.8791 11.0862L27.5377 13.0154C27.3359 13.1332 27.2686 13.3896 27.3822 13.5912V13.5912Z" fill="#2E41B6"/>
<path d="M32.6319 16.3781L28.7778 16.5463C28.5465 16.5546 28.3658 16.7522 28.3743 16.9834C28.3826 17.2104 28.5719 17.3869 28.7946 17.3869H28.8114L32.6656 17.2187C32.8968 17.2104 33.0775 17.0128 33.069 16.7816C33.0605 16.5504 32.8589 16.3781 32.6319 16.3781V16.3781Z" fill="#2E41B6"/>
<path d="M24.9398 11.036C25.0112 11.0823 25.0869 11.1034 25.1668 11.1034C25.3055 11.1034 25.44 11.036 25.5199 10.9101L27.5962 7.65693C27.7223 7.45936 27.6635 7.20297 27.4659 7.07681C27.2726 6.95065 27.012 7.00947 26.8858 7.20704L24.8136 10.4602C24.6834 10.6494 24.7422 10.9099 24.9398 11.036H24.9398Z" fill="#2E41B6"/>
<path d="M15.0876 25.6543L12.8683 26.9362C12.57 27.1086 12.2547 27.2388 11.9268 27.3356C12.3261 29.3068 13.3389 31.1057 14.8184 32.4636C15.3689 32.9721 16.1929 33.0563 16.8401 32.678C16.8569 32.6697 16.8695 32.6611 16.8863 32.6528C17.832 32.1064 18.0464 30.8244 17.3151 30.0176C16.2099 28.7859 15.4407 27.2811 15.0875 25.6545L15.0876 25.6543Z" fill="#2E41B6"/>
<path d="M20.6021 17.3114C19.6228 15.6135 17.0253 10.8683 16.9749 8.23294C16.1175 9.34671 15.6887 11.1919 15.1045 12.7765C14.4236 14.9076 13.4906 16.5972 12.2549 17.7698L16.0333 24.3184C17.6642 23.8351 19.5976 23.873 21.779 24.3479C23.4393 24.6337 25.2508 25.1801 26.6419 24.9994C24.2168 23.4817 21.0141 18.0222 20.602 17.3118L20.6021 17.3114Z" fill="#2E41B6"/>
<path d="M18.0715 7.33728C17.3275 7.76607 18.0967 10.5527 19.8117 14.0494C21.266 13.5409 22.9177 14.1208 23.7037 15.491C24.494 16.8569 24.1745 18.5802 23.0019 19.5847C25.1832 22.8421 27.2303 24.9227 27.9743 24.4898C28.9117 23.9476 27.4532 19.6689 24.7169 14.9318C21.9807 10.1951 19.0089 6.79451 18.0717 7.33693L18.0715 7.33728Z" fill="#2E41B6"/>
<path d="M22.5523 18.8663C23.3466 18.1098 23.5441 16.8866 22.9811 15.9116C22.4178 14.9323 21.2577 14.4952 20.207 14.8062C20.5602 15.4914 20.9342 16.1806 21.3293 16.8656C21.7243 17.551 22.1362 18.2234 22.5523 18.8664L22.5523 18.8663Z" fill="#2E41B6"/>
</svg>
