<svg width="40" height="40" viewBox="0 0 40 40" fill="none" xmlns="http://www.w3.org/2000/svg">
<rect width="40" height="40" rx="20" fill="#C6DDFC"/>
<path d="M31.1176 30.5533C31.1214 30.6974 31.0635 30.8363 30.9587 30.9351C30.8537 31.0339 30.7113 31.0834 30.5676 31.0709V31.0815C30.2614 31.0186 9.55857 31.1914 9.23647 31.0393C8.71832 30.8493 8.96146 29.8772 8.90858 29.444H8.90882C8.91118 27.0772 9.85355 24.8079 11.5288 23.1343C13.2042 21.4607 15.4757 20.5194 17.8451 20.517H22.1811C24.7416 20.5427 27.1721 21.6471 28.8739 23.5583C30.5756 25.4696 31.3905 28.0098 31.1174 30.5532L31.1176 30.5533ZM20.0133 19.3423C26.923 19.123 26.9206 9.11403 20.0131 8.8961C13.1039 9.11517 13.1052 19.1243 20.0133 19.3423Z" fill="#5096F1"/>
<path d="M25.7177 31.2613L35.2621 21.7073L37.3848 23.83L25.364 35.8509L19.7071 30.194L21.8295 28.0716L25.0099 31.261L25.3636 31.6157L25.7177 31.2613Z" fill="#5096F1" stroke="#C6DDFC"/>
</svg>
