<svg width="40" height="40" viewBox="0 0 40 40" fill="none" xmlns="http://www.w3.org/2000/svg">
<rect width="40" height="40" rx="20" fill="#FFF9DE"/>
<path d="M27.0474 14.4135C27.0474 11.9415 25.2272 9.20001 23.5642 9.20001C21.9013 9.20001 20.0586 11.9416 20.0586 14.4135C20.0586 16.3911 21.0474 17.5821 22.4406 18.0091L22.2608 29.2451C22.2608 29.9643 22.8226 30.5485 23.5418 30.5485C24.261 30.5485 24.8451 29.9642 24.8228 29.2451L24.643 18.0091C26.0586 17.6045 27.0474 16.391 27.0474 14.4135Z" fill="#F0D042"/>
<path d="M17.811 9.76183C17.4964 9.76183 17.2492 10.009 17.2492 10.3236V14.9978C17.2492 15.1326 17.1368 15.245 17.002 15.245H16.3952C16.2604 15.245 16.148 15.1326 16.148 14.9978L16.1482 10.3012C16.1256 10.009 15.8784 9.76179 15.5864 9.76179C15.2718 9.76179 15.0246 10.009 15.0246 10.3236V14.9978C15.0246 15.1326 14.9122 15.245 14.7774 15.245H14.1706C14.0358 15.245 13.9234 15.1326 13.9234 14.9978V10.3011C13.9234 9.98652 13.6762 9.73932 13.3616 9.73932C13.047 9.73932 12.7998 9.98652 12.7998 10.3011V15.9865C12.7998 16.9527 13.5414 17.7393 14.4628 17.8293L14.283 29.2226C14.283 29.9418 14.8448 30.526 15.564 30.526C16.2831 30.526 16.8673 29.9418 16.8449 29.2226L16.6874 17.8518C17.6312 17.762 18.3504 16.953 18.3504 16.009V10.3011C18.3504 10.0089 18.1032 9.76175 17.811 9.76175L17.811 9.76183Z" fill="#F0D042"/>
</svg>