<svg width="40" height="40" viewBox="0 0 40 40" fill="none" xmlns="http://www.w3.org/2000/svg">
<rect width="40" height="40" rx="20" fill="#F8E9D7"/>
<path d="M14.3256 12.2965C14.5448 12.2965 14.7551 12.2093 14.9102 12.0544C15.0652 11.8993 15.1523 11.689 15.1523 11.4698V8.6817C15.1523 8.38639 14.9948 8.11351 14.7391 7.96598C14.4833 7.81823 14.1681 7.81823 13.9123 7.96598C13.6565 8.11353 13.499 8.3864 13.499 8.6817V11.4729C13.4998 11.6916 13.5872 11.9011 13.7421 12.0554C13.8972 12.2099 14.1069 12.2965 14.3256 12.2965L14.3256 12.2965Z" fill="#F2B05C"/>
<path d="M25.6832 12.2965C25.9025 12.2965 26.1128 12.2093 26.2677 12.0544C26.4228 11.8993 26.5098 11.689 26.5098 11.4698V8.6817C26.5098 8.38639 26.3523 8.11351 26.0965 7.96598C25.8407 7.81823 25.5255 7.81823 25.2699 7.96598C25.0141 8.11353 24.8564 8.3864 24.8564 8.6817V11.4729C24.8572 11.6916 24.9448 11.9011 25.0997 12.0554C25.2546 12.2099 25.4645 12.2965 25.6832 12.2965L25.6832 12.2965Z" fill="#F2B05C"/>
<path d="M22.0954 18.3648C22.0954 17.8486 21.893 17.3532 21.5317 16.9844C21.1707 16.6158 20.6796 16.4031 20.1634 16.3922H20.1178C19.4122 16.3922 18.76 16.7687 18.4073 17.3798C18.0544 17.9909 18.0544 18.7439 18.4073 19.355C18.76 19.9661 19.4122 20.3427 20.1178 20.3427H20.1634C20.6804 20.3317 21.1723 20.1184 21.5335 19.7484C21.895 19.3787 22.0965 18.8818 22.0954 18.3648V18.3648Z" fill="#F2B05C"/>
<path d="M30.0872 10.0778H27.6723V11.5186C27.6723 12.2453 27.2847 12.9165 26.6555 13.2798C26.0262 13.643 25.2511 13.643 24.6219 13.2798C23.9926 12.9165 23.6051 12.2453 23.6051 11.5186V10.0778H16.3604V11.5186C16.3604 12.2453 15.9728 12.9165 15.3436 13.2798C14.7143 13.643 13.9392 13.643 13.31 13.2798C12.6807 12.9165 12.2932 12.2453 12.2932 11.5186V10.0778H9.87833C9.33896 10.0778 8.82162 10.2921 8.44032 10.6734C8.05882 11.0549 7.84473 11.572 7.84473 12.1114V30.1596C7.84473 30.699 8.05881 31.2163 8.44032 31.5976C8.82162 31.9789 9.33896 32.1932 9.87833 32.1932H30.0872C30.6264 32.1932 31.1437 31.9789 31.525 31.5976C31.9065 31.2163 32.1208 30.699 32.1208 30.1596V12.1114C32.1208 11.572 31.9065 11.0549 31.525 10.6734C31.1437 10.2921 30.6264 10.0778 30.0872 10.0778ZM15.852 18.4156C15.8699 17.2855 16.3322 16.2082 17.1391 15.4168C17.9458 14.6254 19.0321 14.1839 20.1621 14.1877C21.2819 14.1889 22.3556 14.6343 23.147 15.4265C23.9383 16.2187 24.3828 17.2927 24.3828 18.4126C24.3828 18.4126 24.6573 20.7196 20.1621 26.5693L20.1174 26.6283C15.5255 20.8376 15.855 18.4126 15.855 18.4126L15.852 18.4156ZM20.0118 29.397C15.5541 29.397 12.1936 27.8128 12.1936 25.7131C12.1936 24.4574 13.4137 23.348 15.5276 22.6699L15.8326 23.6388C14.2119 24.1564 13.2062 24.9515 13.2062 25.7131C13.2062 26.974 15.9994 28.3803 20.0076 28.3803C24.0158 28.3803 26.809 26.974 26.809 25.7131C26.809 24.9658 25.8309 24.1798 24.2568 23.6613L24.5752 22.6963C26.6414 23.3755 27.8289 24.4747 27.8289 25.7132C27.8339 27.8129 24.4723 29.3971 20.0148 29.3971L20.0118 29.397Z" fill="#F2B05C"/>
</svg>
