<svg width="42" height="43" viewBox="0 0 42 43" fill="none" xmlns="http://www.w3.org/2000/svg">
<rect width="42" height="43" rx="21" fill="#EA4335" fill-opacity="0.14"/>
<path fill-rule="evenodd" clip-rule="evenodd" d="M10.4156 12.4443H31.0294C32.1133 12.4443 33.0459 13.1402 33.4224 14.1166L26.0212 19.5901C26.0051 19.6005 25.9901 19.6125 25.9749 19.6245L20.7216 23.5093L15.4684 19.6245C15.4534 19.6125 15.4381 19.6005 15.4221 19.5901L8.02091 14.1166C8.39737 13.1404 9.33002 12.4443 10.4139 12.4443H10.4156ZM33.6 15.6107V26.6868L27.3601 20.2256L33.6 15.6107ZM33.5547 28.5157C33.3287 29.7312 32.2792 30.6568 31.0291 30.6568H10.4153C9.16504 30.6568 8.1158 29.7312 7.88975 28.5157L15.1404 21.0069L20.3456 24.8573C20.5808 25.0301 20.8901 25.0181 21.1093 24.8479L26.3015 21.0071L33.5522 28.5159L33.5547 28.5157ZM7.84424 26.6868V15.6107L14.0842 20.2258L7.84424 26.6868Z" fill="#EA4335"/>
</svg>
