<svg width="18" height="18" viewBox="0 0 18 18" fill="none" xmlns="http://www.w3.org/2000/svg">
<path d="M9.00023 -8.57153C6.1701 -8.57153 3.85737 -6.2588 3.85737 -3.42868V5.14275C3.85737 7.97288 6.1701 10.2856 9.00023 10.2856C11.8304 10.2856 14.1431 7.97288 14.1431 5.14275V-3.42868C14.1431 -6.2588 11.8304 -8.57153 9.00023 -8.57153ZM1.27255 2.27333C1.04541 2.27688 0.828977 2.37044 0.670774 2.53345C0.512571 2.69647 0.425541 2.91561 0.428799 3.14275V5.14275C0.428799 9.57733 3.81968 13.2388 8.14308 13.6707V16.2856C8.14148 16.3992 8.16246 16.512 8.20482 16.6174C8.24717 16.7228 8.31005 16.8187 8.3898 16.8996C8.46956 16.9805 8.56459 17.0447 8.66938 17.0885C8.77417 17.1324 8.88663 17.155 9.00023 17.155C9.11382 17.155 9.22628 17.1324 9.33107 17.0885C9.43586 17.0447 9.5309 16.9805 9.61065 16.8996C9.6904 16.8187 9.75328 16.7228 9.79564 16.6174C9.83799 16.512 9.85898 16.3992 9.85737 16.2856V13.6707C14.1808 13.2388 17.5717 9.57733 17.5717 5.14275V3.14275C17.5733 3.02917 17.5523 2.9164 17.5099 2.811C17.4676 2.7056 17.4047 2.60967 17.3249 2.52878C17.2452 2.44789 17.1502 2.38366 17.0454 2.33982C16.9406 2.29598 16.8281 2.2734 16.7145 2.2734C16.6009 2.2734 16.4885 2.29598 16.3837 2.33982C16.2789 2.38366 16.1838 2.44789 16.1041 2.52878C16.0243 2.60967 15.9615 2.7056 15.9191 2.811C15.8767 2.9164 15.8558 3.02917 15.8574 3.14275V5.14275C15.8574 8.90582 12.8515 11.9397 9.10179 11.9943C9.06366 11.9895 9.02526 11.9873 8.98683 11.9876C8.95549 11.9881 8.92419 11.9904 8.89308 11.9943C5.14602 11.9368 2.14308 8.90394 2.14308 5.14275V3.14275C2.14473 3.02803 2.12333 2.91414 2.08015 2.80784C2.03697 2.70154 1.97289 2.60499 1.89171 2.52392C1.81053 2.44284 1.71389 2.37888 1.60754 2.33584C1.50118 2.29279 1.38727 2.27154 1.27255 2.27333Z" fill="#2D8CFF"/>
</svg>
