<svg width="28" height="28" viewBox="0 0 28 28" fill="none" xmlns="http://www.w3.org/2000/svg">
<g clip-path="url(#clip0_1389_8735)">
<path d="M13.7146 1.14282C10.8845 1.14282 8.57173 3.45555 8.57173 6.28568V14.8571C8.57173 17.6872 10.8845 20 13.7146 20C16.5447 20 18.8574 17.6872 18.8574 14.8571V6.28568C18.8574 3.45555 16.5447 1.14282 13.7146 1.14282ZM5.9869 11.9877C5.75977 11.9912 5.54333 12.0848 5.38513 12.2478C5.22693 12.4108 5.1399 12.63 5.14315 12.8571V14.8571C5.14315 19.2917 8.53403 22.9532 12.8574 23.385V26C12.8558 26.1135 12.8768 26.2263 12.9192 26.3317C12.9615 26.4371 13.0244 26.533 13.1042 26.6139C13.1839 26.6948 13.2789 26.7591 13.3837 26.8029C13.4885 26.8467 13.601 26.8693 13.7146 26.8693C13.8282 26.8693 13.9406 26.8467 14.0454 26.8029C14.1502 26.7591 14.2453 26.6948 14.325 26.6139C14.4048 26.533 14.4676 26.4371 14.51 26.3317C14.5523 26.2263 14.5733 26.1135 14.5717 26V23.385C18.8951 22.9532 22.286 19.2917 22.286 14.8571V12.8571C22.2876 12.7435 22.2666 12.6308 22.2243 12.5254C22.1819 12.42 22.119 12.324 22.0393 12.2431C21.9595 12.1622 21.8645 12.098 21.7597 12.0542C21.6549 12.0103 21.5425 11.9878 21.4289 11.9878C21.3153 11.9878 21.2028 12.0103 21.098 12.0542C20.9932 12.098 20.8982 12.1622 20.8184 12.2431C20.7387 12.324 20.6758 12.42 20.6335 12.5254C20.5911 12.6308 20.5701 12.7435 20.5717 12.8571V14.8571C20.5717 18.6202 17.5658 21.6541 13.8161 21.7087C13.778 21.7039 13.7396 21.7016 13.7012 21.702C13.6698 21.7025 13.6385 21.7047 13.6074 21.7087C9.86037 21.6511 6.85744 18.6183 6.85744 14.8571V12.8571C6.85909 12.7424 6.83768 12.6285 6.7945 12.5222C6.75132 12.4159 6.68725 12.3193 6.60606 12.2383C6.52488 12.1572 6.42825 12.0932 6.32189 12.0502C6.21554 12.0071 6.10163 11.9859 5.9869 11.9877V11.9877Z" fill="#9CA3AF"/>
<path d="M13.7146 1.14282C10.8845 1.14282 8.57173 3.45555 8.57173 6.28568V14.8571C8.57173 17.6872 10.8845 20 13.7146 20C16.5447 20 18.8574 17.6872 18.8574 14.8571V6.28568C18.8574 3.45555 16.5447 1.14282 13.7146 1.14282ZM5.9869 11.9877C5.75977 11.9912 5.54333 12.0848 5.38513 12.2478C5.22693 12.4108 5.1399 12.63 5.14315 12.8571V14.8571C5.14315 19.2917 8.53403 22.9532 12.8574 23.385V26C12.8558 26.1135 12.8768 26.2263 12.9192 26.3317C12.9615 26.4371 13.0244 26.533 13.1042 26.6139C13.1839 26.6948 13.2789 26.7591 13.3837 26.8029C13.4885 26.8467 13.601 26.8693 13.7146 26.8693C13.8282 26.8693 13.9406 26.8467 14.0454 26.8029C14.1502 26.7591 14.2453 26.6948 14.325 26.6139C14.4048 26.533 14.4676 26.4371 14.51 26.3317C14.5523 26.2263 14.5733 26.1135 14.5717 26V23.385C18.8951 22.9532 22.286 19.2917 22.286 14.8571V12.8571C22.2876 12.7435 22.2666 12.6308 22.2243 12.5254C22.1819 12.42 22.119 12.324 22.0393 12.2431C21.9595 12.1622 21.8645 12.098 21.7597 12.0542C21.6549 12.0103 21.5425 11.9878 21.4289 11.9878C21.3153 11.9878 21.2028 12.0103 21.098 12.0542C20.9932 12.098 20.8982 12.1622 20.8184 12.2431C20.7387 12.324 20.6758 12.42 20.6335 12.5254C20.5911 12.6308 20.5701 12.7435 20.5717 12.8571V14.8571C20.5717 18.6202 17.5658 21.6541 13.8161 21.7087C13.778 21.7039 13.7396 21.7016 13.7012 21.702C13.6698 21.7025 13.6385 21.7047 13.6074 21.7087C9.86037 21.6511 6.85744 18.6183 6.85744 14.8571V12.8571C6.85909 12.7424 6.83768 12.6285 6.7945 12.5222C6.75132 12.4159 6.68725 12.3193 6.60606 12.2383C6.52488 12.1572 6.42825 12.0932 6.32189 12.0502C6.21554 12.0071 6.10163 11.9859 5.9869 11.9877V11.9877Z" fill="#9CA3AF"/>
</g>
<defs>
<clipPath id="clip0_1389_8735">
<rect width="27.4286" height="27.4286" fill="white"/>
</clipPath>
</defs>
</svg>