<svg width="18" height="18" viewBox="0 0 18 18" fill="none" xmlns="http://www.w3.org/2000/svg">
<path d="M9.00005 1.73975C13.1043 1.73975 16.2858 4.74632 16.2858 8.80689C16.2858 12.8675 13.1043 15.874 9.00005 15.874C8.28761 15.8757 7.57818 15.7815 6.89083 15.5941C6.7617 15.5585 6.6242 15.5685 6.50165 15.6227L5.05362 16.2608C4.96623 16.2993 4.87074 16.3158 4.7755 16.3087C4.68027 16.3017 4.58822 16.2714 4.50742 16.2206C4.42662 16.1697 4.35954 16.0997 4.31208 16.0169C4.26461 15.934 4.23821 15.8408 4.23519 15.7453L4.19573 14.4497C4.19305 14.3708 4.17433 14.2933 4.14072 14.2219C4.10711 14.1505 4.05931 14.0867 4.00023 14.0344C3.26923 13.3758 2.68719 12.5689 2.29299 11.6674C1.89879 10.7659 1.70151 9.7907 1.71433 8.80689C1.71433 4.74632 4.89576 1.73975 9.00005 1.73975ZM4.62498 10.8736C4.58168 10.9422 4.56385 11.0238 4.5746 11.1042C4.58535 11.1846 4.62399 11.2587 4.68378 11.3135C4.74357 11.3683 4.82072 11.4003 4.90174 11.404C4.98276 11.4078 5.06252 11.3829 5.12708 11.3338L7.42573 9.58889C7.50169 9.53175 7.59417 9.50085 7.68923 9.50085C7.78428 9.50085 7.87676 9.53175 7.95273 9.58889L9.65273 10.8639C9.77349 10.9542 9.91163 11.0185 10.0585 11.0528C10.2053 11.0871 10.3576 11.0906 10.5059 11.0632C10.6542 11.0358 10.7952 10.978 10.92 10.8934C11.0448 10.8088 11.1508 10.6994 11.2313 10.5719L13.3715 7.17671C13.4148 7.10812 13.4326 7.02651 13.4219 6.94612C13.4111 6.86572 13.3725 6.79166 13.3127 6.73686C13.2529 6.68205 13.1757 6.64999 13.0947 6.64627C13.0137 6.64255 12.9339 6.6674 12.8694 6.7165L10.5707 8.46142C10.4948 8.51856 10.4023 8.54946 10.3072 8.54946C10.2122 8.54946 10.1197 8.51856 10.0437 8.46142L8.34373 7.18642C8.22296 7.09614 8.08482 7.03182 7.93799 6.99752C7.79116 6.96321 7.63882 6.95966 7.49055 6.98709C7.34228 7.01452 7.2013 7.07234 7.07646 7.1569C6.95162 7.24146 6.84563 7.35095 6.76515 7.47846L4.62498 10.8736Z" fill="white"/>
</svg>
