<svg width="42" height="42" viewBox="0 0 42 42" fill="none" xmlns="http://www.w3.org/2000/svg">
<rect width="42" height="42" rx="21" fill="#CFE4FF"/>
<path d="M20.5424 33.0907C19.2248 33.0907 18.1568 32.0081 18.1568 30.6726H22.928C22.928 32.0081 21.86 33.0907 20.5424 33.0907ZM30.0848 29.4635H11V27.0453L13.3856 25.8363V19.1864C13.3228 17.4805 13.7028 15.7878 14.4878 14.2775C15.2691 12.8768 16.6046 11.8822 18.1568 11.545V8.90918H22.5058C20.9556 10.6653 20.6969 13.2333 21.8649 15.2708C23.0329 17.3083 25.362 18.352 27.6348 17.8563C27.6766 18.288 27.6968 18.7354 27.6968 19.1864V25.8363L30.0824 27.0453V29.4635H30.0848Z" fill="#326ECF"/>
<circle cx="26.2728" cy="12.7274" r="3.81818" fill="#A72314"/>
</svg>
