<svg width="17" height="16" viewBox="0 0 17 16" fill="none" xmlns="http://www.w3.org/2000/svg">
<path d="M14 10H13C12.8674 10 12.7402 10.0527 12.6464 10.1464C12.5527 10.2402 12.5 10.3674 12.5 10.5V14H2.5V4H7C7.13261 4 7.25979 3.94732 7.35355 3.85355C7.44732 3.75979 7.5 3.63261 7.5 3.5V2.5C7.5 2.36739 7.44732 2.24021 7.35355 2.14645C7.25979 2.05268 7.13261 2 7 2H2C1.60218 2 1.22064 2.15804 0.93934 2.43934C0.658035 2.72064 0.5 3.10218 0.5 3.5L0.5 14.5C0.5 14.8978 0.658035 15.2794 0.93934 15.5607C1.22064 15.842 1.60218 16 2 16H13C13.3978 16 13.7794 15.842 14.0607 15.5607C14.342 15.2794 14.5 14.8978 14.5 14.5V10.5C14.5 10.3674 14.4473 10.2402 14.3536 10.1464C14.2598 10.0527 14.1326 10 14 10ZM15.75 0H11.75C11.0822 0 10.7484 0.809687 11.2188 1.28125L12.3353 2.39781L4.71875 10.0116C4.64883 10.0812 4.59335 10.164 4.5555 10.2552C4.51764 10.3464 4.49816 10.4441 4.49816 10.5428C4.49816 10.6415 4.51764 10.7393 4.5555 10.8304C4.59335 10.9216 4.64883 11.0044 4.71875 11.0741L5.42719 11.7812C5.49687 11.8512 5.57966 11.9066 5.67082 11.9445C5.76199 11.9824 5.85973 12.0018 5.95844 12.0018C6.05715 12.0018 6.15489 11.9824 6.24605 11.9445C6.33722 11.9066 6.42001 11.8512 6.48969 11.7812L14.1025 4.16625L15.2188 5.28125C15.6875 5.75 16.5 5.42188 16.5 4.75V0.75C16.5 0.551088 16.421 0.360322 16.2803 0.21967C16.1397 0.0790176 15.9489 0 15.75 0V0Z" fill="#65676B"/>
</svg>
