<svg width="42" height="43" viewBox="0 0 42 43" fill="none" xmlns="http://www.w3.org/2000/svg">
<rect width="42" height="43" rx="21" fill="#B3D4FF"/>
<path d="M30.6216 33C18.8906 33.0166 9.98746 24.0068 10 12.3784C10 11.6191 10.6156 11 11.375 11H15.0041C15.6855 11 16.2644 11.5007 16.3645 12.1747C16.6043 13.7901 17.0746 15.3628 17.7612 16.8447L17.9025 17.1497C18.0989 17.5737 17.9658 18.0776 17.5854 18.3492C16.4615 19.1518 16.032 20.7674 16.9076 22.028C18.0063 23.6098 19.3914 24.9946 20.9729 26.0928C22.2334 26.9681 23.8487 26.5387 24.6513 25.4149C24.9232 25.0345 25.4272 24.9012 25.8516 25.0977L26.1551 25.2384C27.6371 25.9249 29.2099 26.3953 30.8255 26.6351C31.4995 26.7351 32 27.3139 32 27.9954V31.625C32 32.3844 31.3829 33 30.6235 33H30.6216Z" fill="#326ECF"/>
</svg>
