<svg width="331" height="117" viewBox="0 0 331 117" fill="none" xmlns="http://www.w3.org/2000/svg">
<rect width="331" height="117" rx="15" fill="white"/>
<path d="M121.819 43.6706C124.322 42.1745 126.194 39.8188 127.087 37.0432C124.736 38.4385 122.163 39.4214 119.48 39.9493C115.76 36.0145 109.867 35.057 105.093 37.6117C100.319 40.1664 97.8459 45.601 99.0561 50.8787C89.4238 50.3951 80.4496 45.8451 74.3667 38.3609C71.1921 43.8365 72.8144 50.8362 78.074 54.3571C76.1721 54.296 74.3123 53.7809 72.6498 52.8552C72.6498 52.9054 72.6498 52.9557 72.6498 53.006C72.6509 58.7096 76.6708 63.623 82.2615 64.7533C80.4973 65.2332 78.6469 65.3038 76.8513 64.9599C78.4235 69.8378 82.9191 73.1794 88.0431 73.279C83.7992 76.6098 78.5583 78.4163 73.1635 78.4073C72.2072 78.4087 71.2518 78.3537 70.302 78.2426C75.7804 81.7629 82.1565 83.6314 88.6684 83.625C97.7281 83.6872 106.434 80.1156 112.841 73.709C119.247 67.3024 122.818 58.5954 122.755 49.5359C122.755 49.0166 122.743 48.5002 122.718 47.9865C125.065 46.2909 127.089 44.1903 128.698 41.7834C126.512 42.7523 124.194 43.3884 121.819 43.6706Z" fill="#1D9BF0"/>
<path d="M159.43 46.4062V72H154.613V46.4062H159.43ZM167.375 46.4062V50.2207H146.756V46.4062H167.375ZM175.222 67.4297L179.388 52.9805H182.341L181.462 57.9727L177.261 72H174.712L175.222 67.4297ZM172.919 52.9805L176.048 67.4648L176.329 72H173.394L168.402 52.9805H172.919ZM186.208 67.2539L189.267 52.9805H193.767L188.81 72H185.874L186.208 67.2539ZM182.798 52.9805L186.929 67.2891L187.474 72H184.925L180.689 57.9727L179.827 52.9805H182.798ZM202.036 52.9805V72H197.378V52.9805H202.036ZM197.061 48.0059C197.061 47.3145 197.296 46.7402 197.764 46.2832C198.245 45.8262 198.889 45.5977 199.698 45.5977C200.506 45.5977 201.145 45.8262 201.614 46.2832C202.094 46.7402 202.335 47.3145 202.335 48.0059C202.335 48.6855 202.094 49.2539 201.614 49.7109C201.145 50.168 200.506 50.3965 199.698 50.3965C198.889 50.3965 198.245 50.168 197.764 49.7109C197.296 49.2539 197.061 48.6855 197.061 48.0059ZM216.07 52.9805V56.3203H205.172V52.9805H216.07ZM208.09 48.3047H212.748V66.5156C212.748 67.0781 212.824 67.5117 212.977 67.8164C213.129 68.1211 213.357 68.3262 213.662 68.4316C213.967 68.5371 214.33 68.5898 214.752 68.5898C215.057 68.5898 215.338 68.5723 215.596 68.5371C215.853 68.502 216.07 68.4668 216.246 68.4316L216.264 71.9121C215.877 72.041 215.437 72.1465 214.945 72.2285C214.465 72.3105 213.92 72.3516 213.31 72.3516C212.268 72.3516 211.353 72.1758 210.568 71.8242C209.783 71.4609 209.174 70.8809 208.74 70.084C208.307 69.2754 208.09 68.209 208.09 66.8848V48.3047ZM228.769 52.9805V56.3203H217.87V52.9805H228.769ZM220.788 48.3047H225.447V66.5156C225.447 67.0781 225.523 67.5117 225.675 67.8164C225.827 68.1211 226.056 68.3262 226.361 68.4316C226.665 68.5371 227.029 68.5898 227.45 68.5898C227.755 68.5898 228.036 68.5723 228.294 68.5371C228.552 68.502 228.769 68.4668 228.945 68.4316L228.962 71.9121C228.575 72.041 228.136 72.1465 227.644 72.2285C227.163 72.3105 226.618 72.3516 226.009 72.3516C224.966 72.3516 224.052 72.1758 223.267 71.8242C222.482 71.4609 221.872 70.8809 221.439 70.084C221.005 69.2754 220.788 68.209 220.788 66.8848V48.3047ZM241.01 72.3516C239.569 72.3516 238.274 72.1172 237.126 71.6484C235.977 71.1797 234.999 70.5293 234.19 69.6973C233.393 68.8535 232.778 67.875 232.344 66.7617C231.922 65.6367 231.712 64.4297 231.712 63.1406V62.4375C231.712 60.9727 231.922 59.6426 232.344 58.4473C232.766 57.2402 233.364 56.2031 234.137 55.3359C234.911 54.4688 235.837 53.8008 236.915 53.332C237.993 52.8633 239.182 52.6289 240.483 52.6289C241.831 52.6289 243.02 52.8574 244.051 53.3145C245.083 53.7598 245.944 54.3926 246.635 55.2129C247.327 56.0332 247.848 57.0176 248.2 58.166C248.551 59.3027 248.727 60.5625 248.727 61.9453V63.8965H233.821V60.6973H244.157V60.3457C244.133 59.6074 243.993 58.9336 243.735 58.3242C243.477 57.7031 243.079 57.2109 242.54 56.8477C242.001 56.4727 241.303 56.2852 240.448 56.2852C239.756 56.2852 239.153 56.4375 238.637 56.7422C238.133 57.0352 237.712 57.457 237.372 58.0078C237.044 58.5469 236.797 59.1914 236.633 59.9414C236.469 60.6914 236.387 61.5234 236.387 62.4375V63.1406C236.387 63.9375 236.493 64.6758 236.704 65.3555C236.926 66.0352 237.249 66.627 237.67 67.1309C238.104 67.623 238.62 68.0098 239.217 68.291C239.827 68.5605 240.518 68.6953 241.292 68.6953C242.264 68.6953 243.143 68.5078 243.928 68.1328C244.725 67.7461 245.417 67.1777 246.003 66.4277L248.34 68.8535C247.942 69.4395 247.403 70.002 246.723 70.541C246.055 71.0801 245.247 71.5195 244.297 71.8594C243.348 72.1875 242.253 72.3516 241.01 72.3516ZM257.084 56.8652V72H252.443V52.9805H256.838L257.084 56.8652ZM262.867 52.8574L262.797 57.1816C262.539 57.1348 262.246 57.0996 261.918 57.0762C261.601 57.0527 261.303 57.041 261.021 57.041C260.307 57.041 259.68 57.1406 259.141 57.3398C258.601 57.5273 258.15 57.8027 257.787 58.166C257.435 58.5293 257.166 58.9746 256.978 59.502C256.791 60.0176 256.685 60.6035 256.662 61.2598L255.66 61.1367C255.66 59.9297 255.783 58.8105 256.029 57.7793C256.275 56.748 256.633 55.8457 257.101 55.0723C257.57 54.2988 258.156 53.7012 258.859 53.2793C259.574 52.8457 260.394 52.6289 261.32 52.6289C261.578 52.6289 261.853 52.6523 262.146 52.6992C262.451 52.7344 262.691 52.7871 262.867 52.8574Z" fill="black"/>
<path d="M220.03 95.3322C220.03 97.5495 218.232 99.347 216.015 99.347C213.797 99.347 212 97.5495 212 95.3322C212 93.1149 213.797 91.3174 216.015 91.3174C218.232 91.3174 220.03 93.1149 220.03 95.3322Z" fill="#1F8B24"/>
<path d="M232.739 93.6995H231.526C231.455 93.3509 231.329 93.0445 231.15 92.7806C230.974 92.5166 230.759 92.295 230.505 92.1158C230.254 91.9333 229.975 91.7964 229.669 91.7052C229.363 91.6139 229.043 91.5683 228.711 91.5683C228.105 91.5683 227.556 91.7215 227.063 92.0278C226.575 92.3341 226.185 92.7855 225.895 93.3818C225.608 93.9782 225.465 94.7098 225.465 95.5766C225.465 96.4434 225.608 97.175 225.895 97.7714C226.185 98.3677 226.575 98.819 227.063 99.1254C227.556 99.4317 228.105 99.5849 228.711 99.5849C229.043 99.5849 229.363 99.5392 229.669 99.448C229.975 99.3567 230.254 99.2215 230.505 99.0423C230.759 98.8598 230.974 98.6366 231.15 98.3726C231.329 98.1054 231.455 97.7991 231.526 97.4536H232.739C232.647 97.9653 232.481 98.4231 232.24 98.8272C231.999 99.2313 231.699 99.5751 231.341 99.8586C230.982 100.139 230.58 100.352 230.133 100.499C229.69 100.646 229.216 100.719 228.711 100.719C227.857 100.719 227.098 100.51 226.433 100.093C225.768 99.6761 225.245 99.083 224.864 98.3139C224.483 97.5449 224.292 96.6324 224.292 95.5766C224.292 94.5207 224.483 93.6083 224.864 92.8392C225.245 92.0702 225.768 91.4771 226.433 91.06C227.098 90.6428 227.857 90.4343 228.711 90.4343C229.216 90.4343 229.69 90.5076 230.133 90.6542C230.58 90.8009 230.982 91.016 231.341 91.2995C231.699 91.5797 231.999 91.9219 232.24 92.326C232.481 92.7268 232.647 93.1847 232.739 93.6995ZM237.823 100.738C237.145 100.738 236.55 100.577 236.038 100.255C235.53 99.9319 235.132 99.4806 234.846 98.9005C234.562 98.3205 234.42 97.6426 234.42 96.8671C234.42 96.085 234.562 95.4022 234.846 94.8189C235.132 94.2356 235.53 93.7826 236.038 93.46C236.55 93.1374 237.145 92.9761 237.823 92.9761C238.5 92.9761 239.093 93.1374 239.602 93.46C240.113 93.7826 240.511 94.2356 240.795 94.8189C241.081 95.4022 241.225 96.085 241.225 96.8671C241.225 97.6426 241.081 98.3205 240.795 98.9005C240.511 99.4806 240.113 99.9319 239.602 100.255C239.093 100.577 238.5 100.738 237.823 100.738ZM237.823 99.7022C238.337 99.7022 238.761 99.5702 239.093 99.3062C239.426 99.0423 239.672 98.6952 239.832 98.2651C239.991 97.8349 240.071 97.3689 240.071 96.8671C240.071 96.3652 239.991 95.8976 239.832 95.4642C239.672 95.0307 239.426 94.6804 239.093 94.4132C238.761 94.146 238.337 94.0124 237.823 94.0124C237.308 94.0124 236.884 94.146 236.552 94.4132C236.219 94.6804 235.973 95.0307 235.814 95.4642C235.654 95.8976 235.574 96.3652 235.574 96.8671C235.574 97.3689 235.654 97.8349 235.814 98.2651C235.973 98.6952 236.219 99.0423 236.552 99.3062C236.884 99.5702 237.308 99.7022 237.823 99.7022ZM244.37 96.0654V100.582H243.217V93.0739H244.331V94.247H244.429C244.605 93.8657 244.872 93.5594 245.231 93.328C245.589 93.0934 246.052 92.9761 246.619 92.9761C247.127 92.9761 247.572 93.0804 247.953 93.2889C248.335 93.4942 248.631 93.8071 248.843 94.2275C249.055 94.6446 249.161 95.1725 249.161 95.8112V100.582H248.007V95.8894C248.007 95.2996 247.854 94.8401 247.548 94.511C247.241 94.1786 246.821 94.0124 246.287 94.0124C245.918 94.0124 245.589 94.0922 245.299 94.2519C245.012 94.4116 244.786 94.6446 244.62 94.9509C244.454 95.2572 244.37 95.6287 244.37 96.0654ZM252.654 96.0654V100.582H251.5V93.0739H252.615V94.247H252.712C252.888 93.8657 253.156 93.5594 253.514 93.328C253.872 93.0934 254.335 92.9761 254.902 92.9761C255.411 92.9761 255.855 93.0804 256.237 93.2889C256.618 93.4942 256.915 93.8071 257.126 94.2275C257.338 94.6446 257.444 95.1725 257.444 95.8112V100.582H256.29V95.8894C256.29 95.2996 256.137 94.8401 255.831 94.511C255.525 94.1786 255.104 94.0124 254.57 94.0124C254.202 94.0124 253.872 94.0922 253.582 94.2519C253.296 94.4116 253.069 94.6446 252.903 94.9509C252.737 95.2572 252.654 95.6287 252.654 96.0654ZM262.931 100.738C262.208 100.738 261.584 100.579 261.059 100.259C260.538 99.9368 260.135 99.4871 259.852 98.9103C259.572 98.3302 259.431 97.6557 259.431 96.8866C259.431 96.1175 259.572 95.4397 259.852 94.8531C260.135 94.2633 260.53 93.8038 261.035 93.4747C261.543 93.1423 262.136 92.9761 262.814 92.9761C263.205 92.9761 263.591 93.0413 263.972 93.1716C264.354 93.302 264.701 93.5138 265.014 93.8071C265.326 94.0971 265.576 94.4816 265.762 94.9607C265.947 95.4397 266.04 96.0296 266.04 96.7302V97.219H260.253V96.2218H264.867C264.867 95.7982 264.782 95.4202 264.613 95.0878C264.447 94.7554 264.209 94.493 263.899 94.3008C263.593 94.1085 263.231 94.0124 262.814 94.0124C262.354 94.0124 261.957 94.1264 261.621 94.3546C261.289 94.5794 261.033 94.8727 260.854 95.2344C260.675 95.5961 260.585 95.9839 260.585 96.3978V97.0626C260.585 97.6296 260.683 98.1103 260.878 98.5046C261.077 98.8956 261.352 99.1938 261.704 99.3991C262.056 99.6011 262.465 99.7022 262.931 99.7022C263.234 99.7022 263.508 99.6598 263.753 99.5751C264 99.4871 264.214 99.3567 264.393 99.184C264.572 99.0081 264.711 98.7897 264.808 98.529L265.923 98.8419C265.806 99.2199 265.608 99.5523 265.331 99.839C265.054 100.123 264.712 100.344 264.305 100.504C263.898 100.66 263.44 100.738 262.931 100.738ZM271.076 100.738C270.373 100.738 269.766 100.572 269.258 100.24C268.75 99.9075 268.359 99.4496 268.085 98.8663C267.811 98.283 267.674 97.6166 267.674 96.8671C267.674 96.1045 267.814 95.4316 268.095 94.8483C268.378 94.2617 268.772 93.8038 269.278 93.4747C269.786 93.1423 270.379 92.9761 271.057 92.9761C271.585 92.9761 272.061 93.0739 272.484 93.2694C272.908 93.4649 273.255 93.7386 273.525 94.0906C273.796 94.4425 273.964 94.8531 274.029 95.3224H272.875C272.787 94.9802 272.592 94.6772 272.289 94.4132C271.989 94.146 271.585 94.0124 271.076 94.0124C270.627 94.0124 270.232 94.1297 269.894 94.3643C269.558 94.5957 269.296 94.9232 269.107 95.3468C268.921 95.7672 268.828 96.2609 268.828 96.8279C268.828 97.408 268.919 97.9131 269.102 98.3433C269.287 98.7734 269.548 99.1074 269.884 99.3453C270.223 99.5832 270.62 99.7022 271.076 99.7022C271.376 99.7022 271.648 99.65 271.893 99.5457C272.137 99.4415 272.344 99.2916 272.514 99.096C272.683 98.9005 272.804 98.6659 272.875 98.3921H274.029C273.964 98.8353 273.802 99.2345 273.545 99.5897C273.291 99.9417 272.953 100.222 272.533 100.43C272.116 100.636 271.63 100.738 271.076 100.738ZM279.212 93.0739V94.0515H275.321V93.0739H279.212ZM276.455 91.275H277.608V98.4313C277.608 98.7571 277.656 99.0015 277.75 99.1645C277.848 99.3242 277.972 99.4317 278.122 99.4871C278.275 99.5392 278.436 99.5653 278.606 99.5653C278.733 99.5653 278.837 99.5588 278.919 99.5457C279 99.5295 279.065 99.5164 279.114 99.5066L279.349 100.543C279.27 100.572 279.161 100.602 279.021 100.631C278.881 100.664 278.703 100.68 278.488 100.68C278.162 100.68 277.843 100.61 277.53 100.47C277.221 100.329 276.963 100.116 276.758 99.8293C276.556 99.5425 276.455 99.1808 276.455 98.7441V91.275ZM284.246 100.738C283.522 100.738 282.898 100.579 282.373 100.259C281.852 99.9368 281.45 99.4871 281.166 98.9103C280.886 98.3302 280.746 97.6557 280.746 96.8866C280.746 96.1175 280.886 95.4397 281.166 94.8531C281.45 94.2633 281.844 93.8038 282.349 93.4747C282.857 93.1423 283.45 92.9761 284.128 92.9761C284.519 92.9761 284.906 93.0413 285.287 93.1716C285.668 93.302 286.015 93.5138 286.328 93.8071C286.641 94.0971 286.89 94.4816 287.076 94.9607C287.262 95.4397 287.354 96.0296 287.354 96.7302V97.219H281.567V96.2218H286.181C286.181 95.7982 286.097 95.4202 285.927 95.0878C285.761 94.7554 285.523 94.493 285.213 94.3008C284.907 94.1085 284.545 94.0124 284.128 94.0124C283.669 94.0124 283.271 94.1264 282.936 94.3546C282.603 94.5794 282.347 94.8727 282.168 95.2344C281.989 95.5961 281.899 95.9839 281.899 96.3978V97.0626C281.899 97.6296 281.997 98.1103 282.193 98.5046C282.391 98.8956 282.667 99.1938 283.019 99.3991C283.371 99.6011 283.78 99.7022 284.246 99.7022C284.549 99.7022 284.822 99.6598 285.067 99.5751C285.315 99.4871 285.528 99.3567 285.707 99.184C285.886 99.0081 286.025 98.7897 286.123 98.529L287.237 98.8419C287.12 99.2199 286.923 99.5523 286.646 99.839C286.369 100.123 286.027 100.344 285.619 100.504C285.212 100.66 284.754 100.738 284.246 100.738ZM292.176 100.738C291.55 100.738 290.998 100.58 290.519 100.264C290.04 99.9449 289.665 99.4952 289.394 98.9152C289.124 98.3319 288.989 97.6426 288.989 96.8475C288.989 96.0589 289.124 95.3745 289.394 94.7945C289.665 94.2144 290.041 93.7663 290.524 93.4502C291.006 93.1341 291.563 92.9761 292.195 92.9761C292.684 92.9761 293.07 93.0576 293.354 93.2205C293.64 93.3802 293.859 93.5627 294.009 93.768C294.162 93.97 294.281 94.1362 294.366 94.2666H294.463V90.5711H295.617V100.582H294.502V99.4284H294.366C294.281 99.5653 294.16 99.738 294.004 99.9466C293.847 100.152 293.624 100.336 293.334 100.499C293.044 100.659 292.658 100.738 292.176 100.738ZM292.332 99.7022C292.795 99.7022 293.186 99.5816 293.505 99.3404C293.825 99.096 294.067 98.7588 294.234 98.3286C294.4 97.8952 294.483 97.395 294.483 96.8279C294.483 96.2674 294.401 95.777 294.238 95.3566C294.076 94.933 293.834 94.6038 293.515 94.3692C293.196 94.1313 292.801 94.0124 292.332 94.0124C291.843 94.0124 291.436 94.1378 291.11 94.3888C290.787 94.6364 290.545 94.9737 290.382 95.4006C290.222 95.8242 290.142 96.3 290.142 96.8279C290.142 97.3624 290.224 97.8479 290.387 98.2846C290.553 98.718 290.797 99.0635 291.12 99.3209C291.446 99.5751 291.85 99.7022 292.332 99.7022Z" fill="#1F8B24"/>
</svg>
