<svg width="331" height="117" viewBox="0 0 331 117" fill="none" xmlns="http://www.w3.org/2000/svg">
<rect width="331" height="117" rx="15" fill="white"/>
<path d="M121.819 43.6708C124.322 42.1748 126.194 39.819 127.087 37.0434C124.736 38.4387 122.163 39.4216 119.48 39.9496C115.76 36.0148 109.867 35.0572 105.093 37.612C100.319 40.1667 97.8459 45.6013 99.0561 50.8789C89.4238 50.3953 80.4496 45.8453 74.3667 38.3611C71.1921 43.8367 72.8144 50.8364 78.074 54.3574C76.1721 54.2962 74.3123 53.7812 72.6498 52.8554C72.6498 52.9057 72.6498 52.956 72.6498 53.0062C72.6509 58.7099 76.6708 63.6232 82.2615 64.7535C80.4973 65.2334 78.6469 65.3041 76.8513 64.9601C78.4235 69.838 82.9191 73.1796 88.043 73.2793C83.7992 76.61 78.5583 78.4165 73.1635 78.4076C72.2072 78.409 71.2518 78.354 70.302 78.2429C75.7803 81.7632 82.1565 83.6316 88.6684 83.6252C97.7281 83.6875 106.434 80.1158 112.841 73.7092C119.247 67.3026 122.818 58.5957 122.755 49.5361C122.755 49.0169 122.743 48.5004 122.718 47.9868C125.065 46.2911 127.089 44.1905 128.698 41.7837C126.512 42.7526 124.194 43.3887 121.819 43.6708Z" fill="#1D9BF0"/>
<path d="M159.43 46.4062V72H154.613V46.4062H159.43ZM167.375 46.4062V50.2207H146.756V46.4062H167.375ZM175.222 67.4297L179.388 52.9805H182.341L181.462 57.9727L177.261 72H174.712L175.222 67.4297ZM172.919 52.9805L176.048 67.4648L176.329 72H173.394L168.402 52.9805H172.919ZM186.208 67.2539L189.267 52.9805H193.767L188.81 72H185.874L186.208 67.2539ZM182.798 52.9805L186.929 67.2891L187.474 72H184.925L180.689 57.9727L179.827 52.9805H182.798ZM202.036 52.9805V72H197.378V52.9805H202.036ZM197.061 48.0059C197.061 47.3145 197.296 46.7402 197.764 46.2832C198.245 45.8262 198.889 45.5977 199.698 45.5977C200.506 45.5977 201.145 45.8262 201.614 46.2832C202.094 46.7402 202.335 47.3145 202.335 48.0059C202.335 48.6855 202.094 49.2539 201.614 49.7109C201.145 50.168 200.506 50.3965 199.698 50.3965C198.889 50.3965 198.245 50.168 197.764 49.7109C197.296 49.2539 197.061 48.6855 197.061 48.0059ZM216.07 52.9805V56.3203H205.172V52.9805H216.07ZM208.09 48.3047H212.748V66.5156C212.748 67.0781 212.824 67.5117 212.977 67.8164C213.129 68.1211 213.357 68.3262 213.662 68.4316C213.967 68.5371 214.33 68.5898 214.752 68.5898C215.057 68.5898 215.338 68.5723 215.596 68.5371C215.853 68.502 216.07 68.4668 216.246 68.4316L216.264 71.9121C215.877 72.041 215.437 72.1465 214.945 72.2285C214.465 72.3105 213.92 72.3516 213.31 72.3516C212.268 72.3516 211.353 72.1758 210.568 71.8242C209.783 71.4609 209.174 70.8809 208.74 70.084C208.307 69.2754 208.09 68.209 208.09 66.8848V48.3047ZM228.769 52.9805V56.3203H217.87V52.9805H228.769ZM220.788 48.3047H225.447V66.5156C225.447 67.0781 225.523 67.5117 225.675 67.8164C225.827 68.1211 226.056 68.3262 226.361 68.4316C226.665 68.5371 227.029 68.5898 227.45 68.5898C227.755 68.5898 228.036 68.5723 228.294 68.5371C228.552 68.502 228.769 68.4668 228.945 68.4316L228.962 71.9121C228.575 72.041 228.136 72.1465 227.644 72.2285C227.163 72.3105 226.618 72.3516 226.009 72.3516C224.966 72.3516 224.052 72.1758 223.267 71.8242C222.482 71.4609 221.872 70.8809 221.439 70.084C221.005 69.2754 220.788 68.209 220.788 66.8848V48.3047ZM241.01 72.3516C239.569 72.3516 238.274 72.1172 237.126 71.6484C235.977 71.1797 234.999 70.5293 234.19 69.6973C233.393 68.8535 232.778 67.875 232.344 66.7617C231.922 65.6367 231.712 64.4297 231.712 63.1406V62.4375C231.712 60.9727 231.922 59.6426 232.344 58.4473C232.766 57.2402 233.364 56.2031 234.137 55.3359C234.911 54.4688 235.837 53.8008 236.915 53.332C237.993 52.8633 239.182 52.6289 240.483 52.6289C241.831 52.6289 243.02 52.8574 244.051 53.3145C245.083 53.7598 245.944 54.3926 246.635 55.2129C247.327 56.0332 247.848 57.0176 248.2 58.166C248.551 59.3027 248.727 60.5625 248.727 61.9453V63.8965H233.821V60.6973H244.157V60.3457C244.133 59.6074 243.993 58.9336 243.735 58.3242C243.477 57.7031 243.079 57.2109 242.54 56.8477C242.001 56.4727 241.303 56.2852 240.448 56.2852C239.756 56.2852 239.153 56.4375 238.637 56.7422C238.133 57.0352 237.712 57.457 237.372 58.0078C237.044 58.5469 236.797 59.1914 236.633 59.9414C236.469 60.6914 236.387 61.5234 236.387 62.4375V63.1406C236.387 63.9375 236.493 64.6758 236.704 65.3555C236.926 66.0352 237.249 66.627 237.67 67.1309C238.104 67.623 238.62 68.0098 239.217 68.291C239.827 68.5605 240.518 68.6953 241.292 68.6953C242.264 68.6953 243.143 68.5078 243.928 68.1328C244.725 67.7461 245.417 67.1777 246.003 66.4277L248.34 68.8535C247.942 69.4395 247.403 70.002 246.723 70.541C246.055 71.0801 245.247 71.5195 244.297 71.8594C243.348 72.1875 242.253 72.3516 241.01 72.3516ZM257.084 56.8652V72H252.443V52.9805H256.838L257.084 56.8652ZM262.867 52.8574L262.797 57.1816C262.539 57.1348 262.246 57.0996 261.918 57.0762C261.601 57.0527 261.303 57.041 261.021 57.041C260.307 57.041 259.68 57.1406 259.141 57.3398C258.601 57.5273 258.15 57.8027 257.787 58.166C257.435 58.5293 257.166 58.9746 256.978 59.502C256.791 60.0176 256.685 60.6035 256.662 61.2598L255.66 61.1367C255.66 59.9297 255.783 58.8105 256.029 57.7793C256.275 56.748 256.633 55.8457 257.101 55.0723C257.57 54.2988 258.156 53.7012 258.859 53.2793C259.574 52.8457 260.394 52.6289 261.32 52.6289C261.578 52.6289 261.853 52.6523 262.146 52.6992C262.451 52.7344 262.691 52.7871 262.867 52.8574Z" fill="black"/>
</svg>
