<svg width="430" height="430" viewBox="0 0 430 430" fill="none" xmlns="http://www.w3.org/2000/svg">
<path d="M145.931 428.587C156.384 428.587 164.598 420.373 164.598 409.92C164.598 399.467 156.384 391.253 145.931 391.253C83.958 391.253 37.666 341.227 37.666 275.519V153.065C37.666 89.596 89.9313 37.3307 153.401 37.3307H276.598C340.067 37.3307 392.333 89.596 392.333 153.065V276.263C392.333 341.971 346.041 391.997 284.067 391.997C273.614 391.997 265.401 400.211 265.401 410.664C265.401 421.117 273.614 429.331 284.067 429.331C365.453 429.331 429.667 362.133 429.667 276.264V153.067C429.667 68.692 360.974 0 276.601 0L153.398 0.00520833C69.0233 0.00520833 0.331299 68.6985 0.331299 153.072V276.269C0.336507 361.389 63.8007 428.589 145.931 428.589V428.587Z" fill="white"/>
<path d="M214.625 428.587C225.078 428.587 233.291 420.373 233.291 409.92V213.547L293.026 273.281C300.495 280.75 312.438 280.75 319.162 273.281C326.631 265.813 326.631 253.87 319.162 247.146L228.063 155.307C224.329 151.572 219.85 150.078 214.626 150.078C209.397 150.078 204.918 151.572 201.189 155.307L110.095 247.146C102.626 254.614 102.626 266.557 110.095 273.281C117.564 280.75 129.507 280.75 136.231 273.281L195.966 213.547V409.92C195.961 420.368 204.174 428.582 214.627 428.582L214.625 428.587Z" fill="white"/>
</svg>
