<svg width="42" height="43" viewBox="0 0 42 43" fill="none" xmlns="http://www.w3.org/2000/svg">
<rect width="42" height="43" rx="21" fill="#F0783B" fill-opacity="0.27"/>
<path d="M20.5851 12C19.5435 12 18.5447 12.4138 17.8087 13.1504C17.0724 13.8872 16.6591 14.8859 16.6595 15.9276C16.6602 16.969 17.0747 17.9675 17.8116 18.7033C18.5487 19.4391 19.5478 19.8518 20.5894 19.8507C21.6308 19.8495 22.6291 19.4346 23.3645 18.6973C24.0999 17.9599 24.5121 16.9604 24.5104 15.9188C24.5095 14.8788 24.0955 13.8813 23.3593 13.1464C22.6233 12.4115 21.6251 11.9991 20.5851 12Z" fill="#F0783B"/>
<path d="M20.8142 22.1191H20.5654H20.3554C18.7077 22.1644 13.1992 22.8784 13.1992 30.3611C13.1992 31.828 16.892 32.5613 20.5879 32.5613C24.284 32.5613 27.9737 31.828 27.9737 30.358C27.9737 22.8753 22.4683 22.1645 20.814 22.1195L20.8142 22.1191Z" fill="#F0783B"/>
</svg>
