<svg width="128" height="128" viewBox="0 0 128 128" fill="none" xmlns="http://www.w3.org/2000/svg">
<path d="M64.4959 77.1983C43.5404 77.1983 26.395 60.0529 26.395 39.0974C26.395 18.142 43.5404 0.996582 64.4959 0.996582C85.4513 0.996582 102.597 18.142 102.597 39.0974C102.597 60.0529 85.4513 77.1983 64.4959 77.1983ZM64.4959 13.6951C50.5259 13.6951 39.0957 25.1253 39.0957 39.0963C39.0957 53.0663 50.5259 64.4965 64.4959 64.4965C78.4658 64.4965 89.8961 53.0663 89.8961 39.0963C89.8961 25.1253 78.4658 13.6951 64.4959 13.6951V13.6951Z" fill="#F0783B"/>
<path d="M121.647 127.998C117.837 127.998 115.297 125.458 115.297 121.648C115.297 96.8823 95.6119 77.1978 70.8469 77.1978H58.1462C33.3807 77.1978 13.6961 96.8829 13.6961 121.648C13.6961 125.458 11.1564 127.998 7.34636 127.998C3.53627 127.998 0.996582 125.458 0.996582 121.648C0.996582 89.8962 26.3968 64.4966 58.1479 64.4966H70.8485C102.6 64.4966 128 89.8968 128 121.648C127.998 125.458 125.458 127.998 121.648 127.998H121.647Z" fill="#F0783B"/>
</svg>
