<svg width="241" height="241" viewBox="0 0 241 241" fill="none" xmlns="http://www.w3.org/2000/svg">
<rect width="241" height="241" rx="120.5" fill="white"/>
<path d="M120.496 133.198C99.5404 133.198 82.395 116.053 82.395 95.0974C82.395 74.142 99.5404 56.9966 120.496 56.9966C141.451 56.9966 158.597 74.142 158.597 95.0974C158.597 116.053 141.451 133.198 120.496 133.198ZM120.496 69.6951C106.526 69.6951 95.0957 81.1253 95.0957 95.0963C95.0957 109.066 106.526 120.497 120.496 120.497C134.466 120.497 145.896 109.066 145.896 95.0963C145.896 81.1253 134.466 69.6951 120.496 69.6951Z" fill="#F0783B"/>
<path d="M177.647 183.998C173.837 183.998 171.297 181.458 171.297 177.648C171.297 152.882 151.612 133.198 126.847 133.198H114.146C89.3807 133.198 69.6961 152.883 69.6961 177.648C69.6961 181.458 67.1564 183.998 63.3464 183.998C59.5363 183.998 56.9966 181.458 56.9966 177.648C56.9966 145.896 82.3968 120.497 114.148 120.497H126.849C158.6 120.497 184 145.897 184 177.648C183.998 181.458 181.458 183.998 177.648 183.998H177.647Z" fill="#F0783B"/>
</svg>
