<svg width="24" height="18" viewBox="0 0 24 18" fill="none" xmlns="http://www.w3.org/2000/svg">
<path d="M4.42864 0.428467C2.38753 0.428467 0.714355 2.10164 0.714355 4.14275V13.857C0.714355 15.8981 2.38753 17.5713 4.42864 17.5713H14.1429C16.184 17.5713 17.8572 15.8981 17.8572 13.857V13.0858L22.2735 15.7354C22.4036 15.8134 22.5521 15.8555 22.7038 15.8573C22.8554 15.8592 23.0049 15.8208 23.1369 15.746C23.2689 15.6712 23.3786 15.5627 23.455 15.4316C23.5313 15.3006 23.5715 15.1516 23.5715 14.9999V2.9999C23.5715 2.88514 23.5485 2.77155 23.5039 2.66586C23.4592 2.56016 23.3937 2.46451 23.3114 2.38457C23.2291 2.30464 23.1315 2.24204 23.0246 2.2005C22.9176 2.15897 22.8034 2.13933 22.6887 2.14275C22.5422 2.14714 22.3992 2.18902 22.2735 2.2644L17.8572 4.91396V4.14275C17.8572 2.10164 16.184 0.428467 14.1429 0.428467H4.42864ZM4.42864 2.14275H14.1429C15.2572 2.14275 16.1429 3.02843 16.1429 4.14275V6.40168V11.5613V13.857C16.1429 14.9714 15.2572 15.857 14.1429 15.857H4.42864C3.31432 15.857 2.42864 14.9714 2.42864 13.857V4.14275C2.42864 3.02843 3.31432 2.14275 4.42864 2.14275ZM21.8572 4.5144V13.4854L17.8572 11.0858V6.91396L21.8572 4.5144Z" fill="#9CA3AF"/>
</svg>
