<svg width="90" height="90" viewBox="0 0 90 90" fill="none" xmlns="http://www.w3.org/2000/svg">
<path d="M50.6728 51.9869L46.4162 41.3476L33.4193 74.2656H29.7066L22.2795 55.6988H0V81.6903C0 85.7744 3.34292 89.1173 7.42704 89.1173H70.5517C74.6358 89.1173 77.9787 85.7744 77.9787 81.6903V51.9849L50.6728 51.9869Z" fill="#E6C45B"/>
<path d="M27.3069 48.273L31.5635 58.9114L44.5604 25.9914H48.2731L55.7002 44.5583H77.9797V29.7058C67.7437 29.7058 59.4129 21.3766 59.4129 11.139H7.42801C3.3439 11.139 0.000976562 14.4819 0.000976562 18.566V48.2734L27.3069 48.273Z" fill="#E6C45B"/>
<path d="M89.1189 11.1398C89.1189 17.2925 84.1319 22.2795 77.9791 22.2795C71.8264 22.2795 66.8394 17.2925 66.8394 11.1398C66.8394 4.98703 71.8264 0 77.9791 0C84.1319 0 89.1189 4.98703 89.1189 11.1398Z" fill="#E6C45B"/>
</svg>
