<svg width="121" height="121" viewBox="0 0 121 121" fill="none" xmlns="http://www.w3.org/2000/svg">
<path d="M66.6728 67.9869L62.4162 57.3476L49.4193 90.2656H45.7066L38.2795 71.6988H16V97.6903C16 101.774 19.3429 105.117 23.427 105.117H86.5517C90.6358 105.117 93.9787 101.774 93.9787 97.6903V67.9849L66.6728 67.9869Z" fill="#E6C45B"/>
<path d="M43.3069 64.273L47.5635 74.9114L60.5604 41.9915H64.2731L71.7002 60.5583H93.9797V45.7058C83.7437 45.7058 75.4129 37.3766 75.4129 27.139H23.428C19.3439 27.139 16.001 30.4819 16.001 34.566V64.2734L43.3069 64.273Z" fill="#E6C45B"/>
<path d="M105.119 27.1398C105.119 33.2925 100.132 38.2795 93.9796 38.2795C87.8269 38.2795 82.8398 33.2925 82.8398 27.1398C82.8398 20.987 87.8269 16 93.9796 16C100.132 16 105.119 20.987 105.119 27.1398Z" fill="#E6C45B"/>
</svg>
