<svg width="115" height="115" viewBox="0 0 115 115" fill="none" xmlns="http://www.w3.org/2000/svg">
<path d="M68.7033 61.6651C70.7375 57.8811 71.848 53.6693 71.9441 49.3743C71.9441 34.8315 60.4658 23 46.3554 23H45.4265C31.3168 23 19.8379 34.8317 19.8379 49.3743C19.9347 53.6693 21.0452 57.8811 23.0794 61.6659C23.7173 62.937 24.4481 64.2366 25.3141 65.6383V65.6391C28.0836 70.1195 43.9343 89.6833 44.6078 90.4786C44.9275 90.8552 45.3964 91.0729 45.8909 91.0729C46.3847 91.0729 46.8544 90.8552 47.1733 90.4786C47.8464 89.6832 63.6963 70.1187 66.469 65.6372C67.3364 64.2333 68.0665 62.9344 68.7036 61.6655L68.7033 61.6651ZM63.609 63.8711C61.4097 67.4279 49.7979 82.1431 45.8915 86.7858C41.9852 82.1448 30.3734 67.4287 28.1749 63.8711C27.3615 62.555 26.6779 61.3401 26.0851 60.1591H26.0858C24.2895 56.8403 23.3013 53.1454 23.2006 49.3741C23.2006 36.6847 33.1714 26.3614 45.4276 26.3614H46.3566C58.6122 26.3614 68.5836 36.6849 68.5836 49.3741C68.4838 53.1454 67.4955 56.8394 65.6999 60.1576C65.1071 61.3371 64.4235 62.552 63.6101 63.8711H63.609Z" fill="#0094FF"/>
<path d="M45.8926 31.4053C41.2119 31.4053 36.7233 33.2647 33.4133 36.5745C30.1036 39.8842 28.2441 44.373 28.2441 49.0538C28.2441 53.7345 30.1035 58.2231 33.4133 61.533C36.7231 64.8428 41.2119 66.7022 45.8926 66.7022C50.5733 66.7022 55.062 64.8428 58.3719 61.533C61.6816 58.2233 63.5411 53.7345 63.5411 49.0538C63.5359 44.3746 61.675 39.8888 58.3659 36.5804C55.0575 33.2713 50.572 31.4105 45.8926 31.4053V31.4053ZM45.8926 63.3406C42.1032 63.3406 38.4692 61.8354 35.7905 59.1559C33.111 56.4772 31.6058 52.8432 31.6058 49.0538C31.6058 45.2643 33.111 41.6303 35.7905 38.9516C38.4692 36.2721 42.1032 34.7669 45.8926 34.7669C49.682 34.7669 53.316 36.2721 55.9948 38.9516C58.6743 41.6303 60.1795 45.2643 60.1795 49.0538C60.175 52.8416 58.669 56.4733 55.9901 59.1513C53.3122 61.83 49.6803 63.336 45.8926 63.3406V63.3406Z" fill="#0094FF"/>
<path d="M45.894 38.1279C42.9976 38.1309 40.2206 39.2835 38.1721 41.3313C36.1244 43.3797 34.9718 46.1568 34.9688 49.0532C34.9688 49.9814 35.7214 50.734 36.6496 50.734C37.5777 50.734 38.3304 49.9814 38.3304 49.0532C38.3326 47.0481 39.1303 45.1251 40.5485 43.7076C41.9659 42.2895 43.8891 41.4919 45.894 41.4895C46.8222 41.4895 47.5748 40.7369 47.5748 39.8087C47.5748 38.8805 46.8222 38.1279 45.894 38.1279Z" fill="#0094FF"/>
<path d="M72.2821 91.9229C73.2103 91.9229 73.9629 91.1702 73.9629 90.242C73.9629 89.3139 73.2103 88.5612 72.2821 88.5612L51.5419 88.5612C52.2337 89.3799 53.2159 90.5444 54.3708 91.9229L72.2821 91.9229Z" fill="#0094FF"/>
<path d="M20.6808 88.5522C19.7526 88.5522 19 89.3049 19 90.2331C19 91.1612 19.7526 91.9139 20.6808 91.9139H41.421C40.7292 91.0952 39.747 89.9307 38.5921 88.5522H20.6808Z" fill="#0094FF"/>
<g filter="url(#filter0_d_1306_8644)">
<path d="M76.2578 35.2969H96.7578L94.2578 38.2969H72.7578L76.2578 35.2969Z" fill="#1DA1F2"/>
</g>
<g filter="url(#filter1_d_1306_8644)">
<path d="M83.7578 27.2969L86.7578 24.2969V48.2969L83.7578 45.2969V27.2969Z" fill="#1DA1F2"/>
</g>
<defs>
<filter id="filter0_d_1306_8644" x="68.7578" y="35.2969" width="32" height="11" filterUnits="userSpaceOnUse" color-interpolation-filters="sRGB">
<feFlood flood-opacity="0" result="BackgroundImageFix"/>
<feColorMatrix in="SourceAlpha" type="matrix" values="0 0 0 0 0 0 0 0 0 0 0 0 0 0 0 0 0 0 127 0" result="hardAlpha"/>
<feOffset dy="4"/>
<feGaussianBlur stdDeviation="2"/>
<feComposite in2="hardAlpha" operator="out"/>
<feColorMatrix type="matrix" values="0 0 0 0 0 0 0 0 0 0 0 0 0 0 0 0 0 0 0.25 0"/>
<feBlend mode="normal" in2="BackgroundImageFix" result="effect1_dropShadow_1306_8644"/>
<feBlend mode="normal" in="SourceGraphic" in2="effect1_dropShadow_1306_8644" result="shape"/>
</filter>
<filter id="filter1_d_1306_8644" x="79.7578" y="24.2969" width="11" height="32" filterUnits="userSpaceOnUse" color-interpolation-filters="sRGB">
<feFlood flood-opacity="0" result="BackgroundImageFix"/>
<feColorMatrix in="SourceAlpha" type="matrix" values="0 0 0 0 0 0 0 0 0 0 0 0 0 0 0 0 0 0 127 0" result="hardAlpha"/>
<feOffset dy="4"/>
<feGaussianBlur stdDeviation="2"/>
<feComposite in2="hardAlpha" operator="out"/>
<feColorMatrix type="matrix" values="0 0 0 0 0 0 0 0 0 0 0 0 0 0 0 0 0 0 0.25 0"/>
<feBlend mode="normal" in2="BackgroundImageFix" result="effect1_dropShadow_1306_8644"/>
<feBlend mode="normal" in="SourceGraphic" in2="effect1_dropShadow_1306_8644" result="shape"/>
</filter>
</defs>
</svg>
