<svg width="115" height="115" viewBox="0 0 115 115" fill="none" xmlns="http://www.w3.org/2000/svg">
<path d="M53.6389 61.058C55.3741 57.8303 56.3213 54.2376 56.4032 50.5741C56.4032 38.1694 46.6124 28.0773 34.5766 28.0773H33.7842C21.7488 28.0773 11.9575 38.1695 11.9575 50.5741C12.0401 54.2376 12.9874 57.8302 14.7225 61.0586C15.2666 62.1429 15.89 63.2514 16.6286 64.4471V64.4477C18.991 68.2694 32.5114 84.957 33.0858 85.6353C33.3585 85.9566 33.7585 86.1423 34.1803 86.1423C34.6015 86.1423 35.0021 85.9567 35.2742 85.6353C35.8483 84.9569 49.368 68.2687 51.7331 64.4461C52.4729 63.2485 53.0957 62.1407 53.6391 61.0583L53.6389 61.058ZM49.2935 62.9396C47.4176 65.9735 37.5129 78.5254 34.1809 82.4855C30.8488 78.5268 20.9441 65.9742 19.0688 62.9396C18.375 61.817 17.7919 60.7807 17.2863 59.7734H17.2869C15.7546 56.9425 14.9117 53.7908 14.8259 50.5739C14.8259 39.7501 23.3307 30.9445 33.7851 30.9445H34.5775C45.0314 30.9445 53.5368 39.7502 53.5368 50.5739C53.4516 53.7908 52.6087 56.9417 51.077 59.7721C50.5714 60.7782 49.9883 61.8145 49.2945 62.9396H49.2935Z" fill="#EB600A"/>
<path d="M34.1823 35.2465C30.1897 35.2465 26.361 36.8325 23.5377 39.6557C20.7145 42.4789 19.1284 46.3077 19.1284 50.3003C19.1284 54.2929 20.7145 58.1216 23.5377 60.9449C26.3608 63.7681 30.1897 65.3542 34.1823 65.3542C38.1748 65.3542 42.0036 63.7681 44.8269 60.9449C47.6501 58.1218 49.2361 54.2929 49.2361 50.3003C49.2317 46.3091 47.6444 42.4828 44.8218 39.6608C41.9998 36.8381 38.1737 35.2509 34.1823 35.2465V35.2465ZM34.1823 62.4868C30.95 62.4868 27.8502 61.2029 25.5653 58.9173C23.2798 56.6324 21.9958 53.5326 21.9958 50.3003C21.9958 47.068 23.2797 43.9683 25.5653 41.6834C27.8502 39.3978 30.95 38.1139 34.1823 38.1139C37.4146 38.1139 40.5143 39.3978 42.7992 41.6834C45.0848 43.9683 46.3687 47.068 46.3687 50.3003C46.3649 53.5313 45.0803 56.6291 42.7953 58.9133C40.511 61.1982 37.4131 62.4828 34.1823 62.4868V62.4868Z" fill="#EB600A"/>
<path d="M34.1818 40.9812C31.7113 40.9838 29.3425 41.9669 27.5952 43.7136C25.8485 45.4609 24.8654 47.8297 24.8628 50.3003C24.8628 51.092 25.5048 51.734 26.2965 51.734C27.0882 51.734 27.7302 51.092 27.7302 50.3003C27.7321 48.59 28.4125 46.9497 29.6222 45.7406C30.8312 44.5309 32.4717 43.8506 34.1818 43.8486C34.9736 43.8486 35.6155 43.2066 35.6155 42.4149C35.6155 41.6232 34.9736 40.9812 34.1818 40.9812Z" fill="#EB600A"/>
<path d="M78.627 80.4072C79.3874 80.4065 80.1164 80.1038 80.654 79.5668C81.191 79.0292 81.4937 78.3001 81.4944 77.5398V70.3713C81.4937 69.6109 81.191 68.8819 80.654 68.3443C80.1164 67.8073 79.3873 67.5045 78.627 67.5039H74.3259C73.5655 67.5045 72.8365 67.8073 72.2989 68.3443C71.7619 68.8819 71.4591 69.6109 71.4585 70.3713V77.5398C71.4591 78.3002 71.7619 79.0292 72.2989 79.5668C72.8365 80.1038 73.5655 80.4065 74.3259 80.4072H78.627ZM74.3259 70.3713H78.627L78.6289 77.5398H74.3258L74.3259 70.3713Z" fill="#EB600A"/>
<path d="M101.566 83.9923H88.6625V63.2028H91.6726C92.3728 63.2028 93.048 62.9461 93.5723 62.4828C94.0965 62.0187 94.4331 61.3793 94.5183 60.6848C94.6034 59.9897 94.4319 59.2882 94.0357 58.7115L86.1536 47.2419C85.6185 46.463 84.7346 45.9983 83.7905 45.9983H80.7771V38.8298H85.0782C85.8386 38.8292 86.5676 38.5264 87.1052 37.9895C87.6422 37.4518 87.945 36.7228 87.9456 35.9624V33.095C87.945 32.3347 87.6422 31.6057 87.1052 31.068C86.5676 30.531 85.8386 30.2283 85.0782 30.2277H49.3062C50.432 31.093 51.4829 32.0525 52.4475 33.0951H85.0786L85.0805 35.9625H54.745C55.3767 36.8797 55.9483 37.8377 56.4558 38.8299H77.9105V45.9984H58.8628C59.0317 46.9469 59.1482 47.9045 59.2109 48.8658H83.792L91.6747 60.3354H57.1266C56.8443 60.9985 56.5448 61.6654 56.2056 62.3419C56.0622 62.6274 55.9137 62.9141 55.7601 63.2028H85.7974V83.9922H67.8753V73.2395C67.8733 71.7187 67.2685 70.2613 66.1938 69.1861C65.1186 68.1115 63.6612 67.5067 62.1405 67.5047H54.972C54.2269 67.5047 53.489 67.6506 52.7996 67.9348C51.8722 69.1925 50.651 70.7612 49.2966 72.4586C49.2589 72.7171 49.239 72.9783 49.2371 73.2394V83.9922H40.4109C39.4259 85.1679 38.5887 86.1612 37.9985 86.8596H101.566C102.358 86.8596 103 86.2176 103 85.4259C103 84.6341 102.358 83.9922 101.566 83.9922L101.566 83.9923ZM65.0072 83.9923H52.1039V73.2395C52.1046 72.4792 52.4073 71.7501 52.9443 71.2125C53.4819 70.6755 54.211 70.3728 54.9713 70.3721H62.1398C62.9002 70.3728 63.6292 70.6755 64.1668 71.2125C64.7038 71.7501 65.0066 72.4792 65.0072 73.2395L65.0072 83.9923Z" fill="#EB600A"/>
<path d="M12.6764 83.9923C11.8846 83.9923 11.2427 84.6343 11.2427 85.426C11.2427 86.2177 11.8846 86.8597 12.6764 86.8597H30.3674C29.7773 86.1614 28.9395 85.1681 27.9544 83.9923H12.6764Z" fill="#EB600A"/>
</svg>
