<svg width="79" height="93" viewBox="0 0 79 93" fill="none" xmlns="http://www.w3.org/2000/svg">
<path d="M61.364 58.0947C56.7417 58.0947 52.3087 59.9309 49.0403 63.1994C45.7718 66.468 43.9355 70.9008 43.9355 75.5232C43.9355 80.1456 45.7717 84.5785 49.0403 87.847C52.3089 91.1154 56.7417 92.9517 61.364 92.9517C65.9864 92.9517 70.4194 91.1155 73.6878 87.847C76.9562 84.5784 78.7925 80.1456 78.7925 75.5232C78.7873 70.9022 76.9492 66.4725 73.682 63.2052C70.4147 59.938 65.9851 58.0999 61.364 58.0947ZM61.364 90.0469C57.512 90.0469 53.8182 88.5167 51.0943 85.7929C48.3705 83.069 46.8403 79.3752 46.8403 75.5232C46.8403 71.6712 48.3705 67.9773 51.0943 65.2535C53.8182 62.5297 57.512 60.9995 61.364 60.9995C65.2161 60.9995 68.9099 62.5297 71.6337 65.2535C74.3575 67.9774 75.8878 71.6712 75.8878 75.5232C75.8832 79.3739 74.3518 83.0652 71.6292 85.7884C68.9061 88.5109 65.2147 90.0424 61.364 90.0469Z" fill="#5668D5"/>
<path d="M67.6351 67.926L57.1307 77.7321L53.6437 74.4637C53.0582 73.9152 52.1395 73.945 51.591 74.5298C51.0424 75.1153 51.0722 76.0341 51.6571 76.5826L56.1349 80.7809H56.1355C56.6931 81.3041 57.5607 81.3047 58.1195 80.7828L69.6179 70.0488C70.204 69.5016 70.2358 68.5829 69.6879 67.9968C69.1407 67.41 68.2219 67.3782 67.6351 67.9261L67.6351 67.926Z" fill="#5668D5"/>
<path d="M2.90555 90.0469V86.9827H44.5779C42.9349 84.5843 41.8282 81.8592 41.3334 78.9946H24.6917C23.8896 78.9946 23.2393 78.3443 23.2393 77.5422C23.2393 76.7395 23.8896 76.0899 24.6917 76.0899H41.045C41.0399 75.9012 41.0308 75.7132 41.0308 75.5232C41.0321 74.7419 41.0788 73.9612 41.1695 73.1851H24.6917C23.8896 73.1851 23.2393 72.5348 23.2393 71.7327C23.2393 70.93 23.8896 70.2803 24.6917 70.2803H41.7201C42.4275 67.6395 43.6613 65.1692 45.3484 63.0185H24.6915C23.8894 63.0185 23.2391 62.3681 23.2391 61.5661C23.2391 60.7634 23.8894 60.1137 24.6915 60.1137H48.1203C49.4593 58.9577 50.9434 57.9812 52.5352 57.209H24.6912C23.8891 57.209 23.2388 56.5587 23.2388 55.7566C23.2388 54.9539 23.8891 54.3042 24.6912 54.3042H53.0116C53.813 54.3062 54.4614 54.9552 54.464 55.7566C54.4646 56.0056 54.3991 56.2513 54.274 56.4672C57.8025 55.153 61.6273 54.8456 65.3205 55.5796L65.3568 55.5238V2.90475C65.3568 2.13447 65.0508 1.39531 64.5061 0.850676C63.9615 0.306044 63.2224 0 62.4521 0H14.0374C13.8468 0.00129676 13.6575 0.0207482 13.4707 0.0583539C13.3981 0.0726184 13.3255 0.101796 13.2529 0.12384V0.123192C13.1439 0.147182 13.0376 0.178953 12.9332 0.217855C12.8489 0.256759 12.7666 0.300848 12.6862 0.348828C12.5967 0.389028 12.5092 0.435062 12.4249 0.486285C12.2835 0.585488 12.1506 0.694414 12.0255 0.813078C12.0112 0.827342 11.9963 0.834475 11.982 0.849387L0.849396 11.982C0.728797 12.1046 0.619223 12.2388 0.522603 12.3814C0.493426 12.4249 0.472029 12.4683 0.442852 12.5124C0.377366 12.6213 0.31966 12.7303 0.261298 12.8463C0.247033 12.8898 0.224988 12.9338 0.202943 12.9844H0.203592C0.143292 13.14 0.0946636 13.3002 0.0583543 13.4636V13.4707C0.022694 13.638 0.00583545 13.8085 0.00713346 13.979C0.00713346 14.0011 0 14.0153 0 14.0374V90.0471C0 90.8174 0.306044 91.5566 0.850676 92.1012C1.39531 92.6459 2.13447 92.9519 2.90475 92.9519H50.9011C49.5428 92.1323 48.2842 91.1578 47.1509 90.0471L2.90555 90.0469ZM24.6912 22.3514H53.0116C53.8137 22.3514 54.464 23.0011 54.464 23.8037C54.464 24.6058 53.8137 25.2561 53.0116 25.2561H24.6912C23.8891 25.2561 23.2388 24.6058 23.2388 23.8037C23.2388 23.0011 23.8891 22.3514 24.6912 22.3514ZM24.6912 28.1609H53.0116C53.8137 28.1609 54.464 28.8106 54.464 29.6132C54.464 30.4153 53.8137 31.0656 53.0116 31.0656H24.6912C23.8891 31.0656 23.2388 30.4153 23.2388 29.6132C23.2388 28.8106 23.8891 28.1609 24.6912 28.1609ZM24.6912 38.3275H53.0116C53.8137 38.3275 54.464 38.9772 54.464 39.7799C54.464 40.5819 53.8137 41.2322 53.0116 41.2322H24.6912C23.8891 41.2322 23.2388 40.5819 23.2388 39.7799C23.2388 38.9772 23.8891 38.3275 24.6912 38.3275ZM24.6912 44.137H53.0116C53.8137 44.137 54.464 44.7867 54.464 45.5894C54.464 46.3914 53.8137 47.0417 53.0116 47.0417H24.6912C23.8891 47.0417 23.2388 46.3914 23.2388 45.5894C23.2388 44.7867 23.8891 44.137 24.6912 44.137ZM14.5245 81.1717C12.7915 81.1717 11.129 80.4831 9.90284 79.257C8.6774 78.0316 7.98886 76.3692 7.98886 74.636C7.98886 72.9023 8.67744 71.2398 9.90284 70.0143C11.1289 68.7888 12.7913 68.1003 14.5245 68.1003C16.2578 68.1003 17.9201 68.7889 19.1462 70.0143C20.3717 71.2397 21.0602 72.9021 21.0602 74.636C21.0576 76.3685 20.3684 78.0289 19.1429 79.2544C17.9181 80.4792 16.2569 81.169 14.5245 81.1717ZM14.5245 65.1956C12.7915 65.1956 11.129 64.507 9.90284 63.2809C8.6774 62.0555 7.98886 60.3931 7.98886 58.6599C7.98886 56.9262 8.67744 55.2637 9.90284 54.0382C11.1289 52.8127 12.7913 52.1242 14.5245 52.1242C16.2578 52.1242 17.9201 52.8128 19.1462 54.0382C20.3717 55.2636 21.0602 56.926 21.0602 58.6599C21.0576 60.3924 20.3684 62.0528 19.1429 63.2783C17.9181 64.5031 16.2569 65.1929 14.5245 65.1956ZM14.5245 49.2195C12.7915 49.2195 11.129 48.5309 9.90284 47.3048C8.6774 46.0794 7.98886 44.417 7.98886 42.6838C7.98886 40.9501 8.67744 39.2875 9.90284 38.0621C11.1289 36.8366 12.7913 36.1481 14.5245 36.1481C16.2578 36.1481 17.9201 36.8367 19.1462 38.0621C20.3717 39.2875 21.0602 40.9499 21.0602 42.6838C21.0576 44.4163 20.3684 46.0767 19.1429 47.3022C17.9181 48.5269 16.2569 49.2168 14.5245 49.2195ZM14.5245 20.172C16.2576 20.172 17.9201 20.8606 19.1462 22.086C20.3717 23.3114 21.0602 24.9738 21.0602 26.7077C21.0602 28.4407 20.3716 30.1032 19.1462 31.3287C17.9202 32.5548 16.2578 33.2433 14.5245 33.2433C12.7913 33.2433 11.129 32.5548 9.90284 31.3287C8.6774 30.1033 7.98886 28.4409 7.98886 26.7077C7.99145 24.9746 8.68069 23.3141 9.90616 22.0886C11.1309 20.8638 12.7922 20.1746 14.5245 20.172ZM14.0383 2.90285V14.0355H2.9056L14.0383 2.90285Z" fill="#5668D5"/>
<path d="M18.1564 58.6607C18.1564 60.6655 16.5309 62.2917 14.5255 62.2917C12.52 62.2917 10.8945 60.6655 10.8945 58.6607C10.8945 56.6553 12.52 55.0298 14.5255 55.0298C16.5309 55.0298 18.1564 56.6553 18.1564 58.6607Z" fill="#5668D5"/>
<path d="M18.1564 42.6846C18.1564 44.6894 16.5309 46.3155 14.5255 46.3155C12.52 46.3155 10.8945 44.6894 10.8945 42.6846C10.8945 40.6792 12.52 39.0537 14.5255 39.0537C16.5309 39.0537 18.1564 40.6792 18.1564 42.6846Z" fill="#5668D5"/>
<path d="M18.1564 74.6368C18.1564 76.6416 16.5309 78.2678 14.5255 78.2678C12.52 78.2678 10.8945 76.6416 10.8945 74.6368C10.8945 72.6314 12.52 71.0059 14.5255 71.0059C16.5309 71.0059 18.1564 72.6314 18.1564 74.6368Z" fill="#5668D5"/>
<path d="M18.1564 26.7085C18.1564 28.7133 16.5309 30.3394 14.5255 30.3394C12.52 30.3394 10.8945 28.7133 10.8945 26.7085C10.8945 24.7031 12.52 23.0776 14.5255 23.0776C16.5309 23.0776 18.1564 24.7031 18.1564 26.7085Z" fill="#5668D5"/>
</svg>
