<svg width="121" height="121" viewBox="0 0 121 121" fill="none" xmlns="http://www.w3.org/2000/svg">
<path d="M83.364 73.0947C78.7417 73.0947 74.3087 74.9309 71.0403 78.1994C67.7718 81.468 65.9355 85.9008 65.9355 90.5232C65.9355 95.1456 67.7717 99.5785 71.0403 102.847C74.3089 106.115 78.7417 107.952 83.364 107.952C87.9864 107.952 92.4194 106.116 95.6878 102.847C98.9562 99.5784 100.793 95.1456 100.793 90.5232C100.787 85.9022 98.9492 81.4725 95.682 78.2053C92.4147 74.938 87.9851 73.0999 83.364 73.0947ZM83.364 105.047C79.512 105.047 75.8182 103.517 73.0943 100.793C70.3705 98.069 68.8403 94.3752 68.8403 90.5232C68.8403 86.6712 70.3705 82.9773 73.0943 80.2535C75.8182 77.5297 79.512 75.9995 83.364 75.9995C87.2161 75.9995 90.9099 77.5297 93.6337 80.2535C96.3575 82.9774 97.8878 86.6712 97.8878 90.5232C97.8832 94.3739 96.3518 98.0653 93.6292 100.788C90.9061 103.511 87.2147 105.042 83.364 105.047Z" fill="#5668D5"/>
<path d="M89.6351 82.926L79.1307 92.7321L75.6437 89.4637C75.0582 88.9152 74.1395 88.945 73.591 89.5298C73.0424 90.1153 73.0722 91.0341 73.6571 91.5826L78.1349 95.7808H78.1355C78.6931 96.3041 79.5607 96.3047 80.1195 95.7828L91.6179 85.0488C92.204 84.5016 92.2358 83.5828 91.6879 82.9967C91.1407 82.41 90.2219 82.3782 89.6351 82.9261L89.6351 82.926Z" fill="#5668D5"/>
<path d="M24.9056 105.047V101.983H66.5779C64.9349 99.5843 63.8282 96.8592 63.3334 93.9946H46.6917C45.8896 93.9946 45.2393 93.3443 45.2393 92.5422C45.2393 91.7395 45.8896 91.0899 46.6917 91.0899H63.045C63.0399 90.9012 63.0308 90.7132 63.0308 90.5232C63.0321 89.7419 63.0788 88.9612 63.1695 88.1851H46.6917C45.8896 88.1851 45.2393 87.5348 45.2393 86.7327C45.2393 85.93 45.8896 85.2803 46.6917 85.2803H63.7201C64.4275 82.6395 65.6613 80.1692 67.3484 78.0185H46.6915C45.8894 78.0185 45.2391 77.3681 45.2391 76.5661C45.2391 75.7634 45.8894 75.1137 46.6915 75.1137H70.1203C71.4593 73.9577 72.9434 72.9812 74.5352 72.209H46.6912C45.8891 72.209 45.2388 71.5587 45.2388 70.7566C45.2388 69.9539 45.8891 69.3042 46.6912 69.3042H75.0116C75.813 69.3062 76.4614 69.9552 76.464 70.7566C76.4646 71.0056 76.3991 71.2513 76.274 71.4672C79.8025 70.153 83.6273 69.8456 87.3205 70.5796L87.3568 70.5238V17.9047C87.3568 17.1345 87.0508 16.3953 86.5061 15.8507C85.9615 15.306 85.2224 15 84.4521 15H36.0374C35.8468 15.0013 35.6575 15.0207 35.4707 15.0584C35.3981 15.0726 35.3255 15.1018 35.2529 15.1238V15.1232C35.1439 15.1472 35.0376 15.179 34.9332 15.2179C34.8489 15.2568 34.7666 15.3008 34.6862 15.3488C34.5967 15.389 34.5092 15.4351 34.4249 15.4863C34.2835 15.5855 34.1506 15.6944 34.0255 15.8131C34.0112 15.8273 33.9963 15.8345 33.982 15.8494L22.8494 26.982C22.7288 27.1046 22.6192 27.2388 22.5226 27.3814C22.4934 27.4249 22.472 27.4683 22.4429 27.5124C22.3774 27.6213 22.3197 27.7303 22.2613 27.8463C22.247 27.8898 22.225 27.9338 22.2029 27.9844H22.2036C22.1433 28.14 22.0947 28.3002 22.0584 28.4636V28.4707C22.0227 28.638 22.0058 28.8085 22.0071 28.979C22.0071 29.0011 22 29.0153 22 29.0374V105.047C22 105.817 22.306 106.557 22.8507 107.101C23.3953 107.646 24.1345 107.952 24.9047 107.952H72.9011C71.5428 107.132 70.2842 106.158 69.1509 105.047L24.9056 105.047ZM46.6912 37.3514H75.0116C75.8137 37.3514 76.464 38.0011 76.464 38.8037C76.464 39.6058 75.8137 40.2561 75.0116 40.2561H46.6912C45.8891 40.2561 45.2388 39.6058 45.2388 38.8037C45.2388 38.0011 45.8891 37.3514 46.6912 37.3514ZM46.6912 43.1609H75.0116C75.8137 43.1609 76.464 43.8106 76.464 44.6132C76.464 45.4153 75.8137 46.0656 75.0116 46.0656H46.6912C45.8891 46.0656 45.2388 45.4153 45.2388 44.6132C45.2388 43.8106 45.8891 43.1609 46.6912 43.1609ZM46.6912 53.3275H75.0116C75.8137 53.3275 76.464 53.9772 76.464 54.7799C76.464 55.5819 75.8137 56.2322 75.0116 56.2322H46.6912C45.8891 56.2322 45.2388 55.5819 45.2388 54.7799C45.2388 53.9772 45.8891 53.3275 46.6912 53.3275ZM46.6912 59.137H75.0116C75.8137 59.137 76.464 59.7867 76.464 60.5894C76.464 61.3914 75.8137 62.0417 75.0116 62.0417H46.6912C45.8891 62.0417 45.2388 61.3914 45.2388 60.5894C45.2388 59.7867 45.8891 59.137 46.6912 59.137ZM36.5245 96.1717C34.7915 96.1717 33.129 95.4831 31.9028 94.257C30.6774 93.0316 29.9889 91.3692 29.9889 89.636C29.9889 87.9023 30.6774 86.2398 31.9028 85.0143C33.1289 83.7888 34.7913 83.1003 36.5245 83.1003C38.2578 83.1003 39.9201 83.7889 41.1462 85.0143C42.3717 86.2397 43.0602 87.9021 43.0602 89.636C43.0576 91.3685 42.3684 93.0289 41.1429 94.2544C39.9181 95.4792 38.2569 96.169 36.5245 96.1717ZM36.5245 80.1956C34.7915 80.1956 33.129 79.507 31.9028 78.2809C30.6774 77.0555 29.9889 75.3931 29.9889 73.6599C29.9889 71.9262 30.6774 70.2637 31.9028 69.0382C33.1289 67.8127 34.7913 67.1242 36.5245 67.1242C38.2578 67.1242 39.9201 67.8128 41.1462 69.0382C42.3717 70.2636 43.0602 71.926 43.0602 73.6599C43.0576 75.3924 42.3684 77.0528 41.1429 78.2783C39.9181 79.5031 38.2569 80.1929 36.5245 80.1956ZM36.5245 64.2195C34.7915 64.2195 33.129 63.5309 31.9028 62.3048C30.6774 61.0794 29.9889 59.417 29.9889 57.6838C29.9889 55.9501 30.6774 54.2875 31.9028 53.0621C33.1289 51.8366 34.7913 51.1481 36.5245 51.1481C38.2578 51.1481 39.9201 51.8367 41.1462 53.0621C42.3717 54.2875 43.0602 55.9499 43.0602 57.6838C43.0576 59.4163 42.3684 61.0767 41.1429 62.3022C39.9181 63.5269 38.2569 64.2168 36.5245 64.2195ZM36.5245 35.172C38.2576 35.172 39.9201 35.8606 41.1462 37.086C42.3717 38.3114 43.0602 39.9738 43.0602 41.7077C43.0602 43.4407 42.3716 45.1032 41.1462 46.3287C39.9202 47.5548 38.2578 48.2433 36.5245 48.2433C34.7913 48.2433 33.129 47.5548 31.9028 46.3287C30.6774 45.1033 29.9889 43.4409 29.9889 41.7077C29.9915 39.9746 30.6807 38.3141 31.9062 37.0886C33.1309 35.8638 34.7922 35.1746 36.5245 35.172ZM36.0383 17.9028V29.0355H24.9056L36.0383 17.9028Z" fill="#5668D5"/>
<path d="M40.1564 73.6607C40.1564 75.6655 38.5309 77.2917 36.5255 77.2917C34.52 77.2917 32.8945 75.6655 32.8945 73.6607C32.8945 71.6553 34.52 70.0298 36.5255 70.0298C38.5309 70.0298 40.1564 71.6553 40.1564 73.6607Z" fill="#5668D5"/>
<path d="M40.1564 57.6846C40.1564 59.6894 38.5309 61.3155 36.5255 61.3155C34.52 61.3155 32.8945 59.6894 32.8945 57.6846C32.8945 55.6791 34.52 54.0536 36.5255 54.0536C38.5309 54.0536 40.1564 55.6791 40.1564 57.6846Z" fill="#5668D5"/>
<path d="M40.1564 89.6369C40.1564 91.6416 38.5309 93.2678 36.5255 93.2678C34.52 93.2678 32.8945 91.6416 32.8945 89.6369C32.8945 87.6314 34.52 86.0059 36.5255 86.0059C38.5309 86.0059 40.1564 87.6314 40.1564 89.6369Z" fill="#5668D5"/>
<path d="M40.1564 41.7085C40.1564 43.7133 38.5309 45.3394 36.5255 45.3394C34.52 45.3394 32.8945 43.7133 32.8945 41.7085C32.8945 39.7031 34.52 38.0776 36.5255 38.0776C38.5309 38.0776 40.1564 39.7031 40.1564 41.7085Z" fill="#5668D5"/>
</svg>
