<svg width="121" height="121" viewBox="0 0 121 121" fill="none" xmlns="http://www.w3.org/2000/svg">
<path d="M15 45.5V97.35C15 102.395 19.1046 106.5 24.15 106.5H97.35C102.395 106.5 106.5 102.395 106.5 97.35V45.5H15ZM73.8249 94.3L60.7495 86.4632L47.674 94.3L51.5995 79.9228L42.4495 69.4685H55.5249L60.7495 57.7002L65.974 69.4685H79.0495L69.8995 79.9228L73.8249 94.3ZM39.4 21.1H33.3V18.05C33.3 16.3732 34.6732 15 36.35 15C38.0268 15 39.4 16.3732 39.4 18.05V21.1ZM88.2 18.05C88.2 16.3732 86.8268 15 85.15 15C83.4732 15 82.1 16.3732 82.1 18.05V21.1H88.2V18.05ZM97.35 21.1H88.2V24.15C88.2 25.8268 86.8268 27.2 85.15 27.2C83.4732 27.2 82.1 25.8268 82.1 24.15V21.1H39.4V24.15C39.4 25.8268 38.0268 27.2 36.35 27.2C34.6732 27.2 33.3 25.8268 33.3 24.15V21.1H24.15C19.1161 21.1 15 25.2175 15 30.25V39.4H106.5V30.25C106.5 25.2175 102.384 21.1 97.35 21.1Z" fill="#1877F2"/>
</svg>
