<svg width="121" height="121" viewBox="0 0 121 121" fill="none" xmlns="http://www.w3.org/2000/svg">
<mask id="path-1-outside-1_276_4048" maskUnits="userSpaceOnUse" x="14" y="13" width="95" height="95" fill="black">
<rect fill="white" x="14" y="13" width="95" height="95"/>
<path d="M25.8846 59.3083C25.5462 56.8957 23.4739 55.0312 20.969 55.0312C18.2293 55.0312 16 57.2598 16 60.0002C16 62.7405 18.2293 64.9698 20.969 64.9698C23.4733 64.9698 25.5457 63.1052 25.8846 60.6927H37.7581C37.8943 65.3215 39.386 69.615 41.8544 73.187C41.8714 73.2184 41.894 73.2448 41.9159 73.2737C42.5726 74.2154 43.2977 75.105 44.083 75.938L35.68 84.3416C33.7346 82.8751 30.9508 83.022 29.1799 84.793C27.2425 86.7304 27.2425 89.8832 29.1799 91.8206C30.1486 92.7893 31.4211 93.274 32.6936 93.274C33.9662 93.274 35.2387 92.7893 36.2073 91.8206C37.9784 90.0495 38.1253 87.2659 36.6587 85.3211L45.0624 76.9175C49.072 80.6969 54.4171 83.0685 60.3076 83.242V95.1161C57.895 95.4545 56.0305 97.5268 56.0305 100.031C56.0312 102.771 58.2598 105.001 61.0002 105.001C63.7405 105.001 65.9692 102.771 65.9692 100.032C65.9692 97.5268 64.1052 95.455 61.6921 95.1167L61.6927 83.242C67.5832 83.0687 72.9289 80.6969 76.9386 76.917L85.3416 85.32C83.8751 87.2655 84.022 90.0492 85.793 91.8195C86.7617 92.7882 88.0342 93.2728 89.3067 93.2728C90.5792 93.2728 91.8518 92.7882 92.8204 91.8195C94.7579 89.8821 94.7579 86.7293 92.8204 84.7919C91.0493 83.0208 88.2658 82.8733 86.3203 84.3405L77.9173 75.9382C78.7027 75.1051 79.4271 74.2148 80.0844 73.2738C80.1064 73.2456 80.1283 73.2186 80.1459 73.1878C82.6143 69.6151 84.1061 65.3223 84.2422 60.6935H96.1163C96.4554 63.1062 98.5271 64.9706 101.031 64.9706C103.771 64.97 106 62.7407 106 60.0003C106 57.26 103.771 55.0313 101.031 55.0313C98.5264 55.0313 96.4547 56.896 96.1163 59.3084H84.2416C84.0683 53.4179 81.6965 48.0722 77.9166 44.0625L86.319 35.6602C87.1759 36.3081 88.2124 36.664 89.3054 36.664H89.306C90.6338 36.664 91.8812 36.1474 92.8197 35.2082C94.7571 33.2707 94.7571 30.118 92.8197 28.1806C90.8823 26.2432 87.7296 26.2438 85.7921 28.1806C84.0211 29.9517 83.8742 32.7352 85.3408 34.6807L76.9378 43.0837C72.9287 39.3037 67.583 36.9326 61.6925 36.7587V24.8846C64.1051 24.5462 65.9696 22.4739 65.9696 19.9696C65.969 17.2293 63.7403 15 60.9999 15C58.2596 15 56.031 17.2293 56.031 19.9696C56.031 22.4745 57.8949 24.5463 60.3081 24.8846V36.7587C54.4175 36.932 49.0718 39.3038 45.0628 43.0832L36.6585 34.6802C38.125 32.7348 37.9781 29.951 36.2071 28.1801C34.2697 26.2427 31.1169 26.2433 29.1795 28.1801C27.2421 30.1175 27.2421 33.2703 29.1795 35.2077C30.1181 36.1462 31.3661 36.6635 32.6932 36.6635C33.7862 36.6635 34.8227 36.3082 35.6796 35.6597L44.0826 44.062C40.3026 48.0717 37.931 53.4174 37.7577 59.308L25.8846 59.3083ZM20.969 63.5848C18.9927 63.5848 17.3849 61.977 17.3849 60C17.3849 58.0237 18.9927 56.4153 20.9696 56.4153C22.9466 56.4153 24.5544 58.0231 24.5544 60C24.5544 61.977 22.946 63.5848 20.969 63.5848ZM35.2288 90.8405C33.8307 92.2386 31.5561 92.2373 30.1593 90.8405C28.7619 89.4424 28.7619 87.1684 30.1593 85.771C30.8581 85.0723 31.776 84.7226 32.6943 84.7226C33.6096 84.7226 34.5256 85.071 35.2236 85.7666C35.2255 85.7685 35.2261 85.771 35.2274 85.7729C35.2293 85.7748 35.2318 85.7754 35.233 85.7767C36.6255 87.1748 36.6242 89.4442 35.2287 90.8405L35.2288 90.8405ZM86.7669 85.7766C86.7688 85.7748 86.7713 85.7748 86.7726 85.7729C86.7745 85.771 86.7751 85.7685 86.7764 85.7666C87.4745 85.071 88.3898 84.7226 89.3057 84.7226C90.2235 84.7226 91.142 85.0723 91.8406 85.771C93.2381 87.1691 93.2381 89.443 91.8406 90.8404C90.4438 92.2379 88.1693 92.2385 86.7712 90.8404C85.3763 89.4442 85.375 87.1747 86.7668 85.7766L86.7669 85.7766ZM101.032 56.414C103.008 56.414 104.616 58.0224 104.616 59.9987C104.616 61.9757 103.008 63.5835 101.031 63.5835C99.0547 63.5835 97.4469 61.9757 97.4469 59.9987C97.4469 58.0224 99.0547 56.414 101.032 56.414ZM86.7719 29.1583C87.4707 28.4596 88.3886 28.1099 89.3064 28.1099C90.2242 28.1099 91.1427 28.4596 91.8414 29.1583C93.2388 30.5564 93.2388 32.8303 91.8414 34.2277C91.164 34.9051 90.2643 35.2774 89.3069 35.2774C88.3514 35.2774 87.453 34.9057 86.7763 34.2309C86.775 34.2296 86.7744 34.2277 86.7731 34.2265C86.7719 34.2252 86.77 34.2246 86.7681 34.2233C85.375 32.8259 85.3756 30.5545 86.7719 29.1582L86.7719 29.1583ZM35.2321 34.224C35.2309 34.2253 35.229 34.2259 35.2271 34.2272C35.2259 34.2284 35.2252 34.2303 35.224 34.2316C34.5472 34.9058 33.6495 35.2781 32.6934 35.2781C31.736 35.2781 30.8357 34.9052 30.1589 34.2284C28.7614 32.8303 28.7614 30.5564 30.1589 29.159C30.8583 28.4603 31.7755 28.1106 32.6938 28.1106C33.6117 28.1106 34.5295 28.4603 35.2283 29.159C36.6245 30.5546 36.6252 32.8259 35.2321 34.2241L35.2321 34.224ZM64.5852 100.03C64.5852 102.007 62.9767 103.615 61.0004 103.615C59.0241 103.615 57.4157 102.007 57.4157 100.03C57.4157 98.0535 59.0241 96.4457 61.0004 96.4457C62.9767 96.4457 64.5852 98.0535 64.5852 100.03ZM61.0004 81.8745C53.7393 81.8745 47.2969 78.3154 43.3153 72.8531C47.4261 67.1967 53.9953 63.8292 61.0004 63.8292C68.0055 63.8292 74.574 67.1973 78.6855 72.8531C74.7046 78.3148 68.2623 81.8745 61.0004 81.8745ZM54.0344 55.477C54.0344 51.6356 57.1595 48.511 61.0004 48.511C64.8418 48.511 67.9671 51.6361 67.9671 55.477C67.9671 59.3184 64.842 62.4437 61.0004 62.4437C57.1589 62.4437 54.0344 59.3186 54.0344 55.477ZM57.4157 19.9686C57.4157 17.9916 59.0241 16.3839 61.0004 16.3839C62.9767 16.3839 64.5852 17.9916 64.5852 19.9686C64.5852 21.9449 62.9774 23.5534 61.0004 23.5534C59.0241 23.5534 57.4157 21.9449 57.4157 19.9686ZM61.0004 38.1246C73.0623 38.1246 82.8754 47.9371 82.8754 59.9995C82.8754 64.2749 81.6374 68.2651 79.5086 71.6382C75.9395 66.9416 70.7464 63.8046 65.0116 62.7982C67.5955 61.3769 69.3522 58.6285 69.3522 55.4769C69.3522 50.8727 65.606 47.1259 61.0012 47.1259C56.3971 47.1259 52.6503 50.872 52.6503 55.4769C52.6503 58.629 54.4063 61.3769 56.9909 62.7982C51.2553 63.804 46.0629 66.9416 42.4933 71.6382C40.3638 68.2651 39.1258 64.2749 39.1258 59.9995C39.1258 47.9377 48.9389 38.1246 61.0007 38.1246H61.0004Z"/>
</mask>
<path d="M25.8846 59.3083C25.5462 56.8957 23.4739 55.0312 20.969 55.0312C18.2293 55.0312 16 57.2598 16 60.0002C16 62.7405 18.2293 64.9698 20.969 64.9698C23.4733 64.9698 25.5457 63.1052 25.8846 60.6927H37.7581C37.8943 65.3215 39.386 69.615 41.8544 73.187C41.8714 73.2184 41.894 73.2448 41.9159 73.2737C42.5726 74.2154 43.2977 75.105 44.083 75.938L35.68 84.3416C33.7346 82.8751 30.9508 83.022 29.1799 84.793C27.2425 86.7304 27.2425 89.8832 29.1799 91.8206C30.1486 92.7893 31.4211 93.274 32.6936 93.274C33.9662 93.274 35.2387 92.7893 36.2073 91.8206C37.9784 90.0495 38.1253 87.2659 36.6587 85.3211L45.0624 76.9175C49.072 80.6969 54.4171 83.0685 60.3076 83.242V95.1161C57.895 95.4545 56.0305 97.5268 56.0305 100.031C56.0312 102.771 58.2598 105.001 61.0002 105.001C63.7405 105.001 65.9692 102.771 65.9692 100.032C65.9692 97.5268 64.1052 95.455 61.6921 95.1167L61.6927 83.242C67.5832 83.0687 72.9289 80.6969 76.9386 76.917L85.3416 85.32C83.8751 87.2655 84.022 90.0492 85.793 91.8195C86.7617 92.7882 88.0342 93.2728 89.3067 93.2728C90.5792 93.2728 91.8518 92.7882 92.8204 91.8195C94.7579 89.8821 94.7579 86.7293 92.8204 84.7919C91.0493 83.0208 88.2658 82.8733 86.3203 84.3405L77.9173 75.9382C78.7027 75.1051 79.4271 74.2148 80.0844 73.2738C80.1064 73.2456 80.1283 73.2186 80.1459 73.1878C82.6143 69.6151 84.1061 65.3223 84.2422 60.6935H96.1163C96.4554 63.1062 98.5271 64.9706 101.031 64.9706C103.771 64.97 106 62.7407 106 60.0003C106 57.26 103.771 55.0313 101.031 55.0313C98.5264 55.0313 96.4547 56.896 96.1163 59.3084H84.2416C84.0683 53.4179 81.6965 48.0722 77.9166 44.0625L86.319 35.6602C87.1759 36.3081 88.2124 36.664 89.3054 36.664H89.306C90.6338 36.664 91.8812 36.1474 92.8197 35.2082C94.7571 33.2707 94.7571 30.118 92.8197 28.1806C90.8823 26.2432 87.7296 26.2438 85.7921 28.1806C84.0211 29.9517 83.8742 32.7352 85.3408 34.6807L76.9378 43.0837C72.9287 39.3037 67.583 36.9326 61.6925 36.7587V24.8846C64.1051 24.5462 65.9696 22.4739 65.9696 19.9696C65.969 17.2293 63.7403 15 60.9999 15C58.2596 15 56.031 17.2293 56.031 19.9696C56.031 22.4745 57.8949 24.5463 60.3081 24.8846V36.7587C54.4175 36.932 49.0718 39.3038 45.0628 43.0832L36.6585 34.6802C38.125 32.7348 37.9781 29.951 36.2071 28.1801C34.2697 26.2427 31.1169 26.2433 29.1795 28.1801C27.2421 30.1175 27.2421 33.2703 29.1795 35.2077C30.1181 36.1462 31.3661 36.6635 32.6932 36.6635C33.7862 36.6635 34.8227 36.3082 35.6796 35.6597L44.0826 44.062C40.3026 48.0717 37.931 53.4174 37.7577 59.308L25.8846 59.3083ZM20.969 63.5848C18.9927 63.5848 17.3849 61.977 17.3849 60C17.3849 58.0237 18.9927 56.4153 20.9696 56.4153C22.9466 56.4153 24.5544 58.0231 24.5544 60C24.5544 61.977 22.946 63.5848 20.969 63.5848ZM35.2288 90.8405C33.8307 92.2386 31.5561 92.2373 30.1593 90.8405C28.7619 89.4424 28.7619 87.1684 30.1593 85.771C30.8581 85.0723 31.776 84.7226 32.6943 84.7226C33.6096 84.7226 34.5256 85.071 35.2236 85.7666C35.2255 85.7685 35.2261 85.771 35.2274 85.7729C35.2293 85.7748 35.2318 85.7754 35.233 85.7767C36.6255 87.1748 36.6242 89.4442 35.2287 90.8405L35.2288 90.8405ZM86.7669 85.7766C86.7688 85.7748 86.7713 85.7748 86.7726 85.7729C86.7745 85.771 86.7751 85.7685 86.7764 85.7666C87.4745 85.071 88.3898 84.7226 89.3057 84.7226C90.2235 84.7226 91.142 85.0723 91.8406 85.771C93.2381 87.1691 93.2381 89.443 91.8406 90.8404C90.4438 92.2379 88.1693 92.2385 86.7712 90.8404C85.3763 89.4442 85.375 87.1747 86.7668 85.7766L86.7669 85.7766ZM101.032 56.414C103.008 56.414 104.616 58.0224 104.616 59.9987C104.616 61.9757 103.008 63.5835 101.031 63.5835C99.0547 63.5835 97.4469 61.9757 97.4469 59.9987C97.4469 58.0224 99.0547 56.414 101.032 56.414ZM86.7719 29.1583C87.4707 28.4596 88.3886 28.1099 89.3064 28.1099C90.2242 28.1099 91.1427 28.4596 91.8414 29.1583C93.2388 30.5564 93.2388 32.8303 91.8414 34.2277C91.164 34.9051 90.2643 35.2774 89.3069 35.2774C88.3514 35.2774 87.453 34.9057 86.7763 34.2309C86.775 34.2296 86.7744 34.2277 86.7731 34.2265C86.7719 34.2252 86.77 34.2246 86.7681 34.2233C85.375 32.8259 85.3756 30.5545 86.7719 29.1582L86.7719 29.1583ZM35.2321 34.224C35.2309 34.2253 35.229 34.2259 35.2271 34.2272C35.2259 34.2284 35.2252 34.2303 35.224 34.2316C34.5472 34.9058 33.6495 35.2781 32.6934 35.2781C31.736 35.2781 30.8357 34.9052 30.1589 34.2284C28.7614 32.8303 28.7614 30.5564 30.1589 29.159C30.8583 28.4603 31.7755 28.1106 32.6938 28.1106C33.6117 28.1106 34.5295 28.4603 35.2283 29.159C36.6245 30.5546 36.6252 32.8259 35.2321 34.2241L35.2321 34.224ZM64.5852 100.03C64.5852 102.007 62.9767 103.615 61.0004 103.615C59.0241 103.615 57.4157 102.007 57.4157 100.03C57.4157 98.0535 59.0241 96.4457 61.0004 96.4457C62.9767 96.4457 64.5852 98.0535 64.5852 100.03ZM61.0004 81.8745C53.7393 81.8745 47.2969 78.3154 43.3153 72.8531C47.4261 67.1967 53.9953 63.8292 61.0004 63.8292C68.0055 63.8292 74.574 67.1973 78.6855 72.8531C74.7046 78.3148 68.2623 81.8745 61.0004 81.8745ZM54.0344 55.477C54.0344 51.6356 57.1595 48.511 61.0004 48.511C64.8418 48.511 67.9671 51.6361 67.9671 55.477C67.9671 59.3184 64.842 62.4437 61.0004 62.4437C57.1589 62.4437 54.0344 59.3186 54.0344 55.477ZM57.4157 19.9686C57.4157 17.9916 59.0241 16.3839 61.0004 16.3839C62.9767 16.3839 64.5852 17.9916 64.5852 19.9686C64.5852 21.9449 62.9774 23.5534 61.0004 23.5534C59.0241 23.5534 57.4157 21.9449 57.4157 19.9686ZM61.0004 38.1246C73.0623 38.1246 82.8754 47.9371 82.8754 59.9995C82.8754 64.2749 81.6374 68.2651 79.5086 71.6382C75.9395 66.9416 70.7464 63.8046 65.0116 62.7982C67.5955 61.3769 69.3522 58.6285 69.3522 55.4769C69.3522 50.8727 65.606 47.1259 61.0012 47.1259C56.3971 47.1259 52.6503 50.872 52.6503 55.4769C52.6503 58.629 54.4063 61.3769 56.9909 62.7982C51.2553 63.804 46.0629 66.9416 42.4933 71.6382C40.3638 68.2651 39.1258 64.2749 39.1258 59.9995C39.1258 47.9377 48.9389 38.1246 61.0007 38.1246H61.0004Z" fill="#1877F2"/>
<path d="M25.8846 59.3083C25.5462 56.8957 23.4739 55.0312 20.969 55.0312C18.2293 55.0312 16 57.2598 16 60.0002C16 62.7405 18.2293 64.9698 20.969 64.9698C23.4733 64.9698 25.5457 63.1052 25.8846 60.6927H37.7581C37.8943 65.3215 39.386 69.615 41.8544 73.187C41.8714 73.2184 41.894 73.2448 41.9159 73.2737C42.5726 74.2154 43.2977 75.105 44.083 75.938L35.68 84.3416C33.7346 82.8751 30.9508 83.022 29.1799 84.793C27.2425 86.7304 27.2425 89.8832 29.1799 91.8206C30.1486 92.7893 31.4211 93.274 32.6936 93.274C33.9662 93.274 35.2387 92.7893 36.2073 91.8206C37.9784 90.0495 38.1253 87.2659 36.6587 85.3211L45.0624 76.9175C49.072 80.6969 54.4171 83.0685 60.3076 83.242V95.1161C57.895 95.4545 56.0305 97.5268 56.0305 100.031C56.0312 102.771 58.2598 105.001 61.0002 105.001C63.7405 105.001 65.9692 102.771 65.9692 100.032C65.9692 97.5268 64.1052 95.455 61.6921 95.1167L61.6927 83.242C67.5832 83.0687 72.9289 80.6969 76.9386 76.917L85.3416 85.32C83.8751 87.2655 84.022 90.0492 85.793 91.8195C86.7617 92.7882 88.0342 93.2728 89.3067 93.2728C90.5792 93.2728 91.8518 92.7882 92.8204 91.8195C94.7579 89.8821 94.7579 86.7293 92.8204 84.7919C91.0493 83.0208 88.2658 82.8733 86.3203 84.3405L77.9173 75.9382C78.7027 75.1051 79.4271 74.2148 80.0844 73.2738C80.1064 73.2456 80.1283 73.2186 80.1459 73.1878C82.6143 69.6151 84.1061 65.3223 84.2422 60.6935H96.1163C96.4554 63.1062 98.5271 64.9706 101.031 64.9706C103.771 64.97 106 62.7407 106 60.0003C106 57.26 103.771 55.0313 101.031 55.0313C98.5264 55.0313 96.4547 56.896 96.1163 59.3084H84.2416C84.0683 53.4179 81.6965 48.0722 77.9166 44.0625L86.319 35.6602C87.1759 36.3081 88.2124 36.664 89.3054 36.664H89.306C90.6338 36.664 91.8812 36.1474 92.8197 35.2082C94.7571 33.2707 94.7571 30.118 92.8197 28.1806C90.8823 26.2432 87.7296 26.2438 85.7921 28.1806C84.0211 29.9517 83.8742 32.7352 85.3408 34.6807L76.9378 43.0837C72.9287 39.3037 67.583 36.9326 61.6925 36.7587V24.8846C64.1051 24.5462 65.9696 22.4739 65.9696 19.9696C65.969 17.2293 63.7403 15 60.9999 15C58.2596 15 56.031 17.2293 56.031 19.9696C56.031 22.4745 57.8949 24.5463 60.3081 24.8846V36.7587C54.4175 36.932 49.0718 39.3038 45.0628 43.0832L36.6585 34.6802C38.125 32.7348 37.9781 29.951 36.2071 28.1801C34.2697 26.2427 31.1169 26.2433 29.1795 28.1801C27.2421 30.1175 27.2421 33.2703 29.1795 35.2077C30.1181 36.1462 31.3661 36.6635 32.6932 36.6635C33.7862 36.6635 34.8227 36.3082 35.6796 35.6597L44.0826 44.062C40.3026 48.0717 37.931 53.4174 37.7577 59.308L25.8846 59.3083ZM20.969 63.5848C18.9927 63.5848 17.3849 61.977 17.3849 60C17.3849 58.0237 18.9927 56.4153 20.9696 56.4153C22.9466 56.4153 24.5544 58.0231 24.5544 60C24.5544 61.977 22.946 63.5848 20.969 63.5848ZM35.2288 90.8405C33.8307 92.2386 31.5561 92.2373 30.1593 90.8405C28.7619 89.4424 28.7619 87.1684 30.1593 85.771C30.8581 85.0723 31.776 84.7226 32.6943 84.7226C33.6096 84.7226 34.5256 85.071 35.2236 85.7666C35.2255 85.7685 35.2261 85.771 35.2274 85.7729C35.2293 85.7748 35.2318 85.7754 35.233 85.7767C36.6255 87.1748 36.6242 89.4442 35.2287 90.8405L35.2288 90.8405ZM86.7669 85.7766C86.7688 85.7748 86.7713 85.7748 86.7726 85.7729C86.7745 85.771 86.7751 85.7685 86.7764 85.7666C87.4745 85.071 88.3898 84.7226 89.3057 84.7226C90.2235 84.7226 91.142 85.0723 91.8406 85.771C93.2381 87.1691 93.2381 89.443 91.8406 90.8404C90.4438 92.2379 88.1693 92.2385 86.7712 90.8404C85.3763 89.4442 85.375 87.1747 86.7668 85.7766L86.7669 85.7766ZM101.032 56.414C103.008 56.414 104.616 58.0224 104.616 59.9987C104.616 61.9757 103.008 63.5835 101.031 63.5835C99.0547 63.5835 97.4469 61.9757 97.4469 59.9987C97.4469 58.0224 99.0547 56.414 101.032 56.414ZM86.7719 29.1583C87.4707 28.4596 88.3886 28.1099 89.3064 28.1099C90.2242 28.1099 91.1427 28.4596 91.8414 29.1583C93.2388 30.5564 93.2388 32.8303 91.8414 34.2277C91.164 34.9051 90.2643 35.2774 89.3069 35.2774C88.3514 35.2774 87.453 34.9057 86.7763 34.2309C86.775 34.2296 86.7744 34.2277 86.7731 34.2265C86.7719 34.2252 86.77 34.2246 86.7681 34.2233C85.375 32.8259 85.3756 30.5545 86.7719 29.1582L86.7719 29.1583ZM35.2321 34.224C35.2309 34.2253 35.229 34.2259 35.2271 34.2272C35.2259 34.2284 35.2252 34.2303 35.224 34.2316C34.5472 34.9058 33.6495 35.2781 32.6934 35.2781C31.736 35.2781 30.8357 34.9052 30.1589 34.2284C28.7614 32.8303 28.7614 30.5564 30.1589 29.159C30.8583 28.4603 31.7755 28.1106 32.6938 28.1106C33.6117 28.1106 34.5295 28.4603 35.2283 29.159C36.6245 30.5546 36.6252 32.8259 35.2321 34.2241L35.2321 34.224ZM64.5852 100.03C64.5852 102.007 62.9767 103.615 61.0004 103.615C59.0241 103.615 57.4157 102.007 57.4157 100.03C57.4157 98.0535 59.0241 96.4457 61.0004 96.4457C62.9767 96.4457 64.5852 98.0535 64.5852 100.03ZM61.0004 81.8745C53.7393 81.8745 47.2969 78.3154 43.3153 72.8531C47.4261 67.1967 53.9953 63.8292 61.0004 63.8292C68.0055 63.8292 74.574 67.1973 78.6855 72.8531C74.7046 78.3148 68.2623 81.8745 61.0004 81.8745ZM54.0344 55.477C54.0344 51.6356 57.1595 48.511 61.0004 48.511C64.8418 48.511 67.9671 51.6361 67.9671 55.477C67.9671 59.3184 64.842 62.4437 61.0004 62.4437C57.1589 62.4437 54.0344 59.3186 54.0344 55.477ZM57.4157 19.9686C57.4157 17.9916 59.0241 16.3839 61.0004 16.3839C62.9767 16.3839 64.5852 17.9916 64.5852 19.9686C64.5852 21.9449 62.9774 23.5534 61.0004 23.5534C59.0241 23.5534 57.4157 21.9449 57.4157 19.9686ZM61.0004 38.1246C73.0623 38.1246 82.8754 47.9371 82.8754 59.9995C82.8754 64.2749 81.6374 68.2651 79.5086 71.6382C75.9395 66.9416 70.7464 63.8046 65.0116 62.7982C67.5955 61.3769 69.3522 58.6285 69.3522 55.4769C69.3522 50.8727 65.606 47.1259 61.0012 47.1259C56.3971 47.1259 52.6503 50.872 52.6503 55.4769C52.6503 58.629 54.4063 61.3769 56.9909 62.7982C51.2553 63.804 46.0629 66.9416 42.4933 71.6382C40.3638 68.2651 39.1258 64.2749 39.1258 59.9995C39.1258 47.9377 48.9389 38.1246 61.0007 38.1246H61.0004Z" stroke="#1877F2" stroke-width="4" mask="url(#path-1-outside-1_276_4048)"/>
</svg>
