<svg width="94" height="94" viewBox="0 0 94 94" fill="none" xmlns="http://www.w3.org/2000/svg">
<mask id="path-1-outside-1_77_4569" maskUnits="userSpaceOnUse" x="0" y="0" width="95" height="95" fill="black">
<rect fill="white" width="95" height="95"/>
<path d="M11.8846 46.3083C11.5462 43.8957 9.4739 42.0312 6.96899 42.0312C4.22928 42.0312 2 44.2598 2 47.0002C2 49.7405 4.22928 51.9698 6.96899 51.9698C9.47326 51.9698 11.5457 50.1052 11.8846 47.6927H23.7581C23.8943 52.3215 25.386 56.615 27.8544 60.187C27.8714 60.2184 27.894 60.2448 27.9159 60.2737C28.5726 61.2154 29.2977 62.105 30.083 62.938L21.68 71.3416C19.7346 69.8751 16.9508 70.022 15.1799 71.793C13.2425 73.7304 13.2425 76.8832 15.1799 78.8206C16.1486 79.7893 17.4211 80.274 18.6936 80.274C19.9662 80.274 21.2387 79.7893 22.2073 78.8206C23.9784 77.0495 24.1253 74.2659 22.6587 72.3211L31.0624 63.9175C35.072 67.6969 40.4171 70.0685 46.3076 70.242V82.1161C43.895 82.4545 42.0305 84.5268 42.0305 87.0311C42.0312 89.7714 44.2598 92.0007 47.0002 92.0007C49.7405 92.0007 51.9692 89.7714 51.9692 87.0317C51.9692 84.5268 50.1052 82.455 47.6921 82.1167L47.6927 70.242C53.5832 70.0687 58.9289 67.6969 62.9386 63.917L71.3416 72.32C69.8751 74.2655 70.022 77.0492 71.793 78.8195C72.7617 79.7882 74.0342 80.2728 75.3067 80.2728C76.5792 80.2728 77.8518 79.7882 78.8204 78.8195C80.7579 76.8821 80.7579 73.7293 78.8204 71.7919C77.0493 70.0208 74.2658 69.8733 72.3203 71.3405L63.9173 62.9382C64.7027 62.1051 65.4271 61.2148 66.0844 60.2738C66.1064 60.2456 66.1283 60.2186 66.1459 60.1878C68.6143 56.6151 70.1061 52.3223 70.2422 47.6935H82.1163C82.4554 50.1062 84.5271 51.9706 87.0313 51.9706C89.771 51.97 92.0003 49.7407 92.0003 47.0003C92.0003 44.26 89.771 42.0313 87.0313 42.0313C84.5264 42.0313 82.4547 43.896 82.1163 46.3084H70.2416C70.0683 40.4179 67.6965 35.0722 63.9166 31.0625L72.319 22.6602C73.1759 23.3081 74.2124 23.664 75.3054 23.664H75.306C76.6338 23.664 77.8812 23.1474 78.8197 22.2082C80.7571 20.2707 80.7571 17.118 78.8197 15.1806C76.8823 13.2432 73.7296 13.2438 71.7921 15.1806C70.0211 16.9517 69.8742 19.7352 71.3408 21.6807L62.9378 30.0837C58.9287 26.3037 53.583 23.9326 47.6925 23.7587V11.8846C50.1051 11.5462 51.9696 9.4739 51.9696 6.96964C51.969 4.22928 49.7403 2 46.9999 2C44.2596 2 42.031 4.22928 42.031 6.96964C42.031 9.47454 43.8949 11.5463 46.3081 11.8846V23.7587C40.4175 23.932 35.0718 26.3038 31.0628 30.0832L22.6585 21.6802C24.125 19.7348 23.9781 16.951 22.2071 15.1801C20.2697 13.2427 17.1169 13.2433 15.1795 15.1801C13.2421 17.1175 13.2421 20.2703 15.1795 22.2077C16.1181 23.1462 17.3661 23.6635 18.6932 23.6635C19.7862 23.6635 20.8227 23.3082 21.6796 22.6597L30.0826 31.062C26.3026 35.0717 23.931 40.4174 23.7577 46.308L11.8846 46.3083ZM6.96899 50.5848C4.99268 50.5848 3.38488 48.977 3.38488 47C3.38488 45.0237 4.99268 43.4153 6.96964 43.4153C8.94659 43.4153 10.5544 45.0231 10.5544 47C10.5544 48.977 8.94595 50.5848 6.96899 50.5848ZM21.2288 77.8405C19.8307 79.2386 17.5561 79.2373 16.1593 77.8405C14.7619 76.4424 14.7619 74.1684 16.1593 72.771C16.8581 72.0723 17.776 71.7226 18.6943 71.7226C19.6096 71.7226 20.5256 72.071 21.2236 72.7666C21.2255 72.7685 21.2261 72.771 21.2274 72.7729C21.2293 72.7748 21.2318 72.7754 21.233 72.7767C22.6255 74.1748 22.6242 76.4442 21.2287 77.8405L21.2288 77.8405ZM72.7669 72.7766C72.7688 72.7748 72.7713 72.7748 72.7726 72.7729C72.7745 72.771 72.7751 72.7685 72.7764 72.7666C73.4745 72.071 74.3898 71.7226 75.3057 71.7226C76.2235 71.7226 77.142 72.0723 77.8406 72.771C79.2381 74.1691 79.2381 76.443 77.8406 77.8404C76.4438 79.2379 74.1693 79.2385 72.7712 77.8404C71.3763 76.4442 71.375 74.1747 72.7668 72.7766L72.7669 72.7766ZM87.0317 43.414C89.008 43.414 90.6158 45.0224 90.6158 46.9987C90.6158 48.9757 89.008 50.5835 87.0311 50.5835C85.0547 50.5835 83.4469 48.9757 83.4469 46.9987C83.4469 45.0224 85.0547 43.414 87.0317 43.414ZM72.7719 16.1583C73.4707 15.4596 74.3886 15.1099 75.3064 15.1099C76.2242 15.1099 77.1427 15.4596 77.8414 16.1583C79.2388 17.5564 79.2388 19.8303 77.8414 21.2277C77.164 21.9051 76.2643 22.2774 75.3069 22.2774C74.3514 22.2774 73.453 21.9057 72.7763 21.2309C72.775 21.2296 72.7744 21.2277 72.7731 21.2265C72.7719 21.2252 72.77 21.2246 72.7681 21.2233C71.375 19.8259 71.3756 17.5545 72.7719 16.1582L72.7719 16.1583ZM21.2321 21.224C21.2309 21.2253 21.229 21.2259 21.2271 21.2272C21.2259 21.2284 21.2252 21.2303 21.224 21.2316C20.5472 21.9058 19.6495 22.2781 18.6934 22.2781C17.736 22.2781 16.8357 21.9052 16.1589 21.2284C14.7614 19.8303 14.7614 17.5564 16.1589 16.159C16.8583 15.4603 17.7755 15.1106 18.6938 15.1106C19.6117 15.1106 20.5295 15.4603 21.2283 16.159C22.6245 17.5546 22.6252 19.8259 21.2321 21.2241L21.2321 21.224ZM50.5852 87.0305C50.5852 89.0068 48.9767 90.6146 47.0004 90.6146C45.0241 90.6146 43.4157 89.0068 43.4157 87.0298C43.4157 85.0535 45.0241 83.4457 47.0004 83.4457C48.9767 83.4457 50.5852 85.0535 50.5852 87.0305ZM47.0004 68.8745C39.7393 68.8745 33.2969 65.3154 29.3153 59.8531C33.4261 54.1967 39.9953 50.8292 47.0004 50.8292C54.0055 50.8292 60.574 54.1973 64.6855 59.8531C60.7046 65.3148 54.2623 68.8745 47.0004 68.8745ZM40.0344 42.477C40.0344 38.6356 43.1595 35.511 47.0004 35.511C50.8418 35.511 53.9671 38.6361 53.9671 42.477C53.9671 46.3184 50.842 49.4437 47.0004 49.4437C43.1589 49.4437 40.0344 46.3186 40.0344 42.477ZM43.4157 6.96861C43.4157 4.99165 45.0241 3.38385 47.0004 3.38385C48.9767 3.38385 50.5852 4.99165 50.5852 6.96861C50.5852 8.94492 48.9774 10.5534 47.0004 10.5534C45.0241 10.5534 43.4157 8.94492 43.4157 6.96861ZM47.0004 25.1246C59.0623 25.1246 68.8754 34.9371 68.8754 46.9995C68.8754 51.2749 67.6374 55.2651 65.5086 58.6382C61.9395 53.9416 56.7464 50.8046 51.0116 49.7982C53.5955 48.3769 55.3522 45.6285 55.3522 42.4769C55.3522 37.8727 51.606 34.1259 47.0012 34.1259C42.3971 34.1259 38.6503 37.872 38.6503 42.4769C38.6503 45.629 40.4063 48.3769 42.9909 49.7982C37.2553 50.804 32.0629 53.9416 28.4933 58.6382C26.3638 55.2651 25.1258 51.2749 25.1258 46.9995C25.1258 34.9377 34.9389 25.1246 47.0007 25.1246H47.0004Z"/>
</mask>
<path d="M11.8846 46.3083C11.5462 43.8957 9.4739 42.0312 6.96899 42.0312C4.22928 42.0312 2 44.2598 2 47.0002C2 49.7405 4.22928 51.9698 6.96899 51.9698C9.47326 51.9698 11.5457 50.1052 11.8846 47.6927H23.7581C23.8943 52.3215 25.386 56.615 27.8544 60.187C27.8714 60.2184 27.894 60.2448 27.9159 60.2737C28.5726 61.2154 29.2977 62.105 30.083 62.938L21.68 71.3416C19.7346 69.8751 16.9508 70.022 15.1799 71.793C13.2425 73.7304 13.2425 76.8832 15.1799 78.8206C16.1486 79.7893 17.4211 80.274 18.6936 80.274C19.9662 80.274 21.2387 79.7893 22.2073 78.8206C23.9784 77.0495 24.1253 74.2659 22.6587 72.3211L31.0624 63.9175C35.072 67.6969 40.4171 70.0685 46.3076 70.242V82.1161C43.895 82.4545 42.0305 84.5268 42.0305 87.0311C42.0312 89.7714 44.2598 92.0007 47.0002 92.0007C49.7405 92.0007 51.9692 89.7714 51.9692 87.0317C51.9692 84.5268 50.1052 82.455 47.6921 82.1167L47.6927 70.242C53.5832 70.0687 58.9289 67.6969 62.9386 63.917L71.3416 72.32C69.8751 74.2655 70.022 77.0492 71.793 78.8195C72.7617 79.7882 74.0342 80.2728 75.3067 80.2728C76.5792 80.2728 77.8518 79.7882 78.8204 78.8195C80.7579 76.8821 80.7579 73.7293 78.8204 71.7919C77.0493 70.0208 74.2658 69.8733 72.3203 71.3405L63.9173 62.9382C64.7027 62.1051 65.4271 61.2148 66.0844 60.2738C66.1064 60.2456 66.1283 60.2186 66.1459 60.1878C68.6143 56.6151 70.1061 52.3223 70.2422 47.6935H82.1163C82.4554 50.1062 84.5271 51.9706 87.0313 51.9706C89.771 51.97 92.0003 49.7407 92.0003 47.0003C92.0003 44.26 89.771 42.0313 87.0313 42.0313C84.5264 42.0313 82.4547 43.896 82.1163 46.3084H70.2416C70.0683 40.4179 67.6965 35.0722 63.9166 31.0625L72.319 22.6602C73.1759 23.3081 74.2124 23.664 75.3054 23.664H75.306C76.6338 23.664 77.8812 23.1474 78.8197 22.2082C80.7571 20.2707 80.7571 17.118 78.8197 15.1806C76.8823 13.2432 73.7296 13.2438 71.7921 15.1806C70.0211 16.9517 69.8742 19.7352 71.3408 21.6807L62.9378 30.0837C58.9287 26.3037 53.583 23.9326 47.6925 23.7587V11.8846C50.1051 11.5462 51.9696 9.4739 51.9696 6.96964C51.969 4.22928 49.7403 2 46.9999 2C44.2596 2 42.031 4.22928 42.031 6.96964C42.031 9.47454 43.8949 11.5463 46.3081 11.8846V23.7587C40.4175 23.932 35.0718 26.3038 31.0628 30.0832L22.6585 21.6802C24.125 19.7348 23.9781 16.951 22.2071 15.1801C20.2697 13.2427 17.1169 13.2433 15.1795 15.1801C13.2421 17.1175 13.2421 20.2703 15.1795 22.2077C16.1181 23.1462 17.3661 23.6635 18.6932 23.6635C19.7862 23.6635 20.8227 23.3082 21.6796 22.6597L30.0826 31.062C26.3026 35.0717 23.931 40.4174 23.7577 46.308L11.8846 46.3083ZM6.96899 50.5848C4.99268 50.5848 3.38488 48.977 3.38488 47C3.38488 45.0237 4.99268 43.4153 6.96964 43.4153C8.94659 43.4153 10.5544 45.0231 10.5544 47C10.5544 48.977 8.94595 50.5848 6.96899 50.5848ZM21.2288 77.8405C19.8307 79.2386 17.5561 79.2373 16.1593 77.8405C14.7619 76.4424 14.7619 74.1684 16.1593 72.771C16.8581 72.0723 17.776 71.7226 18.6943 71.7226C19.6096 71.7226 20.5256 72.071 21.2236 72.7666C21.2255 72.7685 21.2261 72.771 21.2274 72.7729C21.2293 72.7748 21.2318 72.7754 21.233 72.7767C22.6255 74.1748 22.6242 76.4442 21.2287 77.8405L21.2288 77.8405ZM72.7669 72.7766C72.7688 72.7748 72.7713 72.7748 72.7726 72.7729C72.7745 72.771 72.7751 72.7685 72.7764 72.7666C73.4745 72.071 74.3898 71.7226 75.3057 71.7226C76.2235 71.7226 77.142 72.0723 77.8406 72.771C79.2381 74.1691 79.2381 76.443 77.8406 77.8404C76.4438 79.2379 74.1693 79.2385 72.7712 77.8404C71.3763 76.4442 71.375 74.1747 72.7668 72.7766L72.7669 72.7766ZM87.0317 43.414C89.008 43.414 90.6158 45.0224 90.6158 46.9987C90.6158 48.9757 89.008 50.5835 87.0311 50.5835C85.0547 50.5835 83.4469 48.9757 83.4469 46.9987C83.4469 45.0224 85.0547 43.414 87.0317 43.414ZM72.7719 16.1583C73.4707 15.4596 74.3886 15.1099 75.3064 15.1099C76.2242 15.1099 77.1427 15.4596 77.8414 16.1583C79.2388 17.5564 79.2388 19.8303 77.8414 21.2277C77.164 21.9051 76.2643 22.2774 75.3069 22.2774C74.3514 22.2774 73.453 21.9057 72.7763 21.2309C72.775 21.2296 72.7744 21.2277 72.7731 21.2265C72.7719 21.2252 72.77 21.2246 72.7681 21.2233C71.375 19.8259 71.3756 17.5545 72.7719 16.1582L72.7719 16.1583ZM21.2321 21.224C21.2309 21.2253 21.229 21.2259 21.2271 21.2272C21.2259 21.2284 21.2252 21.2303 21.224 21.2316C20.5472 21.9058 19.6495 22.2781 18.6934 22.2781C17.736 22.2781 16.8357 21.9052 16.1589 21.2284C14.7614 19.8303 14.7614 17.5564 16.1589 16.159C16.8583 15.4603 17.7755 15.1106 18.6938 15.1106C19.6117 15.1106 20.5295 15.4603 21.2283 16.159C22.6245 17.5546 22.6252 19.8259 21.2321 21.2241L21.2321 21.224ZM50.5852 87.0305C50.5852 89.0068 48.9767 90.6146 47.0004 90.6146C45.0241 90.6146 43.4157 89.0068 43.4157 87.0298C43.4157 85.0535 45.0241 83.4457 47.0004 83.4457C48.9767 83.4457 50.5852 85.0535 50.5852 87.0305ZM47.0004 68.8745C39.7393 68.8745 33.2969 65.3154 29.3153 59.8531C33.4261 54.1967 39.9953 50.8292 47.0004 50.8292C54.0055 50.8292 60.574 54.1973 64.6855 59.8531C60.7046 65.3148 54.2623 68.8745 47.0004 68.8745ZM40.0344 42.477C40.0344 38.6356 43.1595 35.511 47.0004 35.511C50.8418 35.511 53.9671 38.6361 53.9671 42.477C53.9671 46.3184 50.842 49.4437 47.0004 49.4437C43.1589 49.4437 40.0344 46.3186 40.0344 42.477ZM43.4157 6.96861C43.4157 4.99165 45.0241 3.38385 47.0004 3.38385C48.9767 3.38385 50.5852 4.99165 50.5852 6.96861C50.5852 8.94492 48.9774 10.5534 47.0004 10.5534C45.0241 10.5534 43.4157 8.94492 43.4157 6.96861ZM47.0004 25.1246C59.0623 25.1246 68.8754 34.9371 68.8754 46.9995C68.8754 51.2749 67.6374 55.2651 65.5086 58.6382C61.9395 53.9416 56.7464 50.8046 51.0116 49.7982C53.5955 48.3769 55.3522 45.6285 55.3522 42.4769C55.3522 37.8727 51.606 34.1259 47.0012 34.1259C42.3971 34.1259 38.6503 37.872 38.6503 42.4769C38.6503 45.629 40.4063 48.3769 42.9909 49.7982C37.2553 50.804 32.0629 53.9416 28.4933 58.6382C26.3638 55.2651 25.1258 51.2749 25.1258 46.9995C25.1258 34.9377 34.9389 25.1246 47.0007 25.1246H47.0004Z" fill="#1877F2"/>
<path d="M11.8846 46.3083C11.5462 43.8957 9.4739 42.0312 6.96899 42.0312C4.22928 42.0312 2 44.2598 2 47.0002C2 49.7405 4.22928 51.9698 6.96899 51.9698C9.47326 51.9698 11.5457 50.1052 11.8846 47.6927H23.7581C23.8943 52.3215 25.386 56.615 27.8544 60.187C27.8714 60.2184 27.894 60.2448 27.9159 60.2737C28.5726 61.2154 29.2977 62.105 30.083 62.938L21.68 71.3416C19.7346 69.8751 16.9508 70.022 15.1799 71.793C13.2425 73.7304 13.2425 76.8832 15.1799 78.8206C16.1486 79.7893 17.4211 80.274 18.6936 80.274C19.9662 80.274 21.2387 79.7893 22.2073 78.8206C23.9784 77.0495 24.1253 74.2659 22.6587 72.3211L31.0624 63.9175C35.072 67.6969 40.4171 70.0685 46.3076 70.242V82.1161C43.895 82.4545 42.0305 84.5268 42.0305 87.0311C42.0312 89.7714 44.2598 92.0007 47.0002 92.0007C49.7405 92.0007 51.9692 89.7714 51.9692 87.0317C51.9692 84.5268 50.1052 82.455 47.6921 82.1167L47.6927 70.242C53.5832 70.0687 58.9289 67.6969 62.9386 63.917L71.3416 72.32C69.8751 74.2655 70.022 77.0492 71.793 78.8195C72.7617 79.7882 74.0342 80.2728 75.3067 80.2728C76.5792 80.2728 77.8518 79.7882 78.8204 78.8195C80.7579 76.8821 80.7579 73.7293 78.8204 71.7919C77.0493 70.0208 74.2658 69.8733 72.3203 71.3405L63.9173 62.9382C64.7027 62.1051 65.4271 61.2148 66.0844 60.2738C66.1064 60.2456 66.1283 60.2186 66.1459 60.1878C68.6143 56.6151 70.1061 52.3223 70.2422 47.6935H82.1163C82.4554 50.1062 84.5271 51.9706 87.0313 51.9706C89.771 51.97 92.0003 49.7407 92.0003 47.0003C92.0003 44.26 89.771 42.0313 87.0313 42.0313C84.5264 42.0313 82.4547 43.896 82.1163 46.3084H70.2416C70.0683 40.4179 67.6965 35.0722 63.9166 31.0625L72.319 22.6602C73.1759 23.3081 74.2124 23.664 75.3054 23.664H75.306C76.6338 23.664 77.8812 23.1474 78.8197 22.2082C80.7571 20.2707 80.7571 17.118 78.8197 15.1806C76.8823 13.2432 73.7296 13.2438 71.7921 15.1806C70.0211 16.9517 69.8742 19.7352 71.3408 21.6807L62.9378 30.0837C58.9287 26.3037 53.583 23.9326 47.6925 23.7587V11.8846C50.1051 11.5462 51.9696 9.4739 51.9696 6.96964C51.969 4.22928 49.7403 2 46.9999 2C44.2596 2 42.031 4.22928 42.031 6.96964C42.031 9.47454 43.8949 11.5463 46.3081 11.8846V23.7587C40.4175 23.932 35.0718 26.3038 31.0628 30.0832L22.6585 21.6802C24.125 19.7348 23.9781 16.951 22.2071 15.1801C20.2697 13.2427 17.1169 13.2433 15.1795 15.1801C13.2421 17.1175 13.2421 20.2703 15.1795 22.2077C16.1181 23.1462 17.3661 23.6635 18.6932 23.6635C19.7862 23.6635 20.8227 23.3082 21.6796 22.6597L30.0826 31.062C26.3026 35.0717 23.931 40.4174 23.7577 46.308L11.8846 46.3083ZM6.96899 50.5848C4.99268 50.5848 3.38488 48.977 3.38488 47C3.38488 45.0237 4.99268 43.4153 6.96964 43.4153C8.94659 43.4153 10.5544 45.0231 10.5544 47C10.5544 48.977 8.94595 50.5848 6.96899 50.5848ZM21.2288 77.8405C19.8307 79.2386 17.5561 79.2373 16.1593 77.8405C14.7619 76.4424 14.7619 74.1684 16.1593 72.771C16.8581 72.0723 17.776 71.7226 18.6943 71.7226C19.6096 71.7226 20.5256 72.071 21.2236 72.7666C21.2255 72.7685 21.2261 72.771 21.2274 72.7729C21.2293 72.7748 21.2318 72.7754 21.233 72.7767C22.6255 74.1748 22.6242 76.4442 21.2287 77.8405L21.2288 77.8405ZM72.7669 72.7766C72.7688 72.7748 72.7713 72.7748 72.7726 72.7729C72.7745 72.771 72.7751 72.7685 72.7764 72.7666C73.4745 72.071 74.3898 71.7226 75.3057 71.7226C76.2235 71.7226 77.142 72.0723 77.8406 72.771C79.2381 74.1691 79.2381 76.443 77.8406 77.8404C76.4438 79.2379 74.1693 79.2385 72.7712 77.8404C71.3763 76.4442 71.375 74.1747 72.7668 72.7766L72.7669 72.7766ZM87.0317 43.414C89.008 43.414 90.6158 45.0224 90.6158 46.9987C90.6158 48.9757 89.008 50.5835 87.0311 50.5835C85.0547 50.5835 83.4469 48.9757 83.4469 46.9987C83.4469 45.0224 85.0547 43.414 87.0317 43.414ZM72.7719 16.1583C73.4707 15.4596 74.3886 15.1099 75.3064 15.1099C76.2242 15.1099 77.1427 15.4596 77.8414 16.1583C79.2388 17.5564 79.2388 19.8303 77.8414 21.2277C77.164 21.9051 76.2643 22.2774 75.3069 22.2774C74.3514 22.2774 73.453 21.9057 72.7763 21.2309C72.775 21.2296 72.7744 21.2277 72.7731 21.2265C72.7719 21.2252 72.77 21.2246 72.7681 21.2233C71.375 19.8259 71.3756 17.5545 72.7719 16.1582L72.7719 16.1583ZM21.2321 21.224C21.2309 21.2253 21.229 21.2259 21.2271 21.2272C21.2259 21.2284 21.2252 21.2303 21.224 21.2316C20.5472 21.9058 19.6495 22.2781 18.6934 22.2781C17.736 22.2781 16.8357 21.9052 16.1589 21.2284C14.7614 19.8303 14.7614 17.5564 16.1589 16.159C16.8583 15.4603 17.7755 15.1106 18.6938 15.1106C19.6117 15.1106 20.5295 15.4603 21.2283 16.159C22.6245 17.5546 22.6252 19.8259 21.2321 21.2241L21.2321 21.224ZM50.5852 87.0305C50.5852 89.0068 48.9767 90.6146 47.0004 90.6146C45.0241 90.6146 43.4157 89.0068 43.4157 87.0298C43.4157 85.0535 45.0241 83.4457 47.0004 83.4457C48.9767 83.4457 50.5852 85.0535 50.5852 87.0305ZM47.0004 68.8745C39.7393 68.8745 33.2969 65.3154 29.3153 59.8531C33.4261 54.1967 39.9953 50.8292 47.0004 50.8292C54.0055 50.8292 60.574 54.1973 64.6855 59.8531C60.7046 65.3148 54.2623 68.8745 47.0004 68.8745ZM40.0344 42.477C40.0344 38.6356 43.1595 35.511 47.0004 35.511C50.8418 35.511 53.9671 38.6361 53.9671 42.477C53.9671 46.3184 50.842 49.4437 47.0004 49.4437C43.1589 49.4437 40.0344 46.3186 40.0344 42.477ZM43.4157 6.96861C43.4157 4.99165 45.0241 3.38385 47.0004 3.38385C48.9767 3.38385 50.5852 4.99165 50.5852 6.96861C50.5852 8.94492 48.9774 10.5534 47.0004 10.5534C45.0241 10.5534 43.4157 8.94492 43.4157 6.96861ZM47.0004 25.1246C59.0623 25.1246 68.8754 34.9371 68.8754 46.9995C68.8754 51.2749 67.6374 55.2651 65.5086 58.6382C61.9395 53.9416 56.7464 50.8046 51.0116 49.7982C53.5955 48.3769 55.3522 45.6285 55.3522 42.4769C55.3522 37.8727 51.606 34.1259 47.0012 34.1259C42.3971 34.1259 38.6503 37.872 38.6503 42.4769C38.6503 45.629 40.4063 48.3769 42.9909 49.7982C37.2553 50.804 32.0629 53.9416 28.4933 58.6382C26.3638 55.2651 25.1258 51.2749 25.1258 46.9995C25.1258 34.9377 34.9389 25.1246 47.0007 25.1246H47.0004Z" stroke="#1877F2" stroke-width="4" mask="url(#path-1-outside-1_77_4569)"/>
</svg>
