<svg width="121" height="121" viewBox="0 0 121 121" fill="none" xmlns="http://www.w3.org/2000/svg">
<path fill-rule="evenodd" clip-rule="evenodd" d="M28 18.7806V102.844C28 103.825 28.8008 104.625 29.7813 104.625L92.2181 104.625C93.1985 104.625 93.9993 103.824 93.9993 102.843V38.1794H78.0465C75.0992 38.1794 72.7034 35.7837 72.7034 32.8364V17H29.7819C28.8015 17 28.0007 17.8002 28.0007 18.7806L28 18.7806ZM78.0458 34.6176C77.0647 34.6176 76.2646 33.8181 76.2646 32.8363V17.1531C76.4535 17.2382 76.6271 17.3606 76.786 17.5176L93.4724 34.0961C93.6314 34.2538 93.7558 34.428 93.8422 34.6176L78.0458 34.6176ZM65.9416 29.0371C66.9247 29.0371 67.7228 29.8346 67.7228 30.8184C67.7228 31.8015 66.9253 32.5997 65.9416 32.5997L40.9638 32.599C39.9807 32.599 39.1825 31.8015 39.1825 30.8177C39.1825 29.8347 39.98 29.0365 40.9638 29.0365L65.9416 29.0371ZM65.9416 37.2795C66.9247 37.2795 67.7228 38.077 67.7228 39.0608C67.7228 40.0439 66.9253 40.842 65.9416 40.842L40.9638 40.8414C39.9807 40.8414 39.1825 40.0439 39.1825 39.0601C39.1825 38.077 39.98 37.2789 40.9638 37.2789L65.9416 37.2795ZM39.5692 76.615H42.6029C43.584 76.615 44.3841 77.4145 44.3841 78.3963V90.6241C44.3841 91.6052 43.5846 92.4054 42.6029 92.4054H39.5692C38.5882 92.4054 37.788 91.6059 37.788 90.6241V78.3956C37.788 77.4145 38.5888 76.615 39.5692 76.615ZM52.8441 71.3458H55.8778C56.8588 71.3458 57.659 72.1453 57.659 73.1271V90.6246C57.659 91.6057 56.8595 92.4059 55.8778 92.4059H52.8441C51.863 92.4059 51.0629 91.6064 51.0629 90.6246V73.1271C51.0635 72.1453 51.863 71.3458 52.8441 71.3458ZM66.1183 66.0773H69.152C70.1331 66.0773 70.9332 66.8768 70.9332 67.8586V90.6245C70.9332 91.6055 70.1337 92.4057 69.152 92.4057H66.1183C65.1373 92.4057 64.3371 91.6062 64.3371 90.6245V67.8586C64.3377 66.8768 65.1379 66.0773 66.1183 66.0773ZM79.3939 60.8081H82.4275C83.4086 60.8081 84.2088 61.6076 84.2088 62.5894V90.6236C84.2088 91.6047 83.4093 92.4049 82.4275 92.4049L79.3939 92.4042C78.4128 92.4042 77.6127 91.6047 77.6127 90.6229V62.5887C77.6127 61.607 78.4122 60.8074 79.3939 60.8074V60.8081ZM72.4657 49.2586C71.4866 49.2626 70.6884 48.4711 70.6845 47.4913C70.6805 46.5122 71.472 45.714 72.4518 45.7101L78.3608 45.6795C79.3399 45.6755 80.1382 46.467 80.1421 47.4468L80.1727 53.3559C80.1767 54.3349 79.3852 55.1332 78.4054 55.1371C77.4263 55.1411 76.6281 54.3496 76.6241 53.3698L76.6155 51.7529C73.2571 54.6622 68.7276 57.4484 63.9837 59.8583C55.7812 64.0241 46.8165 67.1223 42.231 67.7542C41.2585 67.8846 40.3646 67.2028 40.2341 66.2304C40.1038 65.2579 40.7856 64.364 41.758 64.2335C46.0162 63.6462 54.5028 60.6877 62.3835 56.6856C66.8153 54.4347 71.0163 51.8718 74.0914 49.2499L72.4657 49.2586Z" fill="#7C4DFF"/>
</svg>
