<svg width="66" height="88" viewBox="0 0 66 88" fill="none" xmlns="http://www.w3.org/2000/svg">
<path fill-rule="evenodd" clip-rule="evenodd" d="M0 1.78056V85.8442C0 86.8252 0.800825 87.6254 1.78126 87.6254L64.2181 87.6248C65.1985 87.6248 65.9993 86.8239 65.9993 85.8435V21.1794H50.0465C47.0992 21.1794 44.7034 18.7837 44.7034 15.8364V0H1.78194C0.801523 0 0.00068073 0.800161 0.00068073 1.78058L0 1.78056ZM50.0458 17.6176C49.0647 17.6176 48.2646 16.8181 48.2646 15.8363V0.153062C48.4535 0.2382 48.6271 0.360595 48.786 0.517555L65.4724 17.0961C65.6314 17.2538 65.7558 17.428 65.8422 17.6176L50.0458 17.6176ZM37.9416 12.0371C38.9247 12.0371 39.7228 12.8346 39.7228 13.8184C39.7228 14.8015 38.9253 15.5997 37.9416 15.5997L12.9638 15.599C11.9807 15.599 11.1825 14.8015 11.1825 13.8177C11.1825 12.8347 11.98 12.0365 12.9638 12.0365L37.9416 12.0371ZM37.9416 20.2795C38.9247 20.2795 39.7228 21.077 39.7228 22.0608C39.7228 23.0439 38.9253 23.842 37.9416 23.842L12.9638 23.8414C11.9807 23.8414 11.1825 23.0439 11.1825 22.0601C11.1825 21.077 11.98 20.2789 12.9638 20.2789L37.9416 20.2795ZM11.5692 59.615H14.6029C15.584 59.615 16.3841 60.4145 16.3841 61.3963V73.6241C16.3841 74.6052 15.5846 75.4054 14.6029 75.4054H11.5692C10.5882 75.4054 9.78798 74.6059 9.78798 73.6241V61.3956C9.78798 60.4145 10.5888 59.615 11.5692 59.615ZM24.8441 54.3458H27.8778C28.8588 54.3458 29.659 55.1453 29.659 56.1271V73.6246C29.659 74.6057 28.8595 75.4059 27.8778 75.4059H24.8441C23.863 75.4059 23.0629 74.6064 23.0629 73.6246V56.1271C23.0635 55.1453 23.863 54.3458 24.8441 54.3458ZM38.1183 49.0773H41.152C42.1331 49.0773 42.9332 49.8768 42.9332 50.8586V73.6245C42.9332 74.6055 42.1337 75.4057 41.152 75.4057H38.1183C37.1373 75.4057 36.3371 74.6062 36.3371 73.6245V50.8586C36.3377 49.8768 37.1379 49.0773 38.1183 49.0773ZM51.3939 43.8081H54.4275C55.4086 43.8081 56.2088 44.6076 56.2088 45.5894V73.6236C56.2088 74.6047 55.4093 75.4049 54.4275 75.4049L51.3939 75.4042C50.4128 75.4042 49.6127 74.6047 49.6127 73.6229V45.5887C49.6127 44.607 50.4122 43.8074 51.3939 43.8074V43.8081ZM44.4657 32.2586C43.4866 32.2626 42.6884 31.4711 42.6845 30.4913C42.6805 29.5122 43.472 28.714 44.4518 28.7101L50.3608 28.6795C51.3399 28.6755 52.1382 29.467 52.1421 30.4468L52.1727 36.3559C52.1767 37.3349 51.3852 38.1332 50.4054 38.1371C49.4263 38.1411 48.6281 37.3496 48.6241 36.3698L48.6155 34.7529C45.2571 37.6622 40.7276 40.4484 35.9837 42.8583C27.7812 47.0241 18.8165 50.1223 14.231 50.7542C13.2585 50.8846 12.3646 50.2028 12.2341 49.2304C12.1038 48.2579 12.7856 47.364 13.758 47.2335C18.0162 46.6462 26.5028 43.6877 34.3835 39.6855C38.8153 37.4347 43.0163 34.8718 46.0914 32.2499L44.4657 32.2586Z" fill="#7C4DFF"/>
</svg>
