<svg width="121" height="121" viewBox="0 0 121 121" fill="none" xmlns="http://www.w3.org/2000/svg">
<path d="M86.4851 45.7128C83.2558 45.7164 80.1601 47.0009 77.8765 49.284C75.5934 51.5677 74.3091 54.6633 74.3053 57.8925C74.3053 58.278 74.3283 58.6598 74.3633 59.0374L64.1622 61.4353C63.4397 59.7757 62.1861 58.4031 60.5989 57.5325L65.2908 44.3136C65.5874 44.3366 65.8835 44.3595 66.1856 44.3595C70.3203 44.3595 74.1736 42.262 76.4168 38.7881C78.6607 35.3148 78.9887 30.9402 77.288 27.1709C75.5873 23.4016 72.0906 20.753 68.0016 20.1362C63.9126 19.52 59.7905 21.0201 57.0544 24.1206C54.3182 27.2206 53.3412 31.4973 54.4613 35.4782C55.5808 39.4589 58.6439 42.5993 62.595 43.8185L58.0373 56.6574C56.2568 56.3475 54.4239 56.6532 52.8403 57.525L43.2144 47.9666C46.2775 45.1676 47.6888 40.991 46.9504 36.9082C46.2127 32.8248 43.4293 29.4071 39.5804 27.8574C35.7313 26.3072 31.356 26.843 27.9946 29.2759C24.6331 31.7083 22.7566 35.6969 23.0254 39.8377C23.2943 43.978 25.6709 47.6904 29.3188 49.6679C32.9667 51.6447 37.3746 51.6103 40.9911 49.5755L50.7022 59.2178C48.7997 61.2924 48.1237 64.2129 48.9211 66.9129L45.5464 68.7194H43.9496C45.0691 67.7503 45.7428 66.3649 45.8135 64.886C45.8842 63.4072 45.3465 61.9637 44.3248 60.892C43.3032 59.8204 41.887 59.2136 40.4063 59.2136C38.9255 59.2136 37.5099 59.8202 36.4884 60.892C35.4668 61.9639 34.9284 63.4072 34.9997 64.886C35.0704 66.365 35.7441 67.7504 36.8636 68.7194H36.4129C33.023 68.7194 30.9997 71.2489 30.9997 75.4859V84.959C30.9997 85.3178 31.1423 85.6622 31.396 85.916C31.6497 86.1697 31.9941 86.3123 32.353 86.3123H35.0596V99.8453C35.0596 100.204 35.2022 100.549 35.4559 100.802C35.7096 101.056 36.054 101.199 36.4129 101.199H44.5327C44.8916 101.199 45.2359 101.056 45.4897 100.802C45.7434 100.549 45.886 100.204 45.886 99.8453V76.4216L53.351 72.0366C55.8611 73.1923 58.7877 72.9869 61.1126 71.4928C63.4379 69.9988 64.8403 67.4221 64.8324 64.6586C64.8324 64.458 64.8161 64.2623 64.8028 64.0659L74.9187 61.6813C75.8545 64.5407 77.8161 66.9526 80.4243 68.452C83.033 69.9509 86.1047 70.4319 89.0462 69.8011C91.9883 69.171 94.5929 67.4733 96.3576 65.0367C98.1229 62.6001 98.9234 59.5963 98.605 56.6045C98.2872 53.6121 96.8729 50.8439 94.6351 48.8327C92.3967 46.8214 89.4938 45.7099 86.4851 45.7122L86.4851 45.7128ZM68.8921 41.2469C67.1268 41.7792 65.2443 41.7792 63.4789 41.2469V36.2397C63.4789 35.4924 64.0849 34.8864 64.8322 34.8864H67.5388C67.8977 34.8864 68.2421 35.029 68.4958 35.2827C68.7495 35.5365 68.8921 35.8808 68.8921 36.2397V41.2469ZM64.8322 29.4732C64.8322 28.9258 65.1621 28.4322 65.6678 28.2232C66.1734 28.0136 66.7552 28.129 67.1425 28.5162C67.5298 28.9035 67.6452 29.4853 67.4355 29.991C67.2265 30.4966 66.7329 30.8265 66.1855 30.8265C65.4382 30.8265 64.8322 30.2205 64.8322 29.4732ZM60.7723 36.2397V39.9425C58.5509 38.3952 57.0972 35.9726 56.7783 33.2841C56.4593 30.5962 57.3057 27.9004 59.1037 25.8765C60.901 23.8526 63.4789 22.6951 66.1855 22.6951C68.8921 22.6951 71.4701 23.8526 73.2674 25.8765C75.0654 27.9004 75.9118 30.5962 75.5928 33.2841C75.2738 35.9726 73.8202 38.3952 71.5987 39.9425V36.2397C71.5957 35.4102 71.3383 34.6018 70.8623 33.9228C70.3856 33.2444 69.7132 32.7272 68.9338 32.4427C69.7409 31.7002 70.2134 30.6634 70.2436 29.5675C70.2744 28.4716 69.8606 27.4095 69.0957 26.6241C68.3314 25.8381 67.282 25.3947 66.1856 25.3947C65.0892 25.3947 64.0396 25.8381 63.2754 26.6241C62.5106 27.4095 62.0967 28.4715 62.1275 29.5675C62.1577 30.6634 62.6302 31.7001 63.4373 32.4427C62.658 32.7272 61.9856 33.2444 61.5088 33.9228C61.0328 34.6019 60.7754 35.4103 60.7724 36.2397H60.7723ZM37.7662 48.0134C36.0009 48.5457 34.1183 48.5457 32.353 48.0134V43.0062C32.353 42.2589 32.959 41.6529 33.7063 41.6529H36.4129C36.7718 41.6529 37.1161 41.7955 37.3699 42.0492C37.6236 42.303 37.7662 42.6473 37.7662 43.0062V48.0134ZM33.7063 36.2397C33.7063 35.6923 34.0362 35.1987 34.5418 34.9897C35.0475 34.7801 35.6293 34.8955 36.0166 35.2827C36.4039 35.67 36.5192 36.2518 36.3096 36.7575C36.1005 37.2631 35.607 37.593 35.0596 37.593C34.3123 37.593 33.7063 36.987 33.7063 36.2397ZM40.4728 46.709V43.0062C40.4698 42.1767 40.2124 41.3683 39.7363 40.6894C39.2597 40.0109 38.5872 39.4937 37.8079 39.2092C38.615 38.4667 39.0874 37.4299 39.1177 36.334C39.1485 35.2381 38.7346 34.176 37.9698 33.3906C37.2055 32.6046 36.156 32.1612 35.0596 32.1612C33.9632 32.1612 32.9137 32.6046 32.1495 33.3906C31.3846 34.176 30.9708 35.2381 31.0016 36.334C31.0318 37.4299 31.5043 38.4666 32.3114 39.2092C31.532 39.4937 30.8596 40.0109 30.3829 40.6894C29.9068 41.3684 29.6495 42.1768 29.6465 43.0062V46.709C27.425 45.1617 25.9714 42.7391 25.6524 40.0506C25.3334 37.3627 26.1799 34.6669 27.9778 32.643C29.7751 30.6191 32.3531 29.4616 35.0597 29.4616C37.7663 29.4616 40.3442 30.6192 42.1415 32.643C43.9395 34.6669 44.786 37.3627 44.4669 40.0506C44.1479 42.7391 42.6943 45.1617 40.4729 46.709H40.4728ZM40.4063 61.9524C41.1241 61.9524 41.8128 62.2376 42.3203 62.7451C42.8278 63.2526 43.113 63.9413 43.113 64.659C43.113 65.3768 42.8278 66.0655 42.3203 66.573C41.8128 67.0805 41.1241 67.3656 40.4063 67.3656C39.6886 67.3656 39.0005 67.0805 38.4924 66.573C37.9849 66.0655 37.6997 65.3768 37.6997 64.659C37.6997 63.9413 37.9849 63.2526 38.4924 62.7451C39.0005 62.2376 39.6886 61.9524 40.4063 61.9524ZM52.325 69.5014L43.8464 74.4814C43.4331 74.7242 43.1794 75.1683 43.1794 75.648V98.4917H41.8261V83.6054H39.1195V98.4917H37.7662V75.4856H35.0596V83.6054H33.7063V75.4856C33.7063 71.4257 35.7429 71.4257 36.4129 71.4257H45.886C46.1089 71.4257 46.3282 71.3707 46.5246 71.2662L50.8998 68.9221C50.9983 68.8696 51.0889 68.8043 51.1705 68.7288L55.1585 65.0882L56.1233 66.053L52.325 69.5014ZM56.7123 70.0723C56.412 70.0693 56.1124 70.0415 55.8163 69.9883L58.9965 67.1046C59.2714 66.8557 59.4327 66.5053 59.4418 66.1344C59.4509 65.764 59.3077 65.4058 59.0455 65.1436L56.163 62.2611C55.6513 61.7494 54.8284 61.7301 54.2938 62.2176L51.3273 64.9242C51.3273 64.8336 51.2989 64.7484 51.2989 64.6535C51.2989 63.2181 51.8692 61.8412 52.8842 60.8256C53.8998 59.8107 55.2767 59.2403 56.7121 59.2403C58.1476 59.2403 59.5245 59.8107 60.54 60.8256C61.555 61.8412 62.1253 63.2181 62.1253 64.6535C62.1253 66.089 61.555 67.4659 60.54 68.4815C59.5245 69.4964 58.1476 70.0668 56.7121 70.0668L56.7123 70.0723ZM89.1915 66.9597C87.4262 67.492 85.5437 67.492 83.7783 66.9597V61.9525C83.7783 61.2052 84.3843 60.5992 85.1316 60.5992H87.8382C88.1971 60.5992 88.5415 60.7418 88.7952 60.9955C89.049 61.2492 89.1915 61.5936 89.1915 61.9525V66.9597ZM85.1316 55.186C85.1316 54.6386 85.4615 54.145 85.9672 53.936C86.4728 53.7263 87.0546 53.8417 87.4419 54.229C87.8292 54.6163 87.9446 55.1981 87.7349 55.7037C87.5259 56.2094 87.0323 56.5393 86.4849 56.5393C85.7376 56.5393 85.1316 55.9333 85.1316 55.186ZM91.8982 65.6553V61.9525C91.8951 61.123 91.6378 60.3146 91.1617 59.6356C90.685 58.9572 90.0126 58.44 89.2332 58.1555C90.0404 57.413 90.5128 56.3762 90.543 55.2803C90.5738 54.1844 90.16 53.1223 89.3951 52.3369C88.6309 51.5509 87.5814 51.1074 86.485 51.1074C85.3886 51.1074 84.339 51.5509 83.5748 52.3369C82.81 53.1223 82.3961 54.1843 82.4269 55.2803C82.4571 56.3762 82.9296 57.4129 83.7368 58.1555C82.9574 58.44 82.285 58.9572 81.8083 59.6356C81.3322 60.3147 81.0748 61.1231 81.0718 61.9525V65.6553C78.8504 64.108 77.3967 61.6854 77.0778 58.9969C76.7588 56.309 77.6052 53.6132 79.4031 51.5893C81.2005 49.5654 83.7784 48.4079 86.485 48.4079C89.1916 48.4079 91.7695 49.5654 93.5669 51.5893C95.3648 53.6132 96.2113 56.309 95.8922 58.9969C95.5732 61.6854 94.1196 64.108 91.8982 65.6553H91.8982Z" fill="#0C4DA2"/>
</svg>
