<svg width="121" height="121" viewBox="0 0 121 121" fill="none" xmlns="http://www.w3.org/2000/svg">
<path d="M77.58 58.9049L74.7445 56.0701C74.7134 56.1077 74.6766 56.1416 74.6455 56.1785C74.2949 56.5876 73.9313 56.9888 73.5483 57.3733C73.1652 57.7578 72.759 58.1272 72.3484 58.4756C72.3115 58.5074 72.2768 58.5449 72.2393 58.576L75.074 61.4115L77.58 58.9049Z" fill="#6FCF97"/>
<path d="M91.7672 83.7407L91.7462 83.7342C91.5301 83.6887 91.3183 83.6258 91.1123 83.5456C91.0444 83.5196 90.9808 83.4885 90.9143 83.4581H90.915C90.7596 83.3873 90.6093 83.3071 90.4632 83.2181C90.404 83.1806 90.3433 83.1459 90.2854 83.1054V83.1047C90.0874 82.9702 89.9016 82.8192 89.7296 82.6529L74.5443 67.6626C74.352 67.4696 74.1792 67.2578 74.0289 67.0309C74.0065 66.9962 73.992 66.9571 73.9703 66.9217H73.9711C73.8504 66.7331 73.7455 66.5343 73.6581 66.3276C73.6371 66.277 73.6299 66.2228 73.6111 66.1715V66.1707C73.5374 65.9792 73.4788 65.7819 73.4355 65.5802C73.335 65.0648 73.335 64.535 73.4355 64.0197C73.4716 63.865 73.5164 63.7125 73.5706 63.5636C73.6017 63.4696 73.6205 63.367 73.6595 63.2723H73.6588C73.721 63.135 73.7904 63.0005 73.8684 62.8711L70.7213 59.724H70.7206C65.1152 63.6829 57.9572 64.7302 51.4526 62.5436C44.9479 60.357 39.8755 55.1985 37.7995 48.6571C35.7228 42.1163 36.8917 34.9764 40.9452 29.439C44.9986 23.9008 51.4503 20.6288 58.3134 20.6302H58.3221H58.3214C63.6044 20.6295 68.7024 22.5731 72.6444 26.0911C76.5859 29.6083 79.0947 34.4532 79.6933 39.7016C80.2917 44.9506 78.9379 50.2358 75.8891 54.5501L79.0419 57.7023C79.631 57.3741 80.2924 57.1999 80.9667 57.1956H80.9739C82.0466 57.1956 83.0737 57.6264 83.8268 58.3897L91.7683 66.2212L91.7676 16H23V104.55H91.7676L91.7672 83.7407ZM47.3747 66.8682H71.2779C71.7983 66.8682 72.2197 67.2896 72.2197 67.81C72.2197 68.3304 71.7983 68.7518 71.2779 68.7518H47.3747C46.855 68.7518 46.4329 68.3304 46.4329 67.81C46.4329 67.2896 46.855 66.8682 47.3747 66.8682ZM47.3747 71.8137H71.2779C71.7983 71.8137 72.2197 72.2358 72.2197 72.7555C72.2197 73.276 71.7983 73.6981 71.2779 73.6981H47.3747C46.855 73.6981 46.4329 73.276 46.4329 72.7555C46.4329 72.2358 46.855 71.8137 47.3747 71.8137ZM27.3998 19.6885H41.6058C42.1262 19.6885 42.5476 20.1106 42.5476 20.6303C42.5476 21.1507 42.1262 21.5728 41.6058 21.5728H27.3998C26.8801 21.5728 26.458 21.1507 26.458 20.6303C26.458 20.1106 26.8801 19.6885 27.3998 19.6885ZM26.458 26.0469C26.458 25.5265 26.8801 25.1051 27.3998 25.1051H36.8201C37.3405 25.1051 37.7619 25.5265 37.7619 26.0469C37.7619 26.5674 37.3405 26.9888 36.8201 26.9888H27.3998C26.8801 26.9888 26.458 26.5674 26.458 26.0469ZM43.678 98.482C43.678 98.7321 43.579 98.9713 43.4019 99.1484C43.2256 99.3248 42.9856 99.4238 42.7362 99.4238H29.2928C28.7724 99.4238 28.3503 99.0024 28.3503 98.482V85.0386C28.3503 84.5182 28.7724 84.0968 29.2928 84.0968H42.7362C42.9856 84.0968 43.2255 84.1958 43.4019 84.3722C43.579 84.5493 43.678 84.7885 43.678 85.0386V98.482ZM43.678 79.0197C43.678 79.2698 43.579 79.509 43.4019 79.6861C43.2256 79.8625 42.9856 79.9615 42.7362 79.9615H29.2928C28.7724 79.9615 28.3503 79.5401 28.3503 79.0197V65.5676C28.3503 65.0479 28.7724 64.6258 29.2928 64.6258H42.7362C42.9856 64.6258 43.2255 64.7248 43.4019 64.9019C43.579 65.0783 43.678 65.3182 43.678 65.5676V79.0197ZM70.1015 97.6493H47.3751C46.8554 97.6493 46.4333 97.2272 46.4333 96.7068C46.4333 96.1871 46.8554 95.765 47.3751 95.765H70.1015C70.6219 95.765 71.0433 96.1871 71.0433 96.7068C71.0433 97.2272 70.6219 97.6493 70.1015 97.6493ZM79.1684 92.7038L47.3751 92.7031C46.8554 92.7031 46.4333 92.2817 46.4333 91.7613C46.4333 91.2408 46.8554 90.8195 47.3751 90.8195H79.1684C79.6888 90.8195 80.1102 91.2408 80.1102 91.7613C80.1102 92.2817 79.6888 92.7031 79.1684 92.7031V92.7038ZM79.1684 87.7583L47.3751 87.7576C46.8554 87.7576 46.4333 87.3362 46.4333 86.8158C46.4333 86.2953 46.8554 85.8739 47.3751 85.8739H79.1684C79.6888 85.8739 80.1102 86.2953 80.1102 86.8158C80.1102 87.3362 79.6888 87.7576 79.1684 87.7576V87.7583ZM79.1684 78.6437L47.3751 78.6429C46.8554 78.6429 46.4333 78.2208 46.4333 77.7011C46.4333 77.1807 46.8554 76.7586 47.3751 76.7586H79.1684C79.6888 76.7586 80.1102 77.1807 80.1102 77.7011C80.1102 78.2208 79.6888 78.6429 79.1684 78.6429V78.6437Z" fill="#6FCF97"/>
<path d="M30.2344 78.0786H41.7935V66.5107H30.2344V78.0786ZM31.3302 71.4968C31.6981 71.1289 32.2944 71.1289 32.6623 71.4968L34.7641 73.5986L39.3633 68.9943C39.5389 68.8129 39.7803 68.7095 40.0326 68.7074C40.2856 68.7052 40.5284 68.8042 40.7069 68.9828C40.8855 69.1613 40.9852 69.4049 40.9831 69.6571C40.9809 69.9101 40.8768 70.1508 40.6954 70.3264L35.4255 75.5963C35.0576 75.9642 34.4613 75.9642 34.0941 75.5963L31.3265 72.8287C30.9593 72.4594 30.9614 71.863 31.3301 71.4966L31.3302 71.4968Z" fill="#6FCF97"/>
<path d="M30.2344 97.5408H41.7935V85.981H30.2344V97.5408ZM31.3302 90.9626C31.6981 90.5946 32.2944 90.5946 32.6623 90.9626L34.7641 93.0644L39.3633 88.4608C39.5389 88.2787 39.7803 88.1753 40.0326 88.1732C40.2856 88.171 40.5284 88.27 40.7069 88.4486C40.8855 88.6278 40.9852 88.8707 40.9831 89.1229C40.9809 89.3759 40.8768 89.6173 40.6954 89.7922L35.4297 95.0621C35.0618 95.43 34.4655 95.43 34.0976 95.0621L31.33 92.2945C30.9621 91.9266 30.9621 91.3303 31.33 90.9624L31.3302 90.9626Z" fill="#6FCF97"/>
<path d="M94.1153 81.3131L97.6736 77.7553C98.5128 76.9082 98.5128 75.5421 97.6736 74.695L82.4932 59.7171H82.4925C82.0906 59.308 81.5406 59.0774 80.9667 59.0767C80.4058 59.0767 79.8673 59.2957 79.4654 59.6874L75.8477 63.3036C75.036 64.1486 75.0469 65.4873 75.873 66.3177L91.0534 81.2956L91.0541 81.2964C91.9056 82.1276 93.2644 82.1276 94.1159 81.2964L94.1153 81.3131Z" fill="#6FCF97"/>
<path d="M72.2081 28.2663C68.631 24.6891 63.812 22.6298 58.7538 22.5179C53.6964 22.4058 48.7906 24.2497 45.0588 27.6656C41.3269 31.0816 39.0573 35.8058 38.7227 40.8539C38.3882 45.9019 40.0144 50.8842 43.2619 54.7628C46.5102 58.6414 51.1297 61.117 56.1581 61.6736C61.1867 62.2302 66.2355 60.8251 70.2536 57.7517C71.6341 56.7037 72.8658 55.4728 73.9138 54.093C76.8013 50.3099 78.2189 45.6081 77.9051 40.8598C77.5914 36.111 75.5675 31.6367 72.208 28.2663H72.2081ZM59.2592 28.5915C59.33 28.5915 59.4023 28.5915 59.4739 28.6017C59.6625 28.6176 59.8396 28.6414 60.0225 28.6638C60.2653 28.6949 60.5075 28.7281 60.7482 28.7715C60.9303 28.8048 61.111 28.8431 61.2917 28.8836C61.5288 28.9363 61.7637 28.9949 61.9964 29.0599C62.1728 29.1098 62.3477 29.1618 62.5212 29.2182C62.7539 29.2934 62.9831 29.3765 63.21 29.4647C63.3784 29.5297 63.5461 29.5948 63.7124 29.6663C63.9401 29.7603 64.1634 29.8738 64.386 29.9851C64.5436 30.0639 64.7004 30.1405 64.8573 30.2244C65.0843 30.3494 65.3047 30.4875 65.5252 30.6255C65.6654 30.713 65.8078 30.7968 65.9473 30.8901C66.1844 31.052 66.4186 31.2283 66.6426 31.4062C66.7525 31.4922 66.8689 31.571 66.9773 31.6606C67.3098 31.9345 67.6314 32.2251 67.9422 32.533C68.2509 32.8416 68.5414 33.164 68.8161 33.4958C68.9101 33.6056 68.9867 33.722 69.0741 33.834C69.2512 34.0617 69.4276 34.2887 69.5888 34.5265C69.6827 34.6638 69.7666 34.8091 69.8555 34.9493C69.9943 35.1691 70.1316 35.3881 70.2559 35.6151C70.3419 35.7697 70.4178 35.928 70.4973 36.0863C70.6087 36.309 70.7178 36.5308 70.8168 36.7593C70.8884 36.9248 70.9534 37.0925 71.0192 37.2616C71.1067 37.4886 71.1905 37.7177 71.2657 37.9504C71.3221 38.1239 71.3741 38.2988 71.424 38.4745C71.4869 38.7087 71.5461 38.9443 71.6011 39.1821C71.6415 39.3621 71.6791 39.5413 71.7124 39.7228C71.7557 39.9642 71.7897 40.207 71.8208 40.4521C71.8432 40.6342 71.8671 40.8156 71.883 40.9985C71.8887 41.0701 71.8887 41.1423 71.8931 41.2139L59.2592 41.2125L59.2592 28.5915ZM67.948 51.7842L67.9487 51.7835C64.7959 54.9465 60.292 56.361 55.8966 55.5703C51.502 54.7788 47.7738 51.8825 45.922 47.8196C44.0694 43.756 44.3275 39.0425 46.613 35.2059C48.8985 31.3693 52.9202 28.8972 57.3755 28.5916V42.1565C57.3755 42.4066 57.4746 42.6459 57.6517 42.8222C57.828 42.9993 58.068 43.0983 58.3174 43.0983H71.8888C71.6763 46.3763 70.2748 49.464 67.9488 51.7837L67.948 51.7842Z" fill="#6FCF97"/>
</svg>
