<svg width="76" height="89" viewBox="0 0 76 89" fill="none" xmlns="http://www.w3.org/2000/svg">
<path d="M54.5805 43.3549L51.745 40.5201C51.7139 40.5577 51.6771 40.5917 51.646 40.6285C51.2954 41.0376 50.9318 41.4388 50.5487 41.8233C50.1657 42.2079 49.7594 42.5772 49.3489 42.9256C49.312 42.9574 49.2773 42.995 49.2397 43.0261L52.0745 45.8616L54.5805 43.3549Z" fill="#6FCF97"/>
<path d="M68.7672 68.1907L68.7462 68.1842C68.5301 68.1387 68.3183 68.0758 68.1123 67.9956C68.0444 67.9695 67.9808 67.9385 67.9143 67.9081H67.915C67.7596 67.8373 67.6093 67.757 67.4632 67.6681C67.404 67.6305 67.3433 67.5958 67.2854 67.5554V67.5546C67.0874 67.4202 66.9016 67.2691 66.7296 67.1029L51.5443 52.1126C51.352 51.9196 51.1792 51.7078 51.0289 51.4808C51.0065 51.4461 50.992 51.4071 50.9703 51.3717H50.9711C50.8504 51.1831 50.7455 50.9843 50.6581 50.7776C50.6371 50.727 50.6299 50.6728 50.6111 50.6214V50.6207C50.5374 50.4292 50.4788 50.2318 50.4355 50.0302C50.335 49.5148 50.335 48.985 50.4355 48.4696C50.4716 48.315 50.5164 48.1624 50.5706 48.0136C50.6017 47.9196 50.6205 47.817 50.6595 47.7223H50.6588C50.721 47.5849 50.7904 47.4505 50.8684 47.3211L47.7213 44.174H47.7206C42.1152 48.1329 34.9572 49.1802 28.4526 46.9936C21.9479 44.807 16.8755 39.6485 14.7995 33.107C12.7228 26.5663 13.8917 19.4264 17.9452 13.889C21.9986 8.35078 28.4503 5.07875 35.3134 5.08023H35.3221H35.3214C40.6044 5.07951 45.7024 7.02313 49.6444 10.5411C53.5859 14.0583 56.0947 18.9031 56.6933 24.1516C57.2917 29.4005 55.9379 34.6858 52.8891 39.0001L56.0419 42.1523C56.631 41.8241 57.2924 41.6499 57.9667 41.6456H57.9739C59.0466 41.6456 60.0737 42.0764 60.8268 42.8396L68.7683 50.6712L68.7676 0.449982H0V89H68.7676L68.7672 68.1907ZM24.3747 51.3182H48.2779C48.7983 51.3182 49.2197 51.7396 49.2197 52.26C49.2197 52.7804 48.7983 53.2018 48.2779 53.2018H24.3747C23.855 53.2018 23.4329 52.7804 23.4329 52.26C23.4329 51.7396 23.855 51.3182 24.3747 51.3182ZM24.3747 56.2637H48.2779C48.7983 56.2637 49.2197 56.6858 49.2197 57.2055C49.2197 57.7259 48.7983 58.1481 48.2779 58.1481H24.3747C23.855 58.1481 23.4329 57.726 23.4329 57.2055C23.4329 56.6858 23.855 56.2637 24.3747 56.2637ZM4.39982 4.13846H18.6058C19.1262 4.13846 19.5476 4.56057 19.5476 5.08027C19.5476 5.60069 19.1262 6.02281 18.6058 6.02281H4.39982C3.88012 6.02281 3.45801 5.6007 3.45801 5.08027C3.45801 4.56057 3.88012 4.13846 4.39982 4.13846ZM3.45801 10.4969C3.45801 9.97651 3.88012 9.55512 4.39982 9.55512H13.8201C14.3405 9.55512 14.7619 9.97651 14.7619 10.4969C14.7619 11.0173 14.3405 11.4387 13.8201 11.4387H4.39982C3.88012 11.4387 3.45801 11.0173 3.45801 10.4969ZM20.678 82.932C20.678 83.1821 20.579 83.4213 20.4019 83.5984C20.2256 83.7748 19.9856 83.8738 19.7362 83.8738H6.29281C5.77239 83.8738 5.35027 83.4524 5.35027 82.932V69.4886C5.35027 68.9682 5.77238 68.5468 6.29281 68.5468H19.7362C19.9856 68.5468 20.2255 68.6458 20.4019 68.8222C20.579 68.9993 20.678 69.2385 20.678 69.4886V82.932ZM20.678 63.4697C20.678 63.7197 20.579 63.959 20.4019 64.1361C20.2256 64.3124 19.9856 64.4115 19.7362 64.4115H6.29281C5.77239 64.4115 5.35027 63.9901 5.35027 63.4697V50.0176C5.35027 49.4979 5.77238 49.0758 6.29281 49.0758H19.7362C19.9856 49.0758 20.2255 49.1748 20.4019 49.3519C20.579 49.5282 20.678 49.7682 20.678 50.0176V63.4697ZM47.1015 82.0993H24.3751C23.8554 82.0993 23.4333 81.6772 23.4333 81.1567C23.4333 80.637 23.8554 80.2149 24.3751 80.2149H47.1015C47.6219 80.2149 48.0433 80.637 48.0433 81.1567C48.0433 81.6772 47.6219 82.0993 47.1015 82.0993ZM56.1684 77.1538L24.3751 77.1531C23.8554 77.1531 23.4333 76.7317 23.4333 76.2112C23.4333 75.6908 23.8554 75.2694 24.3751 75.2694H56.1684C56.6888 75.2694 57.1102 75.6908 57.1102 76.2112C57.1102 76.7317 56.6888 77.1531 56.1684 77.1531V77.1538ZM56.1684 72.2083L24.3751 72.2075C23.8554 72.2075 23.4333 71.7862 23.4333 71.2657C23.4333 70.7453 23.8554 70.3239 24.3751 70.3239H56.1684C56.6888 70.3239 57.1102 70.7453 57.1102 71.2657C57.1102 71.7862 56.6888 72.2075 56.1684 72.2075V72.2083ZM56.1684 63.0937L24.3751 63.0929C23.8554 63.0929 23.4333 62.6708 23.4333 62.1511C23.4333 61.6307 23.8554 61.2086 24.3751 61.2086H56.1684C56.6888 61.2086 57.1102 61.6307 57.1102 62.1511C57.1102 62.6708 56.6888 63.0929 56.1684 63.0929V63.0937Z" fill="#6FCF97"/>
<path d="M7.23438 62.5285H18.7935V50.9607H7.23438V62.5285ZM8.33015 55.9467C8.69806 55.5788 9.29437 55.5788 9.66228 55.9467L11.7641 58.0486L16.3633 53.4443C16.5389 53.2629 16.7803 53.1595 17.0326 53.1573C17.2856 53.1552 17.5284 53.2542 17.7069 53.4327C17.8855 53.6112 17.9852 53.8548 17.9831 54.1071C17.9809 54.3601 17.8768 54.6008 17.6954 54.7764L12.4255 60.0463C12.0576 60.4142 11.4613 60.4142 11.0941 60.0463L8.32647 57.2787C7.95928 56.9093 7.96144 56.313 8.33008 55.9465L8.33015 55.9467Z" fill="#6FCF97"/>
<path d="M7.23438 81.9909H18.7935V70.431H7.23438V81.9909ZM8.33015 75.4126C8.69806 75.0447 9.29437 75.0447 9.66228 75.4126L11.7641 77.5144L16.3633 72.9109C16.5389 72.7287 16.7803 72.6253 17.0326 72.6232C17.2856 72.621 17.5284 72.72 17.7069 72.8986C17.8855 73.0778 17.9852 73.3207 17.9831 73.5729C17.9809 73.8259 17.8768 74.0673 17.6954 74.2423L12.4297 79.5121C12.0618 79.8801 11.4655 79.8801 11.0976 79.5121L8.33 76.7445C7.96209 76.3766 7.96209 75.7803 8.33 75.4124L8.33015 75.4126Z" fill="#6FCF97"/>
<path d="M71.1153 65.763L74.6736 62.2053C75.5128 61.3582 75.5128 59.992 74.6736 59.1449L59.4932 44.167H59.4925C59.0906 43.7579 58.5406 43.5273 57.9667 43.5266C57.4058 43.5266 56.8673 43.7456 56.4654 44.1374L52.8477 47.7536C52.036 48.5986 52.0469 49.9372 52.873 50.7677L68.0534 65.7456L68.0541 65.7463C68.9056 66.5776 70.2644 66.5776 71.1159 65.7463L71.1153 65.763Z" fill="#6FCF97"/>
<path d="M49.2086 12.7163C45.6315 9.13912 40.8125 7.07983 35.7543 6.96788C30.6969 6.85585 25.7911 8.69973 22.0593 12.1156C18.3274 15.5316 16.0577 20.2558 15.7232 25.3039C15.3887 30.3519 17.0149 35.3342 20.2624 39.2128C23.5107 43.0914 28.1302 45.567 33.1586 46.1236C38.1872 46.6802 43.236 45.2751 47.2541 42.2017C48.6346 41.1537 49.8663 39.9228 50.9143 38.543C53.8018 34.7599 55.2194 30.0581 54.9056 25.3098C54.5919 20.561 52.568 16.0867 49.2084 12.7163H49.2086ZM36.2597 13.0415C36.3305 13.0415 36.4028 13.0415 36.4743 13.0517C36.663 13.0676 36.8401 13.0914 37.0229 13.1138C37.2658 13.1449 37.5079 13.1781 37.7486 13.2215C37.9308 13.2548 38.1115 13.2931 38.2922 13.3335C38.5293 13.3863 38.7642 13.4449 38.9969 13.5099C39.1733 13.5598 39.3482 13.6118 39.5217 13.6682C39.7544 13.7434 39.9836 13.8265 40.2105 13.9147C40.3789 13.9797 40.5466 14.0448 40.7129 14.1163C40.9406 14.2103 41.1639 14.3238 41.3865 14.4351C41.5441 14.5139 41.7009 14.5905 41.8578 14.6744C42.0848 14.7994 42.3052 14.9375 42.5257 15.0755C42.6659 15.163 42.8083 15.2468 42.9478 15.3401C43.1848 15.502 43.419 15.6783 43.6431 15.8562C43.753 15.9422 43.8694 16.021 43.9778 16.1106C44.3103 16.3845 44.6319 16.6751 44.9427 16.983C45.2513 17.2916 45.5419 17.614 45.8166 17.9458C45.9106 18.0556 45.9872 18.172 46.0746 18.284C46.2517 18.5117 46.4281 18.7387 46.5892 18.9765C46.6832 19.1138 46.7671 19.2591 46.856 19.3993C46.9947 19.6191 47.1321 19.8381 47.2564 20.0651C47.3424 20.2197 47.4183 20.378 47.4978 20.5363C47.6091 20.7589 47.7183 20.9808 47.8173 21.2093C47.8889 21.3748 47.9539 21.5425 48.0197 21.7116C48.1072 21.9386 48.191 22.1677 48.2662 22.4004C48.3226 22.5739 48.3746 22.7488 48.4245 22.9245C48.4874 23.1587 48.5466 23.3943 48.6016 23.6321C48.642 23.8121 48.6796 23.9913 48.7129 24.1728C48.7562 24.4142 48.7902 24.657 48.8213 24.9021C48.8437 25.0842 48.8675 25.2656 48.8834 25.4485C48.8892 25.5201 48.8892 25.5923 48.8936 25.6639L36.2597 25.6625L36.2597 13.0415ZM44.9485 36.2342L44.9492 36.2335C41.7964 39.3965 37.2925 40.811 32.8971 40.0203C28.5025 39.2288 24.7743 36.3325 22.9225 32.2696C21.0699 28.206 21.328 23.4925 23.6135 19.6559C25.899 15.8193 29.9207 13.3472 34.376 13.0416V26.6065C34.376 26.8566 34.4751 27.0959 34.6521 27.2722C34.8285 27.4493 35.0685 27.5483 35.3179 27.5483H48.8893C48.6768 30.8263 47.2753 33.914 44.9493 36.2337L44.9485 36.2342Z" fill="#6FCF97"/>
</svg>
