<svg width="92" height="92" viewBox="0 0 92 92" fill="none" xmlns="http://www.w3.org/2000/svg">
<path d="M0.25 30.55V82.4C0.25 87.4454 4.3546 91.55 9.4 91.55H82.6C87.6454 91.55 91.75 87.4454 91.75 82.4V30.55H0.25ZM59.0749 79.35L45.9995 71.5132L32.924 79.35L36.8495 64.9728L27.6995 54.5184H40.7749L45.9995 42.7502L51.224 54.5184H64.2995L55.1495 64.9728L59.0749 79.35ZM24.65 6.14999H18.55V3.09999C18.55 1.42317 19.9232 0.0499878 21.6 0.0499878C23.2768 0.0499878 24.65 1.42317 24.65 3.09999V6.14999ZM73.45 3.09999C73.45 1.42317 72.0768 0.0499878 70.4 0.0499878C68.7232 0.0499878 67.35 1.42317 67.35 3.09999V6.14999H73.45V3.09999ZM82.6 6.14999H73.45V9.19999C73.45 10.8768 72.0768 12.25 70.4 12.25C68.7232 12.25 67.35 10.8768 67.35 9.19999V6.14999H24.65V9.19999C24.65 10.8768 23.2768 12.25 21.6 12.25C19.9232 12.25 18.55 10.8768 18.55 9.19999V6.14999H9.4C4.36611 6.14999 0.25 10.2675 0.25 15.3V24.45H91.75V15.3C91.75 10.2675 87.6339 6.14999 82.6 6.14999Z" fill="#1877F2"/>
</svg>
