<svg width="106" height="62" viewBox="0 0 106 62" fill="none" xmlns="http://www.w3.org/2000/svg">
<path d="M64.3577 44.467C61.9372 44.0242 60.3529 41.2711 59.3252 38.2305C62.7664 34.8503 65.8024 31.5979 66.7941 25.8309C69.4711 10.2692 59.2626 5.64902 52.8167 5.64902C46.3708 5.64902 36.1623 10.2678 38.8393 25.8309C39.8301 31.5979 42.8668 34.8503 46.3082 38.2305C45.2813 41.2735 43.6962 44.025 41.2757 44.467C35.5062 45.5167 24.4888 52.3333 24.4888 61.2539H81.1454C81.1454 52.3333 70.128 45.5166 64.3585 44.467H64.3577Z" fill="#A72314"/>
<path d="M88.8475 38.814C86.4269 38.3758 84.8426 35.6181 83.8149 32.5774C87.2561 29.1997 90.2921 25.9449 91.2839 20.1779C93.9609 4.61372 83.7523 0 77.3064 0C73.0405 0 67.1448 2.04508 64.4098 7.92266C64.8214 8.31147 65.2125 8.7183 65.5763 9.14945C67.9884 12.0131 70.5438 17.2973 69.0082 26.2109C68.7856 27.4964 68.4642 28.6567 68.0777 29.7399C68.9337 30.7112 69.8462 31.6417 70.7993 32.5761C69.7724 35.6167 68.1873 38.3746 65.7668 38.8127C64.7846 38.9922 63.6494 39.3473 62.4424 39.8443C63.1753 41.2443 63.9796 42.1143 64.7596 42.254C69.9944 43.2072 78.8673 48.3025 82.1312 55.5997H105.634C105.634 46.6861 94.6191 39.8623 88.8474 38.815L88.8475 38.814Z" fill="#A72314"/>
<path d="M40.8764 42.2556C41.6587 42.1137 42.4591 41.2467 43.1912 39.8459C41.9864 39.3489 40.8489 38.9938 39.8668 38.8143C37.4463 38.3761 35.8619 35.6183 34.8343 32.5777C35.7875 31.6425 36.6999 30.712 37.5558 29.7416C37.1694 28.6582 36.848 27.4988 36.6254 26.2125C35.0905 17.2989 37.646 12.0171 40.0573 9.15108C40.4195 8.72151 40.8122 8.31309 41.2237 7.92428C38.4863 2.04671 32.5931 0.00162506 28.3271 0.00162506C21.8812 0.00162506 11.6727 4.61555 14.3497 20.1795C15.3405 25.9443 18.3772 29.2013 21.8186 32.5791C20.7917 35.6197 19.2066 38.3776 16.7861 38.8156C11.0151 39.8606 0 46.6843 0 55.5979H23.5031C26.7641 48.303 35.6377 43.2078 40.8772 42.2546L40.8764 42.2556Z" fill="#A72314"/>
</svg>
