<svg width="121" height="121" viewBox="0 0 121 121" fill="none" xmlns="http://www.w3.org/2000/svg">
<path d="M72.3573 74.4671C69.9367 74.0242 68.3524 71.2711 67.3247 68.2305C70.7659 64.8503 73.8019 61.598 74.7937 55.831C77.4707 40.2692 67.2621 35.649 60.8162 35.649C54.3703 35.649 44.1618 40.2678 46.8388 55.831C47.8296 61.598 50.8663 64.8503 54.3077 68.2305C53.2808 71.2735 51.6957 74.025 49.2752 74.4671C43.5058 75.5167 32.4883 82.3333 32.4883 91.254H89.1449C89.1449 82.3333 78.1275 75.5166 72.3581 74.4671H72.3573Z" fill="#A72314"/>
<path d="M96.8475 68.814C94.4269 68.3758 92.8426 65.6181 91.8149 62.5774C95.2561 59.1997 98.2921 55.9449 99.2839 50.1779C101.961 34.6137 91.7523 30 85.3064 30C81.0405 30 75.1448 32.0451 72.4098 37.9227C72.8214 38.3115 73.2125 38.7183 73.5763 39.1494C75.9884 42.0131 78.5438 47.2973 77.0082 56.2109C76.7856 57.4964 76.4642 58.6567 76.0777 59.7399C76.9337 60.7112 77.8462 61.6417 78.7993 62.5761C77.7724 65.6167 76.1873 68.3746 73.7668 68.8127C72.7846 68.9922 71.6494 69.3473 70.4424 69.8443C71.1753 71.2443 71.9796 72.1143 72.7596 72.254C77.9944 73.2072 86.8673 78.3025 90.1312 85.5997H113.634C113.634 76.6861 102.619 69.8623 96.8474 68.815L96.8475 68.814Z" fill="#A72314"/>
<path d="M48.8764 72.2556C49.6587 72.1137 50.4591 71.2467 51.1912 69.8458C49.9864 69.3489 48.8489 68.9938 47.8668 68.8143C45.4463 68.3761 43.8619 65.6183 42.8343 62.5777C43.7875 61.6425 44.6999 60.712 45.5558 59.7415C45.1694 58.6582 44.848 57.4988 44.6254 56.2124C43.0905 47.2989 45.646 42.0171 48.0573 39.151C48.4195 38.7215 48.8122 38.3131 49.2237 37.9242C46.4863 32.0467 40.5931 30.0016 36.3271 30.0016C29.8812 30.0016 19.6727 34.6155 22.3497 50.1795C23.3405 55.9443 26.3772 59.2012 29.8186 62.579C28.7917 65.6196 27.2066 68.3775 24.7861 68.8156C19.0151 69.8605 8 76.6843 8 85.5979H31.5031C34.7641 78.3029 43.6377 73.2078 48.8772 72.2546L48.8764 72.2556Z" fill="#A72314"/>
</svg>
