<svg width="74" height="62" viewBox="0 0 74 62" fill="none" xmlns="http://www.w3.org/2000/svg">
<path d="M56.108 40.1636L56.1093 40.1619C56.8344 39.1854 57.172 37.9754 57.0569 36.765L57.0569 36.7649C56.9419 35.5508 56.3794 34.4225 55.4789 33.5991L55.4778 33.5982C54.743 32.9225 53.8958 32.8921 52.9682 32.8741L52.968 32.8741L52.9326 32.8734C52.3752 32.8624 51.7646 32.8504 51.1716 32.6426C50.5433 32.4225 49.9715 31.9998 49.4381 31.238C48.9 30.5252 48.1641 29.9853 47.3224 29.6852L56.108 40.1636ZM56.108 40.1636C55.5815 40.8425 55.3 41.3886 55.2369 41.979C55.1784 42.5272 55.3194 43.0607 55.4759 43.6527C55.4809 43.6714 55.4858 43.6902 55.4908 43.709L55.501 43.7477C55.6051 44.145 55.7182 44.5762 55.8123 45.0935L55.8137 45.1008M56.108 40.1636L55.8137 45.1008M55.8137 45.1008L55.8152 45.1081M55.8137 45.1008L55.8152 45.1081M55.8152 45.1081C56.0022 45.9856 55.7925 46.9009 55.2429 47.6096C54.4935 48.4793 53.4083 48.9879 52.2605 49.0066L52.2526 49.0067M55.8152 45.1081L52.2526 49.0067M52.2526 49.0067L52.2448 49.0071M52.2526 49.0067L52.2448 49.0071M52.2448 49.0071C52.1178 49.0132 51.9972 49.0164 51.8837 49.0164C51.1432 49.0164 50.6657 48.8827 50.2471 48.6044C49.8061 48.3113 49.3872 47.8306 48.8188 47.037L48.8188 47.037M52.2448 49.0071L48.8188 47.037M48.8188 47.037C48.5464 46.6568 48.2198 46.4384 47.7867 46.3664C47.4206 46.3055 46.9939 46.3558 46.5362 46.4147M48.8188 47.037L46.5362 46.4147M46.5362 46.4147H46.5186L46.4702 46.4243C45.4868 46.6201 44.4671 46.5308 43.5321 46.1672C42.4683 45.7004 41.658 44.7972 41.3085 43.6888L41.3079 43.687C40.8455 42.2398 41.0118 40.6648 41.7658 39.3463C42.528 38.196 42.7322 36.7632 42.3205 35.4458C42.0866 34.4946 42.0206 33.5099 42.1262 32.5362L42.1271 32.528L42.1277 32.5198C42.1806 31.8174 42.4576 31.1505 42.9178 30.6165M46.5362 46.4147L47.3224 29.6852C46.4777 29.3846 45.5635 29.3385 44.6926 29.5528L44.6839 29.5549L44.6839 29.5549C43.9968 29.711 43.3778 30.0828 42.9178 30.6165M42.9178 30.6165L42.5391 30.2901L42.9178 30.6165Z" fill="#F2B05C" stroke="#F2B05C"/>
<path d="M37.0592 35.5227C37.1117 34.3191 36.9492 33.1155 36.5789 31.9688M37.0592 35.5227L36.5604 35.4877C36.5603 35.4899 36.5601 35.4922 36.5599 35.4944M37.0592 35.5227C36.275 46.699 36.3874 50.7056 37.5203 52.0114L37.0592 35.5227ZM36.5789 31.9688L36.5599 35.4944M36.5789 31.9688C36.2907 31.0716 36.1384 30.1361 36.1271 29.1937L36.5789 31.9688ZM36.5599 35.4944C36.609 34.3523 36.4544 33.2105 36.1031 32.1224L36.1029 32.1217C35.7993 31.177 35.6391 30.192 35.6272 29.1997L35.627 29.1902L35.6273 29.1806C35.6533 28.1894 35.9152 27.3147 36.4705 26.5738C37.0224 25.8374 37.8348 25.2725 38.8957 24.8451C40.9978 23.9982 44.1918 23.6466 48.6593 23.6466C53.1268 23.6466 56.3207 23.9977 58.4228 24.8444C59.4836 25.2717 60.296 25.8365 60.848 26.5731C61.4033 27.314 61.6652 28.1889 61.6914 29.1806L61.6916 29.1901L61.6915 29.1997C61.6796 30.192 61.5193 31.1771 61.2158 32.1217L61.2156 32.1223C60.8636 33.2127 60.7095 34.3574 60.76 35.5026L60.7596 35.5027C61.1509 41.0821 61.3204 44.8953 61.248 47.4821C61.2118 48.7765 61.1147 49.7836 60.9477 50.5606C60.7816 51.3337 60.5376 51.9223 60.1757 52.3392L60.1757 52.3392C59.3591 53.2795 58.0782 53.9346 56.388 54.358C54.6934 54.7826 52.539 54.9865 49.9159 54.9865H47.4026C44.779 54.9865 42.6247 54.7828 40.9303 54.3584C39.2402 53.9351 37.9595 53.28 37.1427 52.3392L37.1426 52.3391C36.781 51.9223 36.5372 51.3338 36.3712 50.5608C36.2043 49.7839 36.1072 48.7768 36.071 47.4825C35.9986 44.8944 36.1682 41.0785 36.5599 35.4944ZM48.6595 21.5695C58.7235 21.5695 62.3382 24.3161 63.6334 26.454L63.6774 26.5293C64.7334 28.3338 64.6699 30.5445 63.4027 32.7965L63.395 32.8102L63.3881 32.8244C62.8759 33.8856 62.665 35.0671 62.7785 36.2396L62.8222 36.6915H62.8243C62.9691 38.1815 63.2389 41.4039 63.2388 44.691C63.2387 46.5275 63.1542 48.3698 62.9207 49.9353C62.6835 51.5255 62.3043 52.7385 61.7779 53.3961C61.0159 54.3478 59.7195 55.1096 57.8232 55.631C55.9309 56.1513 53.4862 56.4197 50.4892 56.4197H46.8326C43.8355 56.4197 41.3908 56.1514 39.4985 55.6312C37.6021 55.1098 36.3059 54.3481 35.5445 53.3962L35.5444 53.3961C35.0178 52.7383 34.6385 51.5251 34.4012 49.9348C34.1676 48.3692 34.0832 46.5268 34.0831 44.6904C34.083 41.0195 34.4197 37.4294 34.5425 36.243L34.5425 36.243L34.5429 36.2394C34.6558 35.067 34.4449 33.8857 33.9333 32.8246L33.9263 32.8101L33.9184 32.796C32.6472 30.5432 32.5858 28.3326 33.6395 26.5293C34.8972 24.3822 38.4778 21.5695 48.6595 21.5695Z" fill="#F2B05C" stroke="#F2B05C"/>
<path d="M52.4855 47.8939C53.2143 47.8209 53.8931 47.4767 54.3838 46.9245C54.7345 46.4662 54.8639 45.8758 54.7361 45.3129L54.7338 45.3027L54.7319 45.2925C54.6415 44.7992 54.5306 44.3774 54.4284 43.9903L54.4284 43.9902L54.4179 43.9505C54.2464 43.3009 54.0726 42.6422 54.1387 41.9232C54.208 41.171 54.5304 40.4067 55.2371 39.4946C55.7976 38.736 56.0569 37.7971 55.9651 36.8585C55.8725 35.9179 55.4341 35.0459 54.7349 34.4109L54.7334 34.4095C54.3072 34.0194 53.8307 33.9913 52.9447 33.9739L52.6651 33.9685L52.6647 33.9678C52.1172 33.9531 51.4708 33.9099 50.8109 33.6793C50.0196 33.4028 49.238 32.8694 48.5369 31.872C48.1252 31.3428 47.5702 30.9434 46.9377 30.7208L52.4855 47.8939ZM52.4855 47.8939L52.1879 47.9085C51.5148 47.9416 51.1913 47.8906 50.9089 47.7237C50.5979 47.54 50.2737 47.1805 49.7161 46.4032C49.202 45.6349 48.3226 45.1927 47.3991 45.2387C47.0489 45.2468 46.6996 45.2771 46.3528 45.3295L46.3381 45.3317L46.3236 45.3348C45.5351 45.5024 44.7151 45.4399 43.9614 45.1546C43.1885 44.8092 42.6013 44.1485 42.3503 43.34L42.3504 43.34L42.3495 43.3373C41.9851 42.1869 42.1201 40.9367 42.7207 39.8902C43.6171 38.5085 43.8642 36.8041 43.3972 35.2246C43.1873 34.3866 43.1265 33.5183 43.2181 32.6597L43.2192 32.6495L43.2198 32.6393C43.2511 32.1613 43.4368 31.7063 43.7489 31.3425C44.0612 30.9789 44.4826 30.7262 44.9502 30.6229L44.9502 30.623L44.9596 30.6208C45.6152 30.4627 46.302 30.4975 46.9377 30.7208L52.4855 47.8939Z" fill="#F2B05C" stroke="#F2B05C"/>
<mask id="path-4-inside-1_280_4764" fill="white">
<path d="M30.8299 27.6848C30.6924 27.0322 30.5519 26.4704 30.4007 25.9694C29.7628 23.8245 29.1141 22.1434 28.5425 20.66C27.522 18.0126 26.7073 15.8927 26.3337 12.382V12.3815C27.0374 12.1792 27.5226 11.5368 27.525 10.8047V8.02575C27.524 7.15066 27.1759 6.31188 26.5576 5.69312C25.9389 5.07436 25.1001 4.72669 24.225 4.72571H16.8781C16.003 4.72669 15.1643 5.07436 14.5455 5.69312C13.9267 6.31187 13.5791 7.15065 13.5781 8.02575V10.8047C13.5815 11.5319 14.0603 12.1708 14.7571 12.3781C14.38 15.8785 13.5648 18.0136 12.5443 20.6791C11.9771 22.1641 11.3343 23.8411 10.7013 25.9674C10.5511 26.4698 10.4106 27.0311 10.2731 27.6823C9.12894 33.0213 8.96194 41.3286 9.16675 46.8223L9.16626 46.8228C9.19474 49.1868 9.42702 51.5445 9.86014 53.8687C10.3841 55.9007 13.2004 56.5435 15.2698 56.849C17.0534 57.0685 18.8487 57.1785 20.6455 57.179C22.379 57.1844 24.1105 57.0744 25.8293 56.849C27.902 56.5426 30.7184 55.9002 31.2424 53.8682C31.6755 51.5435 31.9078 49.1858 31.9358 46.8213C32.141 41.3316 31.9736 33.0241 30.8299 27.6851L30.8299 27.6848ZM11.7552 26.2828C12.3759 24.1957 13.0114 22.5364 13.5703 21.0726C14.7459 18.326 15.515 15.4233 15.8543 12.4548H25.2337C25.5652 15.4184 26.3337 18.3167 27.5148 21.0554C28.0795 22.5207 28.7194 24.181 29.3464 26.2848C29.4378 26.5888 29.5252 26.9208 29.6111 27.2822L29.6106 27.2817C23.5748 27.6122 17.5253 27.6122 11.4889 27.2817C11.5763 26.9203 11.6637 26.5878 11.7551 26.2829L11.7552 26.2828ZM21.0659 42.3152C20.7364 42.4433 20.3705 42.4433 20.041 42.3152C14.981 40.3578 13.8418 36.741 15.4864 34.3687C16.469 32.9554 19.1788 32.5723 20.3372 34.0691H20.3377C20.3888 34.1364 20.4688 34.1762 20.5533 34.1762C20.6382 34.1762 20.7183 34.1364 20.7694 34.0691C21.9283 32.5723 24.6376 32.9553 25.6202 34.3687C27.2648 36.741 26.1274 40.3578 21.0659 42.3152H21.0659ZM30.1768 53.5936C29.9062 54.6435 28.4315 55.3536 25.6668 55.7617H25.6663C24.03 55.9704 22.3825 56.077 20.733 56.0794C18.9627 56.0716 17.1939 55.965 15.4353 55.7612C12.6721 55.3526 11.1968 54.6435 10.9253 53.5941C10.5437 51.5498 10.3316 49.477 10.2908 47.3978C14.0588 47.7185 17.6377 47.884 21.059 47.884C24.3152 47.8879 27.5696 47.7288 30.8102 47.4067C30.7694 49.483 30.5577 51.5523 30.1762 53.5937L30.1768 53.5936Z"/>
</mask>
<path d="M30.8299 27.6848C30.6924 27.0322 30.5519 26.4704 30.4007 25.9694C29.7628 23.8245 29.1141 22.1434 28.5425 20.66C27.522 18.0126 26.7073 15.8927 26.3337 12.382V12.3815C27.0374 12.1792 27.5226 11.5368 27.525 10.8047V8.02575C27.524 7.15066 27.1759 6.31188 26.5576 5.69312C25.9389 5.07436 25.1001 4.72669 24.225 4.72571H16.8781C16.003 4.72669 15.1643 5.07436 14.5455 5.69312C13.9267 6.31187 13.5791 7.15065 13.5781 8.02575V10.8047C13.5815 11.5319 14.0603 12.1708 14.7571 12.3781C14.38 15.8785 13.5648 18.0136 12.5443 20.6791C11.9771 22.1641 11.3343 23.8411 10.7013 25.9674C10.5511 26.4698 10.4106 27.0311 10.2731 27.6823C9.12894 33.0213 8.96194 41.3286 9.16675 46.8223L9.16626 46.8228C9.19474 49.1868 9.42702 51.5445 9.86014 53.8687C10.3841 55.9007 13.2004 56.5435 15.2698 56.849C17.0534 57.0685 18.8487 57.1785 20.6455 57.179C22.379 57.1844 24.1105 57.0744 25.8293 56.849C27.902 56.5426 30.7184 55.9002 31.2424 53.8682C31.6755 51.5435 31.9078 49.1858 31.9358 46.8213C32.141 41.3316 31.9736 33.0241 30.8299 27.6851L30.8299 27.6848ZM11.7552 26.2828C12.3759 24.1957 13.0114 22.5364 13.5703 21.0726C14.7459 18.326 15.515 15.4233 15.8543 12.4548H25.2337C25.5652 15.4184 26.3337 18.3167 27.5148 21.0554C28.0795 22.5207 28.7194 24.181 29.3464 26.2848C29.4378 26.5888 29.5252 26.9208 29.6111 27.2822L29.6106 27.2817C23.5748 27.6122 17.5253 27.6122 11.4889 27.2817C11.5763 26.9203 11.6637 26.5878 11.7551 26.2829L11.7552 26.2828ZM21.0659 42.3152C20.7364 42.4433 20.3705 42.4433 20.041 42.3152C14.981 40.3578 13.8418 36.741 15.4864 34.3687C16.469 32.9554 19.1788 32.5723 20.3372 34.0691H20.3377C20.3888 34.1364 20.4688 34.1762 20.5533 34.1762C20.6382 34.1762 20.7183 34.1364 20.7694 34.0691C21.9283 32.5723 24.6376 32.9553 25.6202 34.3687C27.2648 36.741 26.1274 40.3578 21.0659 42.3152H21.0659ZM30.1768 53.5936C29.9062 54.6435 28.4315 55.3536 25.6668 55.7617H25.6663C24.03 55.9704 22.3825 56.077 20.733 56.0794C18.9627 56.0716 17.1939 55.965 15.4353 55.7612C12.6721 55.3526 11.1968 54.6435 10.9253 53.5941C10.5437 51.5498 10.3316 49.477 10.2908 47.3978C14.0588 47.7185 17.6377 47.884 21.059 47.884C24.3152 47.8879 27.5696 47.7288 30.8102 47.4067C30.7694 49.483 30.5577 51.5523 30.1762 53.5937L30.1768 53.5936Z" fill="#F2B05C"/>
<path d="M30.8299 27.6848L31.8288 27.6387L31.8251 27.5578L31.8084 27.4786L30.8299 27.6848ZM30.4007 25.9694L29.4421 26.2545L29.4434 26.2585L30.4007 25.9694ZM28.5425 20.66L29.4756 20.3004L29.4756 20.3004L28.5425 20.66ZM26.3337 12.382H25.3337V12.435L25.3393 12.4878L26.3337 12.382ZM26.3337 12.3815L26.0574 11.4204L25.3337 11.6285V12.3815H26.3337ZM27.525 10.8047L28.525 10.808V10.8047H27.525ZM27.525 8.02575H28.525V8.02462L27.525 8.02575ZM26.5576 5.69312L27.265 4.9863L27.2647 4.98601L26.5576 5.69312ZM24.225 4.72571L24.2261 3.72571H24.225V4.72571ZM16.8781 4.72571V3.72571L16.877 3.72571L16.8781 4.72571ZM14.5455 5.69312L13.8384 4.986L13.8384 4.98601L14.5455 5.69312ZM13.5781 8.02575L12.5781 8.02463V8.02575H13.5781ZM13.5781 10.8047H12.5781L12.5781 10.8094L13.5781 10.8047ZM14.7571 12.3781L15.7514 12.4852L15.8406 11.6571L15.0423 11.4196L14.7571 12.3781ZM12.5443 20.6791L11.6104 20.3216L11.6101 20.3223L12.5443 20.6791ZM10.7013 25.9674L11.6594 26.254L11.6598 26.2527L10.7013 25.9674ZM10.2731 27.6823L11.2509 27.8919L11.2516 27.8889L10.2731 27.6823ZM9.16675 46.8223L9.87386 47.5294L10.1823 47.221L10.1661 46.785L9.16675 46.8223ZM9.16626 46.8228L8.45915 46.1157L8.16126 46.4136L8.16633 46.8348L9.16626 46.8228ZM9.86014 53.8687L8.87706 54.0519L8.88331 54.0854L8.89181 54.1184L9.86014 53.8687ZM15.2698 56.849L15.1237 57.8383L15.1356 57.84L15.1476 57.8415L15.2698 56.849ZM20.6455 57.179L20.6487 56.179H20.6458L20.6455 57.179ZM25.8293 56.849L25.9593 57.8405L25.9674 57.8394L25.9755 57.8382L25.8293 56.849ZM31.2424 53.8682L32.2107 54.1179L32.2192 54.0849L32.2255 54.0513L31.2424 53.8682ZM31.9358 46.8213L30.9365 46.7839L30.936 46.7967L30.9358 46.8094L31.9358 46.8213ZM30.8299 27.6851L29.8309 27.7312L29.8348 27.8137L29.8521 27.8945L30.8299 27.6851ZM11.7552 26.2828L12.0679 27.2327L12.5647 27.0692L12.7137 26.5679L11.7552 26.2828ZM13.5703 21.0726L12.651 20.6791L12.6432 20.6974L12.6361 20.7159L13.5703 21.0726ZM15.8543 12.4548V11.4548H14.9621L14.8607 12.3412L15.8543 12.4548ZM25.2337 12.4548L26.2275 12.3436L26.1281 11.4548H25.2337V12.4548ZM27.5148 21.0554L28.4479 20.6958L28.4408 20.6774L28.433 20.6594L27.5148 21.0554ZM29.3464 26.2848L28.3881 26.5705L28.3887 26.5726L29.3464 26.2848ZM29.6111 27.2822L28.904 27.9893L31.4008 30.4861L30.584 27.0509L29.6111 27.2822ZM29.6106 27.2817L30.3177 26.5746L30.0019 26.2588L29.556 26.2832L29.6106 27.2817ZM11.4889 27.2817L10.5169 27.0467L10.2345 28.2145L11.4343 28.2802L11.4889 27.2817ZM11.7551 26.2829L11.4425 25.333L10.9468 25.4961L10.7971 25.996L11.7551 26.2829ZM21.0659 42.3152V41.3152H20.8783L20.7034 41.3832L21.0659 42.3152ZM20.041 42.3152L20.4035 41.3832L20.4018 41.3825L20.041 42.3152ZM15.4864 34.3687L14.6653 33.7978L14.6646 33.7989L15.4864 34.3687ZM20.3372 34.0691L19.5464 34.6812L19.8467 35.0691H20.3372V34.0691ZM20.3377 34.0691L21.1342 33.4645L20.8341 33.0691H20.3377V34.0691ZM20.7694 34.0691L19.9786 33.4568L19.9729 33.4644L20.7694 34.0691ZM25.6202 34.3687L26.442 33.7989L26.4412 33.7978L25.6202 34.3687ZM21.0659 42.3152V43.3152H21.2525L21.4266 43.2479L21.0659 42.3152ZM30.1768 53.5936L31.1451 53.8432L31.496 52.4817L30.0948 52.597L30.1768 53.5936ZM25.6668 55.7617V56.7617H25.7402L25.8128 56.751L25.6668 55.7617ZM25.6663 55.7617V54.7617H25.6028L25.5398 54.7697L25.6663 55.7617ZM20.733 56.0794L20.7286 57.0794L20.7345 57.0794L20.733 56.0794ZM15.4353 55.7612L15.289 56.7505L15.3046 56.7528L15.3202 56.7546L15.4353 55.7612ZM10.9253 53.5941L9.94225 53.7776L9.94856 53.8114L9.95717 53.8447L10.9253 53.5941ZM10.2908 47.3978L10.3756 46.4014L9.26924 46.3073L9.291 47.4174L10.2908 47.3978ZM21.059 47.884L21.0602 46.884H21.059V47.884ZM30.8102 47.4067L31.81 47.4263L31.8321 46.3001L30.7112 46.4116L30.8102 47.4067ZM30.1762 53.5937L29.1932 53.4099L28.9525 54.6977L30.2582 54.5903L30.1762 53.5937ZM31.8084 27.4786C31.6666 26.8055 31.5194 26.215 31.358 25.6804L29.4434 26.2585C29.5844 26.7257 29.7182 27.2589 29.8514 27.891L31.8084 27.4786ZM31.3592 25.6844C30.709 23.4981 30.0475 21.7846 29.4756 20.3004L27.6094 21.0196C28.1807 22.5023 28.8166 24.1509 29.4422 26.2545L31.3592 25.6844ZM29.4756 20.3004C28.4604 17.6667 27.687 15.6492 27.3281 12.2762L25.3393 12.4878C25.7276 16.1362 26.5836 18.3585 27.6094 21.0197L29.4756 20.3004ZM27.3337 12.382V12.3815H25.3337V12.382H27.3337ZM26.61 13.3426C27.7412 13.0173 28.5211 11.9846 28.525 10.808L26.525 10.8013C26.5241 11.089 26.3336 11.341 26.0574 11.4204L26.61 13.3426ZM28.525 10.8047V8.02575H26.525V10.8047H28.525ZM28.525 8.02462C28.5237 6.88462 28.0702 5.79213 27.265 4.9863L25.8502 6.39994C26.2816 6.83163 26.5243 7.41671 26.525 8.02687L28.525 8.02462ZM27.2647 4.98601C26.4585 4.17982 25.3658 3.72699 24.2261 3.72571L24.2239 5.72571C24.8344 5.72639 25.4192 5.96891 25.8505 6.40022L27.2647 4.98601ZM24.225 3.72571H16.8781V5.72571H24.225V3.72571ZM16.877 3.72571C15.7373 3.72699 14.6446 4.17982 13.8384 4.986L15.2526 6.40023C15.6839 5.96891 16.2687 5.72639 16.8792 5.72571L16.877 3.72571ZM13.8384 4.98601C13.0322 5.7922 12.5794 6.88495 12.5781 8.02463L14.5781 8.02687C14.5788 7.41635 14.8213 6.83154 15.2526 6.40022L13.8384 4.98601ZM12.5781 8.02575V10.8047H14.5781V8.02575H12.5781ZM12.5781 10.8094C12.5836 11.9772 13.3526 13.0036 14.472 13.3366L15.0423 11.4196C14.768 11.338 14.5794 11.0866 14.5781 10.7999L12.5781 10.8094ZM13.7629 12.271C13.4004 15.6351 12.6261 17.6688 11.6104 20.3216L13.4782 21.0367C14.5036 18.3584 15.3596 16.1218 15.7514 12.4852L13.7629 12.271ZM11.6101 20.3223C11.043 21.8071 10.3878 23.5158 9.74291 25.6821L11.6598 26.2527C12.2808 24.1664 12.9113 22.521 13.4785 21.036L11.6101 20.3223ZM9.74329 25.6809C9.58349 26.2151 9.43657 26.8038 9.29471 27.4757L11.2516 27.8889C11.3847 27.2583 11.5187 26.7245 11.6594 26.254L9.74329 25.6809ZM9.29534 27.4727C8.1242 32.9374 7.9619 41.3463 8.16744 46.8596L10.1661 46.785C9.96197 41.3109 10.1337 33.1051 11.2509 27.8919L9.29534 27.4727ZM8.45964 46.1152L8.45915 46.1157L9.87337 47.5299L9.87386 47.5294L8.45964 46.1152ZM8.16633 46.8348C8.19551 49.2564 8.43343 51.6713 8.87706 54.0519L10.8432 53.6855C10.4206 51.4177 10.194 49.1173 10.1662 46.8107L8.16633 46.8348ZM8.89181 54.1184C9.26574 55.5685 10.4361 56.4166 11.5823 56.9215C12.7391 57.431 14.0712 57.6829 15.1237 57.8383L15.4158 55.8597C14.3989 55.7096 13.2882 55.4874 12.3885 55.0911C11.4783 54.6902 10.9785 54.2009 10.8285 53.619L8.89181 54.1184ZM15.1476 57.8415C16.9718 58.066 18.8078 58.1785 20.6453 58.179L20.6458 56.179C18.8896 56.1785 17.135 56.071 15.3919 55.8565L15.1476 57.8415ZM20.6424 58.179C22.4203 58.1845 24.1962 58.0717 25.9593 57.8405L25.6992 55.8575C24.0247 56.0771 22.3377 56.1843 20.6487 56.179L20.6424 58.179ZM25.9755 57.8382C27.0295 57.6824 28.3624 57.4304 29.5196 56.9209C30.6662 56.4161 31.8367 55.5681 32.2107 54.1179L30.2741 53.6185C30.124 54.2003 29.6244 54.6895 28.7137 55.0905C27.8135 55.4868 26.7018 55.7091 25.683 55.8598L25.9755 57.8382ZM32.2255 54.0513C32.6691 51.6702 32.907 49.2553 32.9357 46.8331L30.9358 46.8094C30.9085 49.1164 30.6819 51.4167 30.2593 53.685L32.2255 54.0513ZM32.9351 46.8586C33.1411 41.3492 32.9783 32.9403 31.8077 27.4756L29.8521 27.8945C30.9689 33.108 31.141 41.314 30.9365 46.7839L32.9351 46.8586ZM31.8288 27.6389L31.8288 27.6387L29.8309 27.7309L29.8309 27.7312L31.8288 27.6389ZM12.7137 26.5679C13.3225 24.5209 13.9456 22.8933 14.5045 21.4293L12.6361 20.7159C12.0772 22.1796 11.4294 23.8705 10.7967 25.9978L12.7137 26.5679ZM14.4896 21.4661C15.7035 18.6302 16.4975 15.6332 16.8478 12.5683L14.8607 12.3412C14.5325 15.2134 13.7884 18.0218 12.651 20.6791L14.4896 21.4661ZM15.8543 13.4548H25.2337V11.4548H15.8543V13.4548ZM24.2399 12.5659C24.5823 15.6276 25.3763 18.622 26.5965 21.4514L28.433 20.6594C27.2911 18.0114 26.548 15.2091 26.2275 12.3436L24.2399 12.5659ZM26.5817 21.415C27.1461 22.8794 27.7733 24.5077 28.3881 26.5705L30.3048 25.9992C29.6655 23.8544 29.013 22.162 28.4479 20.6958L26.5817 21.415ZM28.3887 26.5726C28.4731 26.8535 28.5556 27.1659 28.6383 27.5135L30.584 27.0509C30.4948 26.6757 30.4024 26.3242 30.3041 25.9971L28.3887 26.5726ZM30.3182 26.5751L30.3177 26.5746L28.9035 27.9888L28.904 27.9893L30.3182 26.5751ZM29.556 26.2832C23.5566 26.6117 17.5436 26.6117 11.5436 26.2832L11.4343 28.2802C17.5071 28.6127 23.5931 28.6127 29.6653 28.2802L29.556 26.2832ZM12.4609 27.5168C12.5457 27.1664 12.6284 26.8523 12.713 26.5698L10.7971 25.996C10.699 26.3234 10.607 26.6742 10.5169 27.0467L12.4609 27.5168ZM12.0677 27.2328L12.0679 27.2327L11.4426 25.333L11.4425 25.333L12.0677 27.2328ZM20.7034 41.3832C20.607 41.4207 20.4999 41.4207 20.4035 41.3832L19.6785 43.2472C20.2412 43.466 20.8657 43.466 21.4284 43.2472L20.7034 41.3832ZM20.4018 41.3825C18.0299 40.465 16.7161 39.2123 16.1466 38.0558C15.5886 36.9224 15.7014 35.8137 16.3082 34.9384L14.6646 33.7989C13.6268 35.296 13.487 37.1818 14.3524 38.9393C15.2063 40.6736 16.9922 42.208 19.6802 43.2478L20.4018 41.3825ZM16.3074 34.9395C16.5893 34.5341 17.2063 34.1894 17.9358 34.1236C18.657 34.0584 19.2385 34.2833 19.5464 34.6812L21.128 33.457C20.2775 32.3581 18.9249 32.0261 17.7559 32.1317C16.5953 32.2364 15.3661 32.7899 14.6654 33.7978L16.3074 34.9395ZM20.3372 35.0691H20.3377V33.0691H20.3372V35.0691ZM19.5412 34.6737C19.7811 34.9898 20.1557 35.1762 20.5533 35.1762V33.1762C20.7819 33.1762 20.9964 33.283 21.1342 33.4645L19.5412 34.6737ZM20.5533 35.1762C20.9503 35.1762 21.3253 34.9906 21.5658 34.6738L19.9729 33.4644C20.1112 33.2822 20.3261 33.1762 20.5533 33.1762V35.1762ZM21.56 34.6813C21.8682 34.2833 22.4499 34.0585 23.171 34.1236C23.9004 34.1894 24.5172 34.5341 24.7991 34.9395L26.4412 33.7978C25.7405 32.7899 24.5114 32.2364 23.3508 32.1317C22.1818 32.0261 20.8294 32.3581 19.9787 33.4569L21.56 34.6813ZM24.7983 34.9384C25.4053 35.8139 25.5184 36.9227 24.9606 38.0559C24.3914 39.2123 23.0779 40.4649 20.7052 41.3825L21.4266 43.2479C24.1155 42.208 25.9013 40.6736 26.755 38.9391C27.6202 37.1815 27.4796 35.2958 26.442 33.7989L24.7983 34.9384ZM21.0659 41.3152H21.0659V43.3152H21.0659V41.3152ZM29.2084 53.3441C29.1781 53.4617 29.0455 53.7181 28.4237 54.0172C27.8078 54.3133 26.8623 54.5744 25.5208 54.7724L25.8128 56.751C27.236 56.5409 28.4102 56.2429 29.2905 55.8196C30.1648 55.3991 30.9049 54.7755 31.1451 53.8432L29.2084 53.3441ZM25.6668 54.7617H25.6663V56.7617H25.6668V54.7617ZM25.5398 54.7697C23.9447 54.9732 22.3389 55.077 20.7315 55.0794L20.7345 57.0794C22.4261 57.0769 24.1153 56.9676 25.7928 56.7537L25.5398 54.7697ZM20.7374 55.0794C19.0043 55.0717 17.2724 54.9674 15.5504 54.7679L15.3202 56.7546C17.1153 56.9626 18.9211 57.0714 20.7286 57.0794L20.7374 55.0794ZM15.5816 54.772C14.2406 54.5737 13.2952 54.3127 12.679 54.0167C12.0568 53.7176 11.9238 53.4613 11.8934 53.3436L9.95717 53.8447C10.1983 54.7764 10.9387 55.3993 11.8128 55.8193C12.693 56.2423 13.8667 56.5401 15.289 56.7505L15.5816 54.772ZM11.9083 53.4107C11.5368 51.4204 11.3303 49.4025 11.2906 47.3782L9.291 47.4174C9.33284 49.5516 9.55059 51.6791 9.94225 53.7776L11.9083 53.4107ZM10.206 48.3942C13.9982 48.7169 17.6056 48.884 21.059 48.884V46.884C17.6698 46.884 14.1195 46.72 10.3756 46.4014L10.206 48.3942ZM21.0578 48.884C24.3474 48.8879 27.6352 48.7272 30.9091 48.4017L30.7112 46.4116C27.504 46.7304 24.2831 46.8879 21.0602 46.884L21.0578 48.884ZM29.8103 47.387C29.7707 49.4084 29.5646 51.4229 29.1932 53.4099L31.1591 53.7774C31.5509 51.6817 31.7681 49.5575 31.81 47.4263L29.8103 47.387ZM30.2582 54.5903L30.2588 54.5903L30.0948 52.597L30.0942 52.597L30.2582 54.5903Z" fill="#F2B05C" mask="url(#path-4-inside-1_280_4764)"/>
</svg>
