<svg width="62" height="38" viewBox="0 0 62 38" fill="none" xmlns="http://www.w3.org/2000/svg">
<path d="M60.3182 0.130021C56.6125 1.82012 54.0772 5.46094 53.8823 9.62148L53.5571 18.3978C53.4923 19.9582 54.7271 21.2583 56.2875 21.2583H57.3926L55.3774 34.195C55.0523 36.1454 56.6127 37.9655 58.6278 37.9655C60.4481 37.9655 61.8783 36.5353 61.8783 34.7151L61.8787 1.10457C61.8787 0.324605 61.0335 -0.195485 60.3184 0.129627L60.3182 0.130021Z" fill="#2E41B6"/>
<path d="M9.74172 0C9.09145 0 8.5718 0.520125 8.5718 1.16992V9.94628C8.5718 10.2714 8.31196 10.5313 7.98683 10.5313H7.27171C6.94658 10.5313 6.68674 10.2714 6.68674 9.94628L6.68629 1.16992C6.68629 0.519649 6.16616 0 5.51637 0C4.8661 0 4.34599 0.520125 4.34599 1.16992V9.94628C4.34599 10.2714 4.08615 10.5313 3.76102 10.5313H3.0459C2.72077 10.5313 2.46093 10.2714 2.46093 9.94628V1.16992C2.46093 0.519649 1.94081 0 1.29101 0C0.640743 0 0.121094 0.520125 0.121094 1.16992V11.4412C0.121094 12.9363 1.35637 14.1716 2.85144 14.1716H3.43642L2.20114 34.4542C2.071 36.3392 3.56655 37.9644 5.45156 37.9644H5.5164C7.40141 37.9644 8.89696 36.3392 8.76682 34.4542L7.59644 14.1716H8.18141C9.67649 14.1716 10.9118 12.9363 10.9118 11.4412L10.9122 1.16992C10.9122 0.520101 10.3921 0 9.74183 0H9.74172Z" fill="#2E41B6"/>
<path d="M31.2598 0C20.7934 0 12.2773 8.51598 12.2773 18.9824C12.2773 29.4489 20.7933 37.9649 31.2598 37.9649C41.7261 37.9649 50.2422 29.4489 50.2422 18.9824C50.2422 8.51598 41.7258 0 31.2598 0ZM31.2598 33.4143C23.3288 33.4143 16.8279 26.9784 16.8279 18.9824C16.8279 11.0514 23.2639 4.55059 31.2598 4.55059C39.2562 4.55059 45.6917 11.0514 45.6917 18.9824C45.6917 26.9135 39.1908 33.4143 31.2598 33.4143Z" fill="#2E41B6"/>
<path d="M37.2399 16.5771H33.6644V10.4662C33.6644 9.16618 32.6241 8.06104 31.2592 8.06104C29.9591 8.06104 28.854 9.10127 28.854 10.4662L28.8535 18.9822C28.8535 20.2823 29.8938 21.3874 31.2587 21.3874H37.2395C38.5395 21.3874 39.6447 20.3472 39.6447 18.9822C39.6451 17.6822 38.54 16.577 37.2399 16.577L37.2399 16.5771Z" fill="#2E41B6"/>
</svg>
