<svg width="42" height="43" viewBox="0 0 42 43" fill="none" xmlns="http://www.w3.org/2000/svg">
<rect width="42" height="43" rx="21" fill="#00983F" fill-opacity="0.16"/>
<path fill-rule="evenodd" clip-rule="evenodd" d="M21.6419 12.8636V29.6366H12.0999V12.8636H10.3854L12.0999 11H21.5673L23.2818 12.8636H21.6419ZM19.7783 22.1072V24.9399H17.7656V22.1072H19.7783ZM15.9765 22.1072V24.9399H13.9637V22.1072H15.9765ZM19.7783 18.2307V21.0634H17.7656V18.2307H19.7783ZM15.9765 18.2307V21.0634H13.9637V18.2307H15.9765ZM19.7783 14.3542V17.187H17.7656V14.3542H19.7783ZM15.9765 14.3542V17.187H13.9637V14.3542H15.9765Z" fill="#00983F"/>
<path fill-rule="evenodd" clip-rule="evenodd" d="M29.0221 20.4673V29.6367H26.7112V25.6111C26.7112 25.3875 26.4876 25.1637 26.1894 25.1637H24.2512C23.953 25.1637 23.7294 25.3873 23.7294 25.6111V29.6367H21.4185V20.4673H29.0221ZM27.5312 21.3618V23.5982H25.9657V21.3618H27.5312ZM24.5494 21.3618V23.5982H22.9838V21.3618H24.5494Z" fill="#00983F"/>
<path fill-rule="evenodd" clip-rule="evenodd" d="M21.4181 18.2314H29.0217V19.7224H21.4181V18.2314Z" fill="#00983F"/>
<path fill-rule="evenodd" clip-rule="evenodd" d="M11.2053 30.2329H30.2148C30.8857 30.2329 31.4821 30.7547 31.4821 31.5002V33.9603H9.93835V31.5002C9.93835 30.7547 10.5348 30.2329 11.2057 30.2329H11.2053Z" fill="#00983F"/>
</svg>
