<svg width="42" height="43" viewBox="0 0 42 43" fill="none" xmlns="http://www.w3.org/2000/svg">
<rect width="42" height="43" rx="21" fill="#7C4DFF" fill-opacity="0.24"/>
<path d="M34.5076 31.5294L32.0126 24.9136C31.8445 24.4932 31.3959 24.2689 30.9755 24.381L23.6308 26.5114L20.0706 25.7545V27.5206L23.4906 28.2775C23.6308 28.3055 23.771 28.3055 23.911 28.2775L30.695 26.2871L32.5732 31.333L27.247 33.1832H11.941L9.89464 29.595L13.7071 26.175L15.3892 26.5395V24.7734L13.6231 24.3809C13.3708 24.3248 13.0904 24.4089 12.8661 24.5773L8.21262 28.7822C7.90425 29.0344 7.84813 29.511 8.04445 29.8475L10.7075 34.4728C10.8757 34.7251 11.1561 34.8932 11.4645 34.8932H27.3872C27.4712 34.8932 27.5835 34.8932 27.6676 34.8653L33.975 32.6787C34.1993 32.5946 34.3674 32.4265 34.4795 32.2301C34.5917 31.9777 34.5917 31.7536 34.5076 31.5293L34.5076 31.5294Z" fill="#7C4DFF"/>
<path d="M17.7159 29.4547C18.1924 29.4547 18.5849 29.0622 18.5849 28.5857V20.5963H26.8826C27.3591 20.5963 27.7516 20.2039 27.7516 19.7274V12.579C27.7516 12.1024 27.3591 11.71 26.8826 11.71H18.5849V10.869C18.5849 10.3924 18.1924 10 17.7159 10C17.2394 10 16.8469 10.3925 16.8469 10.869V28.5858C16.8749 29.0623 17.2394 29.4547 17.7159 29.4547V29.4547ZM26.0417 13.4479V18.8582L18.5849 18.8584V13.4481L26.0417 13.4479Z" fill="#7C4DFF"/>
</svg>
