<svg width="42" height="43" viewBox="0 0 42 43" fill="none" xmlns="http://www.w3.org/2000/svg">
<rect width="42" height="43" rx="21" fill="#FFE7C9"/>
<path d="M15.0418 13.219C15.2721 13.219 15.4929 13.1253 15.6557 12.9588C15.8184 12.7921 15.9099 12.566 15.9099 12.3303V9.33311C15.9099 9.01565 15.7446 8.72231 15.476 8.5637C15.2074 8.40487 14.8765 8.40487 14.6079 8.5637C14.3393 8.72232 14.174 9.01566 14.174 9.33311V12.3337C14.1748 12.5687 14.2665 12.794 14.4292 12.9598C14.592 13.1259 14.8122 13.219 15.0418 13.219L15.0418 13.219Z" fill="#F2B05C"/>
<path d="M26.9673 13.219C27.1976 13.219 27.4184 13.1253 27.581 12.9588C27.7439 12.7921 27.8352 12.566 27.8352 12.3303V9.33311C27.8352 9.01565 27.6699 8.72231 27.4013 8.5637C27.1327 8.40487 26.8018 8.40487 26.5334 8.5637C26.2648 8.72232 26.0992 9.01566 26.0992 9.33311V12.3337C26.1001 12.5687 26.192 12.794 26.3547 12.9598C26.5173 13.1259 26.7377 13.219 26.9674 13.219L26.9673 13.219Z" fill="#F2B05C"/>
<path d="M23.2001 19.7421C23.2001 19.1873 22.9876 18.6546 22.6083 18.2582C22.2292 17.8619 21.7135 17.6333 21.1716 17.6216H21.1236C20.3827 17.6216 19.698 18.0264 19.3276 18.6833C18.957 19.3402 18.957 20.1497 19.3276 20.8066C19.6979 21.4636 20.3827 21.8683 21.1236 21.8683H21.1716C21.7144 21.8566 22.2309 21.6273 22.6102 21.2296C22.9897 20.832 23.2013 20.2979 23.2001 19.7422V19.7421Z" fill="#F2B05C"/>
<path d="M31.5916 10.834H29.0559V12.3829C29.0559 13.164 28.6489 13.8856 27.9883 14.2761C27.3275 14.6666 26.5136 14.6666 25.853 14.2761C25.1922 13.8856 24.7854 13.164 24.7854 12.3829V10.834H17.1784V12.3829C17.1784 13.164 16.7714 13.8856 16.1108 14.2761C15.45 14.6666 14.6361 14.6666 13.9755 14.2761C13.3147 13.8856 12.9079 13.164 12.9079 12.3829V10.834H10.3722C9.80589 10.834 9.26267 11.0643 8.86231 11.4742C8.46174 11.8844 8.23694 12.4403 8.23694 13.0201V32.4219C8.23694 33.0017 8.46172 33.5579 8.86231 33.9678C9.26267 34.3777 9.80589 34.608 10.3722 34.608H31.5916C32.1577 34.608 32.7009 34.3777 33.1013 33.9678C33.5018 33.5579 33.7268 33.0017 33.7268 32.4219V13.0201C33.7268 12.4403 33.5018 11.8844 33.1013 11.4742C32.7009 11.0643 32.1577 10.834 31.5916 10.834ZM16.6446 19.7971C16.6634 18.5823 17.1488 17.4242 17.996 16.5734C18.843 15.7227 19.9836 15.2481 21.1702 15.2521C22.346 15.2534 23.4733 15.7323 24.3043 16.5839C25.1352 17.4355 25.6019 18.59 25.6019 19.7939C25.6019 19.7939 25.8901 22.2739 21.1702 28.5624L21.1232 28.6258C16.3018 22.4008 16.6477 19.7939 16.6477 19.7939L16.6446 19.7971ZM21.0123 31.6021C16.3318 31.6021 12.8032 29.8991 12.8032 27.6419C12.8032 26.292 14.0844 25.0995 16.3039 24.3704L16.6242 25.4121C14.9224 25.9684 13.8665 26.8232 13.8665 27.642C13.8665 28.9974 16.7994 30.5091 21.0079 30.5091C25.2165 30.5091 28.1494 28.9974 28.1494 27.642C28.1494 26.8386 27.1224 25.9936 25.4697 25.4362L25.8039 24.3989C27.9734 25.129 29.2204 26.3107 29.2204 27.642C29.2256 29.8992 25.6959 31.6022 21.0156 31.6022L21.0123 31.6021Z" fill="#F2B05C"/>
</svg>
