<svg width="42" height="43" viewBox="0 0 42 43" fill="none" xmlns="http://www.w3.org/2000/svg">
<rect width="42" height="43" rx="21" fill="#F0783B" fill-opacity="0.27"/>
<path d="M13.0737 15.121C12.3221 15.121 11.6012 15.4198 11.0698 15.9515C10.5386 16.4829 10.24 17.204 10.2405 17.9556C10.2407 18.7071 10.5395 19.4279 11.0714 19.9591C11.6032 20.4902 12.3244 20.7884 13.0759 20.7879C13.8275 20.7872 14.5483 20.4882 15.0792 19.9561C15.6101 19.424 15.9081 18.7029 15.9072 17.9513C15.9072 17.2001 15.6086 16.4797 15.0772 15.949C14.5458 15.418 13.8251 15.1203 13.0737 15.121Z" fill="#F0783B"/>
<path d="M15.4742 23.3662C14.7682 23.0522 14.0075 22.8789 13.2352 22.8557H12.9123C11.7233 22.8913 7.74292 23.4049 7.74292 28.8067C7.74292 29.8179 10.1757 30.3445 12.7182 30.3898V30.3607C12.715 27.2235 13.6455 24.8651 15.4742 23.3661L15.4742 23.3662Z" fill="#F0783B"/>
<path d="M28.2548 20.7844C29.0066 20.7853 29.7278 20.4876 30.2597 19.9564C30.7917 19.4254 31.091 18.705 31.0915 17.9531C31.0921 17.2016 30.794 16.4804 30.2628 15.9488C29.7317 15.4169 29.011 15.1179 28.2592 15.1177C27.5076 15.1175 26.7867 15.4158 26.2551 15.9472C25.7234 16.4786 25.4248 17.1993 25.4248 17.9511C25.4248 18.702 25.723 19.422 26.2534 19.9534C26.7842 20.4846 27.504 20.7837 28.2548 20.7843V20.7844Z" fill="#F0783B"/>
<path d="M28.4197 22.8557H28.0967C27.2928 22.8798 26.5023 23.0678 25.7737 23.4081C27.26 24.6552 28.4649 26.7714 28.4649 30.3606V30.3896C31.0527 30.3574 33.5889 29.8373 33.5889 28.8067C33.5889 23.4016 29.6151 22.8909 28.4196 22.8557L28.4197 22.8557Z" fill="#F0783B"/>
<path d="M20.5851 12C19.5435 12 18.5447 12.4138 17.8087 13.1504C17.0724 13.8872 16.6591 14.8859 16.6595 15.9276C16.6602 16.969 17.0747 17.9675 17.8116 18.7033C18.5487 19.4391 19.5478 19.8518 20.5894 19.8507C21.6308 19.8495 22.6291 19.4346 23.3645 18.6973C24.0999 17.9599 24.5121 16.9604 24.5104 15.9188C24.5095 14.8788 24.0955 13.8813 23.3593 13.1464C22.6233 12.4115 21.6251 11.9991 20.5851 12Z" fill="#F0783B"/>
<path d="M20.8142 22.119H20.5654H20.3554C18.7077 22.1643 13.1992 22.8782 13.1992 30.3609C13.1992 31.8278 16.892 32.5612 20.5879 32.5612C24.284 32.5612 27.9737 31.8278 27.9737 30.3578C27.9737 22.8751 22.4683 22.1644 20.814 22.1194L20.8142 22.119Z" fill="#F0783B"/>
</svg>
