<svg width="42" height="43" viewBox="0 0 42 43" fill="none" xmlns="http://www.w3.org/2000/svg">
<rect width="42" height="43" rx="21" fill="#1877F2" fill-opacity="0.15"/>
<path fill-rule="evenodd" clip-rule="evenodd" d="M21 34C26.1752 34 30.5893 30.7169 32.272 26.1222C32.2745 26.1155 32.277 26.1087 32.2794 26.1019C32.7455 24.8219 33 23.4403 33 21.9999C33 15.3769 27.6231 10 21 10C14.3769 10 9 15.3769 9 21.9999C9 23.3252 9.21534 24.6005 9.61277 25.7929C9.61193 25.8082 9.61143 25.8238 9.61143 25.8393C9.61143 26.0499 9.6934 26.2418 9.82744 26.3842C11.5803 30.8417 15.9242 33.9997 21.0001 33.9997L21 34ZM24.1351 26.6352C23.8426 28.241 23.401 29.6269 22.8514 30.6702C22.5465 31.2487 22.2134 31.7144 21.8476 32.0298C21.5783 32.2619 21.2991 32.4083 20.9998 32.4083C20.7006 32.4083 20.4213 32.2621 20.152 32.0298C19.7862 31.7144 19.4531 31.2487 19.1482 30.6702C18.5986 29.6269 18.157 28.2412 17.8645 26.6352H24.1351ZM16.2533 26.6352H11.6797C12.961 29.2048 15.2745 31.1714 18.0762 31.9914C17.9603 31.8102 17.8481 31.617 17.7402 31.4122C17.0982 30.1937 16.5792 28.5473 16.2533 26.6352L16.2533 26.6352ZM30.32 26.6352H25.7463C25.4205 28.5471 24.9014 30.1935 24.2594 31.4122C24.1514 31.6171 24.0392 31.8103 23.9235 31.9914C26.7251 31.1717 29.0385 29.2048 30.32 26.6351L30.32 26.6352ZM15.9691 19.6526H10.8575C10.6833 20.4072 10.5913 21.1929 10.5913 22.0001C10.5913 23.0588 10.7497 24.0808 11.0441 25.0436H16.034C15.9307 24.0732 15.8754 23.0529 15.8754 22.0001C15.8754 21.196 15.9077 20.4111 15.969 19.6526H15.9691ZM24.4352 19.6526C24.4989 20.4087 24.5323 21.1941 24.5323 22.0001C24.5323 23.0568 24.4749 24.0782 24.367 25.0436H17.6326C17.5247 24.0782 17.4673 23.0566 17.4673 22.0001C17.4673 21.1941 17.5007 20.4087 17.5644 19.6526H24.4352ZM31.1417 19.6526H26.0301C26.0913 20.4109 26.1237 21.196 26.1237 22.0001C26.1237 23.0529 26.0684 24.0732 25.9651 25.0436H30.955C31.2495 24.0807 31.4079 23.0586 31.4079 22.0001C31.4079 21.1929 31.3158 20.4072 31.1416 19.6526H31.1417ZM18.0762 12.0087C15.0269 12.901 12.5556 15.1522 11.3641 18.0612H16.145C16.4569 15.8523 17.0216 13.952 17.7402 12.588C17.8482 12.383 17.9604 12.1899 18.0762 12.0088L18.0762 12.0087ZM20.9997 11.5918C21.2989 11.5918 21.5782 11.738 21.8475 11.9703C22.2134 12.2857 22.5465 12.7514 22.8513 13.3298C23.4789 14.5208 23.9657 16.1585 24.2504 18.0608H17.7494C18.0342 16.1584 18.5209 14.5206 19.1485 13.3298C19.4534 12.7514 19.7865 12.2857 20.1523 11.9703C20.4216 11.7381 20.7008 11.5918 21.0001 11.5918H20.9997ZM23.9233 12.0087C24.0392 12.19 24.1514 12.3832 24.2593 12.5879C24.9779 13.9519 25.5424 15.8522 25.8546 18.0611H30.6355C29.4438 15.1523 26.9728 12.901 23.9234 12.0087L23.9233 12.0087Z" fill="#1877F2"/>
</svg>
